<svg width="32" height="32" viewBox="0 0 32 32" fill="none" xmlns="http://www.w3.org/2000/svg">
<path d="M22.3343 2.66699C22.3343 2.12033 21.881 1.66699 21.3343 1.66699C20.7876 1.66699 20.3343 2.12033 20.3343 2.66699V4.66699H11.6676V2.66699C11.6676 2.12033 11.2143 1.66699 10.6676 1.66699C10.121 1.66699 9.66762 2.12033 9.66762 2.66699V4.74699C6.06762 5.08033 4.32096 7.22699 4.05429 10.4137C4.02762 10.8003 4.34762 11.1203 4.72096 11.1203H27.281C27.6676 11.1203 27.9876 10.787 27.9476 10.4137C27.681 7.22699 25.9343 5.08033 22.3343 4.74699V2.66699Z" fill="#E91A4E"/>
<path fill-rule="evenodd" clip-rule="evenodd" d="M20 25.3333C20 26.3333 20.28 27.28 20.7733 28.08C21.6933 29.6267 23.3867 30.6667 25.3333 30.6667C27.28 30.6667 28.9733 29.6267 29.8933 28.08C30.3867 27.28 30.6667 26.3333 30.6667 25.3333C30.6667 22.3867 28.28 20 25.3333 20C22.3867 20 20 22.3867 20 25.3333ZM25.2533 27.3867C25.0667 27.56 24.8133 27.6533 24.5733 27.6533C24.32 27.6533 24.0667 27.56 23.8667 27.36L22.5467 26.04C22.16 25.6533 22.16 25.0133 22.5467 24.6267C22.9333 24.24 23.5733 24.24 23.96 24.6267L24.6 25.2667L26.7333 23.2933C27.1333 22.92 27.7733 22.9467 28.1467 23.3467C28.52 23.7467 28.4933 24.3733 28.0933 24.76L25.2533 27.3867Z" fill="#E91A4E"/>
<path fill-rule="evenodd" clip-rule="evenodd" d="M5.33333 13.1201C4.6 13.1201 4 13.7201 4 14.4535V22.6668C4 26.6668 6 29.3335 10.6667 29.3335H17.24C18.16 29.3335 18.8 28.4401 18.5067 27.5735C18.24 26.8001 18.0133 25.9468 18.0133 25.3335C18.0133 21.2935 21.3067 18.0001 25.3467 18.0001C25.7333 18.0001 26.12 18.0268 26.4933 18.0935C27.2933 18.2134 28.0133 17.5868 28.0133 16.7868V14.4668C28 13.7201 27.4 13.1201 26.6667 13.1201H5.33333ZM11.3333 24.6668C10.9867 24.6668 10.64 24.5201 10.3867 24.2801C10.1467 24.0268 10 23.6801 10 23.3335C10 22.9868 10.1467 22.6401 10.3867 22.3868C10.52 22.2668 10.6533 22.1735 10.8267 22.1068C11.32 21.8935 11.9067 22.0135 12.28 22.3868C12.52 22.6401 12.6667 22.9868 12.6667 23.3335C12.6667 23.6801 12.52 24.0268 12.28 24.2801C12.0267 24.5201 11.68 24.6668 11.3333 24.6668ZM12.08 19.7735C12 19.8268 11.92 19.8668 11.84 19.8935C11.76 19.9335 11.68 19.9601 11.6 19.9734C11.5067 19.9868 11.4133 20.0001 11.3333 20.0001C10.9867 20.0001 10.64 19.8535 10.3867 19.6135C10.1467 19.3601 10 19.0135 10 18.6668C10 18.3201 10.1467 17.9735 10.3867 17.7201C10.6933 17.4135 11.16 17.2668 11.6 17.3601C11.68 17.3735 11.76 17.4001 11.84 17.4401C11.92 17.4668 12 17.5068 12.08 17.5601C12.1467 17.6135 12.2133 17.6668 12.28 17.7201C12.52 17.9735 12.6667 18.3201 12.6667 18.6668C12.6667 19.0135 12.52 19.3601 12.28 19.6135C12.2133 19.6668 12.1467 19.7201 12.08 19.7735ZM16 20.0001C15.6533 20.0001 15.3067 19.8535 15.0533 19.6135C14.8133 19.3601 14.6667 19.0135 14.6667 18.6668C14.6667 18.3201 14.8133 17.9735 15.0533 17.7201C15.56 17.2268 16.4533 17.2268 16.9467 17.7201C17.1867 17.9735 17.3333 18.3201 17.3333 18.6668C17.3333 19.0135 17.1867 19.3601 16.9467 19.6135C16.6933 19.8535 16.3467 20.0001 16 20.0001Z" fill="#E91A4E"/>
</svg>
