<svg width="32" height="32" viewBox="0 0 32 32" fill="none" xmlns="http://www.w3.org/2000/svg">
<path d="M12.266 22.4003C11.746 22.9203 14.1422 25.4288 10.386 22.4137C10.2393 22.267 10.0927 22.1337 9.94602 21.987C8.57268 20.6003 7.33268 19.147 6.22602 17.627C5.13268 16.107 4.25268 14.587 3.61268 13.0803C2.98602 11.5603 2.66602 10.107 2.66602 8.72033C2.66602 7.81366 2.82602 6.94699 3.14602 6.14699C3.46602 5.33366 3.97268 4.58699 4.67935 3.92033C5.53268 3.08033 6.46602 2.66699 7.45268 2.66699C7.82602 2.66699 8.19935 2.74699 8.53268 2.90699C8.87935 3.06699 9.18602 3.30699 9.42602 3.65366L12.5194 8.01366C12.7593 8.34699 12.9327 8.65366 13.0527 8.94699C13.1727 9.22699 13.2393 9.50699 13.2393 9.76033C13.2393 10.0803 13.146 10.4003 12.9593 10.707C12.786 11.0137 12.5327 11.3337 12.2127 11.6537L11.1993 12.707C11.0527 12.8537 10.986 13.027 10.986 13.2403C10.986 13.347 10.9993 13.4403 11.026 13.547C11.066 13.6537 11.106 13.7337 11.1327 13.8137C11.3727 14.2537 11.786 14.827 12.3727 15.5203C12.9727 16.2137 13.6127 16.9203 14.306 17.627C14.4393 17.7603 14.586 17.8937 14.7193 18.027C15.2527 18.547 15.266 19.4003 14.7327 19.9337L12.266 22.4003Z" fill="#E91A4E"/>
<path d="M29.0936 25.5722C29.0536 25.6789 29.0136 25.7856 28.9602 25.8922C28.7336 26.3722 28.4403 26.8256 28.0536 27.2522C27.4002 27.9722 26.6802 28.4922 25.8669 28.8256C25.8536 28.8256 25.8403 28.8389 25.8269 28.8389C25.0403 29.1589 24.1869 29.3322 23.2669 29.3322C21.9069 29.3322 20.4536 29.0122 18.9202 28.3589C17.3869 27.7056 15.8536 26.8256 14.3336 25.7189C13.8136 25.3322 9.14355 21.4286 11.1436 22.4286L14.3336 17.6484C14.7069 17.9284 17.8669 20.6655 18.1469 20.8122C18.2136 20.8389 18.2936 20.8789 18.3869 20.9189C18.4936 20.9589 18.6003 20.9722 18.7203 20.9722C18.9469 20.9722 19.1202 20.8922 19.2669 20.7455L20.2802 19.7455C20.6136 19.4122 20.9336 19.1589 21.2403 18.9989C21.5469 18.8122 21.8536 18.7189 22.1869 18.7189C22.4402 18.7189 22.7069 18.7722 23.0002 18.8922C23.2936 19.0122 23.6003 19.1855 23.9336 19.4122L28.3469 22.5455C28.6936 22.7855 28.9336 23.0655 29.0802 23.3989C29.2136 23.7322 29.2936 24.0655 29.2936 24.4389C29.2936 24.8122 29.2269 25.1989 29.0936 25.5722Z" fill="#E91A4E"/>
</svg>
