<svg width="32" height="32" viewBox="0 0 32 32" fill="none" xmlns="http://www.w3.org/2000/svg">
<g clip-path="url(#clip0_2163_22435)">
<path d="M0.743391 32C0.563704 32 0.3889 31.929 0.259261 31.7979C0.0883629 31.625 0.022445 31.374 0.0866539 31.1394L2.16697 23.5427C0.871809 21.2007 0.188949 18.5513 0.189925 15.8618C0.193587 7.11548 7.31125 0 16.0568 0C20.2988 0.00170899 24.2846 1.65405 27.2805 4.6521C30.2758 7.65039 31.9247 11.636 31.9235 15.8745C31.9196 24.6211 24.8019 31.7371 16.0568 31.7371C16.0568 31.7371 16.0503 31.7371 16.05 31.7371C13.4956 31.7361 10.9631 31.1135 8.70822 29.9343L0.915998 31.9778C0.858869 31.9927 0.800764 32 0.743391 32Z" fill="#E5E5E5"/>
<path d="M0.739258 31.3149L2.89356 23.4479C1.5647 21.1455 0.865723 18.5336 0.866699 15.8579C0.870117 7.48704 7.68214 0.676758 16.0528 0.676758C20.1148 0.678467 23.9275 2.25952 26.7947 5.12914C29.6617 7.99876 31.24 11.8132 31.2386 15.8701C31.2349 24.2407 24.4219 31.0519 16.0528 31.0519C16.0523 31.0519 16.053 31.0519 16.0528 31.0519H16.0462C13.5047 31.0509 11.0076 30.4135 8.78956 29.2038L0.739258 31.3149ZM9.16237 26.4555L9.62355 26.7287C11.5611 27.8786 13.7825 28.4867 16.0479 28.488H16.0528C23.0093 28.488 28.6714 22.8268 28.6744 15.8691C28.6756 12.4973 27.3641 9.32664 24.981 6.94163C22.5977 4.55663 19.429 3.24243 16.0574 3.24096C9.09523 3.24096 3.43335 8.90135 3.43067 15.8588C3.42969 18.2431 4.09668 20.5649 5.36036 22.5742L5.66065 23.0517L4.38526 27.7079L9.16237 26.4555Z" fill="white"/>
<path d="M1.27051 30.7856L3.35034 23.1907C2.06714 20.968 1.39258 18.4463 1.39331 15.8635C1.39648 7.78247 7.97289 1.20801 16.0532 1.20801C19.9751 1.20972 23.656 2.73608 26.4233 5.50635C29.1914 8.27661 30.7148 11.959 30.7134 15.875C30.7099 23.9563 24.1333 30.5315 16.0539 30.5315C16.0532 30.5315 16.0542 30.5315 16.0539 30.5315H16.0473C13.594 30.5305 11.1831 29.9148 9.04199 28.7478L1.27051 30.7856Z" fill="#64B161"/>
<path d="M0.739258 31.3149L2.89356 23.4479C1.5647 21.1455 0.865723 18.5336 0.866699 15.8579C0.870117 7.48704 7.68214 0.676758 16.0528 0.676758C20.1148 0.678467 23.9275 2.25952 26.7947 5.12914C29.6617 7.99876 31.24 11.8132 31.2386 15.8701C31.2349 24.2407 24.4219 31.0519 16.0528 31.0519C16.0523 31.0519 16.053 31.0519 16.0528 31.0519H16.0462C13.5047 31.0509 11.0076 30.4135 8.78956 29.2038L0.739258 31.3149ZM9.16237 26.4555L9.62355 26.7287C11.5611 27.8786 13.7825 28.4867 16.0479 28.488H16.0528C23.0093 28.488 28.6714 22.8268 28.6744 15.8691C28.6756 12.4973 27.3641 9.32664 24.981 6.94163C22.5977 4.55663 19.429 3.24243 16.0574 3.24096C9.09523 3.24096 3.43335 8.90135 3.43067 15.8588C3.42969 18.2431 4.09668 20.5649 5.36036 22.5742L5.66065 23.0517L4.38526 27.7079L9.16237 26.4555Z" fill="white"/>
<path fill-rule="evenodd" clip-rule="evenodd" d="M12.2541 9.50831C11.97 8.87647 11.6706 8.86377 11.4001 8.85279C11.1789 8.84327 10.9258 8.84375 10.6731 8.84375C10.4202 8.84375 10.009 8.93897 9.66137 9.31861C9.31347 9.69825 8.33301 10.6162 8.33301 12.4832C8.33301 14.3504 9.69287 16.1543 9.88256 16.4078C10.0723 16.6609 12.5076 20.6146 16.3642 22.1356C19.5696 23.3997 20.2217 23.1483 20.9175 23.085C21.6133 23.0218 23.1623 22.1671 23.4785 21.2811C23.7949 20.3951 23.7949 19.6358 23.6999 19.4769C23.6049 19.3189 23.352 19.2239 22.9726 19.0342C22.5932 18.8445 20.7278 17.9263 20.3799 17.7999C20.032 17.6731 19.779 17.6102 19.5261 17.99C19.2729 18.3694 18.5464 19.2239 18.3249 19.4769C18.1035 19.7305 17.8821 19.7623 17.5027 19.5723C17.1233 19.3821 15.9011 18.9817 14.4514 17.689C13.3235 16.6834 12.5618 15.4412 12.3403 15.0613C12.1191 14.6819 12.3367 14.4944 12.5071 14.2871C12.814 13.9138 13.3288 13.2427 13.4553 12.9898C13.5818 12.7364 13.5185 12.5149 13.4238 12.325C13.3288 12.1353 12.5913 10.2588 12.2541 9.50831Z" fill="white"/>
</g>
<defs>
<clipPath id="clip0_2163_22435">
<rect width="32" height="32" fill="white"/>
</clipPath>
</defs>
</svg>
