<svg width="80" height="80" viewBox="0 0 80 80" fill="none" xmlns="http://www.w3.org/2000/svg">
<path d="M53.032 20.6773L25.9998 12V68H53.032V20.6773Z" fill="#2E2A94"/>
<path d="M45.8124 34.3305C45.7715 34.2313 45.6745 34.1666 45.5674 34.1666C35.2768 34.1666 34.1658 38.4313 34.1658 40.2651C34.1658 40.9248 34.3122 41.541 34.6012 42.0962C34.6458 42.1821 34.7338 42.2367 34.8303 42.2389C34.9215 42.2362 35.0175 42.1906 35.0658 42.1063C35.7605 40.9057 37.7279 37.9424 40.9771 36.3679C41.1102 36.3043 41.2693 36.3589 41.3324 36.4899C41.396 36.6219 41.3408 36.781 41.2093 36.8447C40.9643 36.9635 40.7289 37.0929 40.4982 37.227C40.4102 37.2784 40.3248 37.3331 40.2384 37.3866C40.1084 37.4672 39.9801 37.5494 39.855 37.6343C39.7303 37.7181 39.6073 37.804 39.4864 37.892C39.4487 37.9196 39.4127 37.9477 39.3755 37.9758C36.1417 40.3855 34.1658 44.2296 34.1658 45.5681C34.1658 45.7145 34.2846 45.8333 34.431 45.8333C34.5774 45.8333 34.6962 45.7145 34.6962 45.5681C34.6962 45.1407 34.9873 44.2742 35.5383 43.2406C36.338 43.8945 37.4139 44.2424 38.6734 44.2424C42.0785 44.2424 42.7918 41.0022 43.1746 39.2613C43.6901 36.9184 44.8244 35.5497 45.7546 34.619C45.8309 34.5431 45.8532 34.4296 45.8124 34.3305Z" fill="#EBCB76"/>
</svg>
