<?xml version="1.0" encoding="UTF-8"?>
<svg width="110px" height="110px" viewBox="0 0 110 110" version="1.1" xmlns="http://www.w3.org/2000/svg" xmlns:xlink="http://www.w3.org/1999/xlink">
    <title>CTA Copy 9</title>
    <defs>
        <linearGradient x1="0%" y1="0%" x2="98.0795258%" y2="98.0795258%" id="linearGradient-1">
            <stop stop-color="#9B1E26" offset="0%"></stop>
            <stop stop-color="#56070C" offset="100%"></stop>
        </linearGradient>
    </defs>
    <g id="Desktop" stroke="none" stroke-width="1" fill="none" fill-rule="evenodd">
        <g id="1_Homepage_Default-MVP" transform="translate(-153.000000, -2104.000000)">
            <g id="CTA-Copy-9" transform="translate(153.000000, 2104.000000)">
                <circle id="Base" fill="url(#linearGradient-1)" cx="55" cy="55" r="55"></circle>
                <g id="Group-9" transform="translate(33.673469, 31.428571)" fill="#FFFFFF" fill-rule="nonzero" stroke="#9B1E26" stroke-width="0.3">
                    <g id="noun-document-3350503">
                        <path d="M34.693637,0 C35.2348588,0 35.7541274,0.196988459 36.1367785,0.548064065 C36.5194296,0.898826991 36.7343265,1.37454169 36.7343265,1.87062069 L36.7343265,1.87062069 L36.7343265,16.8367728 L42.8569286,16.8367728 C43.3984127,16.8367728 43.9174189,17.0337612 44.30007,17.3848368 C44.6827212,17.7355998 44.8979592,18.2113145 44.8979592,18.7073935 L44.8979592,18.7073935 L44.8979592,39.2857524 C44.8979592,40.77427 44.2529187,42.2017749 43.1046154,43.2540636 C41.9563121,44.3066731 40.3990312,44.8979592 38.7755408,44.8979592 L38.7755408,44.8979592 L2.04103061,44.8979592 C1.49954644,44.8979592 0.980540287,44.7009707 0.597889139,44.3498951 C0.215237991,43.9991322 0,43.5234175 0,43.0273385 L0,43.0273385 L0,1.87062069 C0,1.37458178 0.215237991,0.898826991 0.597889139,0.548064065 C0.980540287,0.196988459 1.49951145,0 2.04103061,0 L2.04103061,0 Z M32.6532974,3.74189079 L4.08172012,3.74189079 L4.08172012,41.1560684 L32.6532974,41.1560684 L32.6532974,3.74189079 Z M40.8162303,20.5783509 L36.7345015,20.5783509 L36.7345015,39.2854397 C36.7345015,39.9537733 37.1236249,40.5713566 37.7550211,40.9055234 C38.3864174,41.2396903 39.1643319,41.2396903 39.7957106,40.9055234 C40.4270894,40.5713566 40.8162303,39.9537653 40.8162303,39.2854397 L40.8162303,39.2854397 L40.8162303,20.5783509 Z M13.0895979,24.1656981 C15.8409588,26.9404407 20.3018983,26.9404407 23.053137,24.1656981 C23.8395578,23.3733387 25.1142133,23.3733387 25.9000719,24.1656981 C26.6863706,24.958538 26.6863706,26.2437974 25.9000719,27.0361937 C21.5766271,31.3960987 14.5663523,31.3960987 10.2427852,27.0361937 C9.45648656,26.2438344 9.45648656,24.9585873 10.2427852,24.1656981 C11.0286072,23.3733387 12.3032504,23.3733387 13.0895979,24.1656981 Z M12.9083904,12.3469388 C14.4582605,12.3469388 15.7142857,13.6033166 15.7142857,15.1530612 C15.7142857,16.7028059 14.458147,17.9591837 12.9083904,17.9591837 C11.3585203,17.9591837 10.1020408,16.7028059 10.1020408,15.1530612 C10.1020408,13.6033166 11.3585203,12.3469388 12.9083904,12.3469388 Z M23.0104313,12.3469388 C24.5603014,12.3469388 25.8163265,13.6033166 25.8163265,15.1530612 C25.8163265,16.7028059 24.5601878,17.9591837 23.0104313,17.9591837 C21.4605612,17.9591837 20.2040816,16.7028059 20.2040816,15.1530612 C20.2040816,13.6033166 21.4605612,12.3469388 23.0104313,12.3469388 Z" id="Combined-Shape"></path>
                    </g>
                </g>
            </g>
        </g>
    </g>
</svg>