<svg width="24" height="24" viewBox="0 0 24 24" fill="none" xmlns="http://www.w3.org/2000/svg">
<path d="M18.8333 19H5.16667C3.41667 19 2 17.555 2 15.77V5.23C2 3.445 3.41667 2 5.16667 2H18.75C20.5833 2 22 3.445 22 5.23V15.685C22 17.555 20.5833 19 18.8333 19ZM5.16667 3.7C4.33333 3.7 3.66667 4.38 3.66667 5.23V15.685C3.66667 16.535 4.33333 17.215 5.16667 17.215H18.75C19.5833 17.215 20.25 16.535 20.25 15.685V5.23C20.25 4.38 19.5833 3.7 18.75 3.7H5.16667Z" fill="#9C1D26"/>
<path d="M3 14H21V15.6H3V14ZM15.2727 22H8.72727C8.23636 22 7.90909 21.68 7.90909 21.2C7.90909 20.72 8.23636 20.4 8.72727 20.4H15.2727C15.7636 20.4 16.0909 20.72 16.0909 21.2C16.0909 21.68 15.7636 22 15.2727 22Z" fill="#9C1D26"/>
<path d="M8.8 22C8.32 22 8 21.6667 8 21.1667C8 20.6667 8.32 20.3333 8.8 20.3333C8.96 20.3333 9.6 20.5 9.6 18.8333C9.6 18.3333 9.92 18 10.4 18C10.88 18 11.2 18.3333 11.2 18.8333C11.2 21.25 10.16 22 8.8 22ZM15.2 22C13.84 22 12.8 21.25 12.8 18.8333C12.8 18.3333 13.12 18 13.6 18C14.08 18 14.4 18.3333 14.4 18.8333C14.4 20.5 15.04 20.3333 15.2 20.3333C15.68 20.3333 16 20.6667 16 21.1667C16 21.6667 15.68 22 15.2 22Z" fill="#9C1D26"/>
</svg>
