<svg width="80" height="80" viewBox="0 0 80 80" fill="none" xmlns="http://www.w3.org/2000/svg">
<path d="M59.5353 44.7024C55.3322 40.2741 50.3034 37.0467 44.8244 35.2454C45.8001 32.6185 46.7758 30.0666 47.7515 27.4396C54.2063 30.5169 59.8355 35.2454 64.1136 41.2498C62.0121 39.8988 59.7604 38.9982 57.5088 38.3977C58.2593 40.6494 58.9348 42.751 59.5353 44.7024Z" fill="#2E2A94"/>
<path d="M44.8244 35.2454C47.8266 34.72 50.9789 34.7951 54.0562 35.5456C52.2549 32.8436 50.1533 30.1417 47.6765 27.5147C46.7008 30.0666 45.7251 32.6185 44.8244 35.2454Z" fill="#EBCB76"/>
<path d="M54.0557 35.5455C44.5987 28.7905 32.4397 26.3887 20.9562 29.5411C20.0555 25.8633 19.1549 22.2607 18.2542 18.583C32.89 16.1812 47.3757 20.6095 57.8084 29.8413C56.6075 31.7177 55.3316 33.594 54.0557 35.5455Z" fill="#2E2A94"/>
<path d="M15.9906 16.5371L18.5466 15.9329L29.7501 63.3287L27.1941 63.9329L15.9906 16.5371Z" fill="#2E2A94"/>
</svg>
