<?xml version="1.0" encoding="UTF-8"?>
<svg version="1.1" xmlns="http://www.w3.org/2000/svg" width="102" height="128">
<path d="M0 0 C9.46213648 0.58167618 18.76445169 1.72841593 28.12890625 3.1796875 C29.53562517 3.39536695 30.94235866 3.61095141 32.34910583 3.82644653 C35.26822162 4.27504809 38.18665515 4.72782545 41.10473633 5.18310547 C44.83857775 5.76486169 48.57459419 6.33115782 52.31134129 6.89390373 C55.20449303 7.33215495 58.09595345 7.7808526 60.98704338 8.23248672 C62.36473684 8.44596264 63.74302227 8.65565517 65.12188911 8.86141586 C67.04200532 9.14905133 68.95968089 9.45283879 70.87719727 9.75732422 C72.51048729 10.00928055 72.51048729 10.00928055 74.17677307 10.2663269 C77.20068733 11.0521527 78.86578733 11.71327581 81 14 C81.27926636 16.19699097 81.27926636 16.19699097 80.94091797 18.90576172 C80.74801178 20.52052399 80.74801178 20.52052399 80.5512085 22.16790771 C80.36930969 23.43249817 80.18741089 24.69708862 80 26 C79.89994911 26.71650978 79.79989822 27.43301956 79.69681549 28.17124176 C78.83815391 34.29260276 77.89616157 40.40020438 76.9453125 46.5078125 C76.63988287 48.48450252 76.3346185 50.46121808 76.0295105 52.43795776 C75.39188963 56.56179818 74.75096555 60.68510916 74.10791016 64.80810547 C73.28771451 70.06982243 72.47784854 75.33307133 71.67070198 80.59680367 C71.04417049 84.6726804 70.41111727 88.74752472 69.7762413 92.82210922 C69.47501788 94.76167215 69.17601821 96.70158189 68.87936783 98.64184952 C64.99401368 124.00598632 64.99401368 124.00598632 61 128 C58.45111876 128.19831516 56.01089779 128.27278262 53.4609375 128.25878906 C52.68357239 128.2622937 51.90620728 128.26579834 51.10528564 128.26940918 C48.52843368 128.27823206 45.9518549 128.27237545 43.375 128.265625 C41.58902941 128.26697149 39.80305918 128.26891189 38.01708984 128.27142334 C34.27112341 128.27437535 30.52525225 128.27007449 26.77929688 128.26074219 C21.97037167 128.24934759 17.16166969 128.25590666 12.35275269 128.26788712 C8.66396392 128.27510364 4.97522833 128.27281875 1.28643799 128.26763153 C-0.48704047 128.26629446 -2.26052371 128.26794476 -4.03399658 128.27259064 C-6.50977425 128.27765249 -8.9851871 128.26995063 -11.4609375 128.25878906 C-12.19866394 128.26283752 -12.93639038 128.26688599 -13.69647217 128.27105713 C-18.77147122 128.22852878 -18.77147122 128.22852878 -21 126 C-21.25168228 124.07281494 -21.25168228 124.07281494 -21.25396729 121.67285156 C-21.26242676 120.30997009 -21.26242676 120.30997009 -21.27105713 118.91955566 C-21.26700867 117.92000854 -21.26296021 116.92046143 -21.25878906 115.890625 C-21.2622937 114.84015991 -21.26579834 113.78969482 -21.26940918 112.70739746 C-21.27823979 109.22153185 -21.27237259 105.73586781 -21.265625 102.25 C-21.26697127 99.83626262 -21.26891147 97.42252551 -21.27142334 95.00878906 C-21.27437641 89.94463525 -21.27007106 84.88055189 -21.26074219 79.81640625 C-21.24934761 73.31254469 -21.2559061 66.80884818 -21.26788712 60.30499268 C-21.27510076 55.31916044 -21.27282006 50.33336758 -21.26763153 45.34753418 C-21.26629366 42.94885234 -21.26794752 40.55016697 -21.27259064 38.15148926 C-21.2776477 34.80402095 -21.26995706 31.45682307 -21.25878906 28.109375 C-21.26283752 27.10982788 -21.26688599 26.11028076 -21.27105713 25.08044434 C-21.26541748 24.17185669 -21.25977783 23.26326904 -21.25396729 22.32714844 C-21.25321323 21.53516052 -21.25245918 20.74317261 -21.25168228 19.92718506 C-21 18 -21 18 -19 16 C-16.41935871 15.85502015 -13.95056116 15.81322455 -11.375 15.875 C-10.66859375 15.88402344 -9.9621875 15.89304687 -9.234375 15.90234375 C-7.48943902 15.92592397 -5.74467705 15.96179539 -4 16 C-3.96261719 15.26394531 -3.92523437 14.52789062 -3.88671875 13.76953125 C-3.82097656 12.79371094 -3.75523438 11.81789063 -3.6875 10.8125 C-3.62949219 9.84957031 -3.57148438 8.88664063 -3.51171875 7.89453125 C-2.94243681 4.67439448 -1.73385407 2.73904537 0 0 Z " fill="#C8CFD5" transform="translate(21,0)"/>
<path d="M0 0 C0.72680466 0.00247742 1.45360931 0.00495483 2.20243835 0.00750732 C2.9684436 0.00239639 3.73444885 -0.00271454 4.52366638 -0.00798035 C7.06323496 -0.02191388 9.60253329 -0.02091676 12.14213562 -0.01861572 C13.90329083 -0.02250067 15.6644451 -0.02683492 17.42559814 -0.03160095 C21.12028539 -0.03907131 24.81487709 -0.03876606 28.50956726 -0.0335083 C33.24896638 -0.02771342 37.98797474 -0.04464104 42.72730923 -0.06785297 C46.36553237 -0.08257099 50.00366101 -0.08346465 53.64190865 -0.08034325 C55.38944841 -0.08085746 57.13699333 -0.08611394 58.88450432 -0.09615517 C61.3266795 -0.1084647 63.76808833 -0.10176134 66.21025085 -0.09014893 C66.93503128 -0.09779266 67.65981171 -0.1054364 68.40655518 -0.11331177 C73.32601903 -0.06149622 73.32601903 -0.06149622 75.74359131 1.80543518 C76.25217934 2.5364167 76.25217934 2.5364167 76.77104187 3.28216553 C73.40830326 3.28216553 70.05787804 3.17316426 66.69682312 3.06341553 C66.01299057 3.04121948 65.32915802 3.01902344 64.62460327 2.99615479 C62.4442344 2.92527937 60.26388819 2.85373103 58.08354187 2.78216553 C56.60372561 2.73394407 55.12390791 2.68576646 53.64408875 2.63763428 C50.01972307 2.51965325 46.39537742 2.40106878 42.77104187 2.28216553 C42.77104187 2.94216553 42.77104187 3.60216553 42.77104187 4.28216553 C35.51104187 4.28216553 28.25104187 4.28216553 20.77104187 4.28216553 C20.77104187 3.95216553 20.77104187 3.62216553 20.77104187 3.28216553 C17.80104187 2.78716553 17.80104187 2.78716553 14.77104187 2.28216553 C14.77104187 2.94216553 14.77104187 3.60216553 14.77104187 4.28216553 C14.11104187 3.95216553 13.45104187 3.62216553 12.77104187 3.28216553 C10.25776217 3.15823086 7.78434073 3.0970144 5.27104187 3.09466553 C4.58139343 3.08241943 3.891745 3.07017334 3.18119812 3.05755615 C1.37626693 3.05227858 -0.42813655 3.16032095 -2.22895813 3.28216553 C-4.61784315 5.67105054 -4.48368474 6.17971062 -4.50743103 9.43295288 C-4.51859451 10.30236008 -4.529758 11.17176727 -4.54125977 12.06752014 C-4.54341995 13.02345566 -4.54558014 13.97939117 -4.54780579 14.96429443 C-4.55785141 15.96920425 -4.56789703 16.97411407 -4.57824707 18.00947571 C-4.60922343 21.3425538 -4.62615431 24.67555107 -4.64302063 28.00872803 C-4.66172065 30.31516218 -4.68129317 32.62158941 -4.70170593 34.92800903 C-4.75315628 41.00742521 -4.79271284 47.08686361 -4.82984924 53.16638184 C-4.86980818 59.36649122 -4.92093741 65.56650717 -4.97114563 71.76654053 C-5.06805762 83.93835002 -5.15241336 96.11021211 -5.22895813 108.28216553 C-5.88895813 108.28216553 -6.54895813 108.28216553 -7.22895813 108.28216553 C-7.27563976 94.49604002 -7.31079523 80.70992674 -7.33258247 66.92373848 C-7.34303717 60.5228413 -7.35722705 54.12199707 -7.37983704 47.72113037 C-7.40150538 41.54848584 -7.41351404 35.37589236 -7.41871262 29.20321274 C-7.4224192 26.84359813 -7.4296568 24.48398644 -7.44041824 22.12439346 C-7.45485329 18.82942835 -7.45693943 15.5346765 -7.45600891 12.23968506 C-7.46319946 11.25569733 -7.47039001 10.27170959 -7.47779846 9.25790405 C-7.47504913 8.36325439 -7.4722998 7.46860474 -7.46946716 6.54684448 C-7.47131075 5.76700762 -7.47315434 4.98717075 -7.47505379 4.18370247 C-6.89640009 -0.28745073 -3.77142264 0.04029334 0 0 Z " fill="#EEF4F7" transform="translate(7.2289581298828125,15.71783447265625)"/>
<path d="M0 0 C2.85746217 1.26998319 4.48137263 2.2838003 6.3125 4.8125 C7.69342297 9.20634582 7.39545531 12.08873342 5.5625 16.3125 C2.43277101 19.59489869 0.60220436 19.96521147 -3.8125 20.17578125 C-6.88802826 19.92864059 -8.66262825 18.98322451 -11 17 C-13.13586678 13.79619983 -13.23132175 12.98060033 -13.125 9.3125 C-13.10695312 8.50425781 -13.08890625 7.69601563 -13.0703125 6.86328125 C-13.04710937 6.24839844 -13.02390625 5.63351563 -13 5 C-12.01 4.67 -11.02 4.34 -10 4 C-10 3.34 -10 2.68 -10 2 C-6.27420911 -0.48386059 -4.41288598 -0.3804212 0 0 Z " fill="#EE6842" transform="translate(70,99)"/>
<path d="M0 0 C3.82619411 0.39581318 5.64504591 0.99103673 8.625 3.375 C10.95567577 6.59355225 11.09241137 9.47990526 10.625 13.375 C9.1875 16.6875 9.1875 16.6875 6.625 19.375 C2.20273186 20.86009005 -1.21059904 20.92155555 -5.4375 18.9375 C-6.076875 18.421875 -6.71625 17.90625 -7.375 17.375 C-3.04166667 17.375 1.29166667 17.375 5.625 17.375 C7.23564629 13.72420174 8.07394091 10.3242568 8.625 6.375 C7.965 6.375 7.305 6.375 6.625 6.375 C5.965 5.385 5.305 4.395 4.625 3.375 C1.95846095 3.01039547 1.95846095 3.01039547 -1 3.1875 C-2.00289063 3.21457031 -3.00578125 3.24164063 -4.0390625 3.26953125 C-4.80992188 3.30433594 -5.58078125 3.33914062 -6.375 3.375 C-4.10048104 0.76964192 -3.646191 0.40513233 0 0 Z " fill="#D47864" transform="translate(66.375,98.625)"/>
<path d="M0 0 C0.33 0 0.66 0 1 0 C1.03738281 0.60328125 1.07476562 1.2065625 1.11328125 1.828125 C1.39507252 5.2538228 1.71846197 8.29615491 3 11.5 C6.30003412 13.97502559 9.95345552 14.09212798 14 14 C16.94661406 13.21136479 16.94661406 13.21136479 19 12 C18.67 12.99 18.34 13.98 18 15 C17.34 15 16.68 15 16 15 C16 15.66 16 16.32 16 17 C14.22925083 17.02705729 12.45838289 17.04642195 10.6875 17.0625 C9.70136719 17.07410156 8.71523437 17.08570312 7.69921875 17.09765625 C5 17 5 17 2 16 C-0.42130331 12.36804504 -0.21022785 10.61650652 -0.125 6.3125 C-0.09792969 4.54326172 -0.09792969 4.54326172 -0.0703125 2.73828125 C-0.04710937 1.83464844 -0.02390625 0.93101563 0 0 Z " fill="#C9B0AF" transform="translate(56,104)"/>
<path d="M0 0 C1.640625 1.078125 1.640625 1.078125 4.015625 4.265625 C4.49655131 7.98757642 4.3683004 11.5364092 4.015625 15.265625 C3.025625 15.595625 2.035625 15.925625 1.015625 16.265625 C1.12261719 15.67394531 1.22960937 15.08226563 1.33984375 14.47265625 C2.13370274 9.27125381 2.13370274 9.27125381 0.765625 4.265625 C-0.91124399 2.00904672 -0.91124399 2.00904672 -3.984375 1.265625 C-7.66820269 1.13405973 -10.47491085 1.09580362 -13.984375 2.265625 C-13.984375 2.925625 -13.984375 3.585625 -13.984375 4.265625 C-14.974375 4.595625 -15.964375 4.925625 -16.984375 5.265625 C-16.734375 3.390625 -16.734375 3.390625 -15.984375 1.265625 C-11.22579756 -1.75383109 -5.24537966 -1.9412035 0 0 Z " fill="#D9B2B1" transform="translate(73.984375,98.734375)"/>
<path d="M0 0 C0.89203125 0.01804687 1.7840625 0.03609375 2.703125 0.0546875 C3.71632813 0.08949219 3.71632813 0.08949219 4.75 0.125 C4.75 0.785 4.75 1.445 4.75 2.125 C3.82767578 2.10759766 3.82767578 2.10759766 2.88671875 2.08984375 C1.67435547 2.07630859 1.67435547 2.07630859 0.4375 2.0625 C-0.36300781 2.05089844 -1.16351563 2.03929688 -1.98828125 2.02734375 C-4.41861334 2.02842145 -4.41861334 2.02842145 -7.25 3.125 C-7.25 3.785 -7.25 4.445 -7.25 5.125 C-8.24 5.455 -9.23 5.785 -10.25 6.125 C-10 4.25 -10 4.25 -9.25 2.125 C-6.13870062 0.08851313 -3.66596268 -0.0964727 0 0 Z " fill="#D9B09D" transform="translate(67.25,97.875)"/>
<path d="M0 0 C3.4375 0.25 3.4375 0.25 5.4375 1.25 C5.1075 1.91 4.7775 2.57 4.4375 3.25 C0.8075 3.25 -2.8225 3.25 -6.5625 3.25 C-3.5625 0.25 -3.5625 0.25 0 0 Z " fill="#D37353" transform="translate(66.5625,98.75)"/>
<path d="M0 0 C0.99 0.66 1.98 1.32 3 2 C2.67 2.99 2.34 3.98 2 5 C0.02 5.33 -1.96 5.66 -4 6 C-2.68 4.02 -1.36 2.04 0 0 Z " fill="#B6C1C3" transform="translate(76,114)"/>
</svg>
