<?xml version="1.0" encoding="UTF-8"?>
<svg width="110px" height="111px" viewBox="0 0 110 111" version="1.1" xmlns="http://www.w3.org/2000/svg" xmlns:xlink="http://www.w3.org/1999/xlink">
    <title>Group 8</title>
    <defs>
        <linearGradient x1="0.819061555%" y1="0%" x2="97.291924%" y2="98.0795258%" id="linearGradient-1">
            <stop stop-color="#9B1E26" offset="0%"></stop>
            <stop stop-color="#56070C" offset="100%"></stop>
        </linearGradient>
    </defs>
    <g id="Desktop" stroke="none" stroke-width="1" fill="none" fill-rule="evenodd">
        <g id="1_Homepage_Default-MVP" transform="translate(-444.000000, -2104.000000)">
            <g id="Group-8" transform="translate(444.000000, 2104.000000)">
                <ellipse id="Base" fill="url(#linearGradient-1)" cx="55" cy="55.4560951" rx="55" ry="55.4560951"></ellipse>
                <g id="noun-document-3350503" transform="translate(33.529960, 31.428571)" fill="#FFFFFF" fill-rule="nonzero">
                    <path d="M42.6740978,16.8367728 L36.577772,16.8367728 L36.577772,1.87062069 C36.577772,1.37454169 36.363791,0.898826991 35.9827706,0.548064065 C35.6017502,0.196988459 35.0846947,0 34.5457795,0 L2.03233214,0 C1.49312083,0 0.976361416,0.196988459 0.595341052,0.548064065 C0.214320689,0.898826991 0,1.37458178 0,1.87062069 L0,43.0273385 C0,43.5234175 0.214320689,43.9991322 0.595341052,44.3498951 C0.976361416,44.7009707 1.49315566,44.8979592 2.03233214,44.8979592 L38.610287,44.8979592 C40.2268585,44.8979592 41.7775025,44.3066731 42.9209119,43.2540636 C44.0643214,42.2017749 44.7066129,40.77427 44.7066129,39.2857524 L44.7066129,18.7073935 C44.7066129,18.2113145 44.4922922,17.7355998 44.1112718,17.3848368 C43.7302514,17.0337612 43.2134572,16.8367728 42.6742807,16.8367728 L42.6740978,16.8367728 Z M26.1739566,41.1560684 L4.06432462,41.1560684 L4.06432462,3.74189079 L32.5141354,3.74189079 L32.5141354,41.1560684 L26.1739566,41.1560684 Z M40.6422795,39.2854397 C40.6422795,39.9537653 40.2547971,40.5713566 39.6261091,40.9055234 C38.9974211,41.2396903 38.222822,41.2396903 37.5941166,40.9055234 C36.9654112,40.5713566 36.5779462,39.9537733 36.5779462,39.2854397 L36.5779462,20.5783509 L40.6422795,20.5783509 L40.6422795,39.2854397 Z" id="Shape"></path>
                    <path d="M22.9550107,23.0432491 C23.7379583,22.2508898 25.0071814,22.2508898 25.7896909,23.0432491 C26.5726385,23.836089 26.5726385,25.1213485 25.7896909,25.9137448 C21.4846717,30.2736497 14.5042733,30.2736497 10.1991325,25.9137448 C9.41618486,25.1213854 9.41618486,23.8361383 10.1991325,23.0432491 C10.9816054,22.2508898 12.2508164,22.2508898 13.0338126,23.0432491 C15.7734477,25.8179917 20.2153756,25.8179917 22.954889,23.0432491 L22.9550107,23.0432491 Z" id="Path" stroke="#9B1E26" stroke-width="0.3" transform="translate(17.994412, 25.816327) rotate(-180.000000) translate(-17.994412, -25.816327) "></path>
                    <path d="M12.8533774,17.9591837 C11.3101125,17.9591837 10.0589879,16.7028059 10.0589879,15.1530612 C10.0589879,13.6033166 11.3101125,12.3469388 12.8533774,12.3469388 C14.3966423,12.3469388 15.6473145,13.6033166 15.6473145,15.1530612 C15.6473145,16.7028059 14.3965292,17.9591837 12.8533774,17.9591837 Z" id="Path" stroke="#9B1E26" stroke-width="0.3"></path>
                    <path d="M22.9123653,17.9591837 C21.3691004,17.9591837 20.1179758,16.7028059 20.1179758,15.1530612 C20.1179758,13.6033166 21.3691004,12.3469388 22.9123653,12.3469388 C24.4556301,12.3469388 25.7063024,13.6033166 25.7063024,15.1530612 C25.7063024,16.7028059 24.455517,17.9591837 22.9123653,17.9591837 Z" id="Path-Copy" stroke="#9B1E26" stroke-width="0.3"></path>
                </g>
            </g>
        </g>
    </g>
</svg>