<?xml version="1.0" encoding="UTF-8"?>
<svg width="111px" height="111px" viewBox="0 0 111 111" version="1.1" xmlns="http://www.w3.org/2000/svg" xmlns:xlink="http://www.w3.org/1999/xlink">
    <title>Group 8</title>
    <defs>
        <linearGradient x1="0.819061555%" y1="0%" x2="97.291924%" y2="98.0795258%" id="linearGradient-1">
            <stop stop-color="#9B1E26" offset="0%"></stop>
            <stop stop-color="#56070C" offset="100%"></stop>
        </linearGradient>
    </defs>
    <g id="Desktop" stroke="none" stroke-width="1" fill="none" fill-rule="evenodd">
        <g id="1_Homepage_Default-MVP" transform="translate(-1052.000000, -2104.000000)">
            <g id="Group-8" transform="translate(1052.904688, 2104.000000)">
                <ellipse id="Base-Copy-2" fill="url(#linearGradient-1)" cx="55" cy="55.4560951" rx="55" ry="55.4560951"></ellipse>
                <path d="M33.0908289,73.6825811 L77.7974418,73.6825811 L77.7974418,66.6484924 C77.7974418,65.8502278 77.4494671,65.1518076 76.8039635,64.5035501 C76.2079829,63.9050187 75.5621156,63.6555237 74.6681625,63.6555237 L72.2340519,63.6555237 L72.2340519,47.2428579 L77.7974418,47.2425099 L77.7974418,40.4081454 L55.4441797,31.4285714 L33.0908289,40.4081454 L33.0908289,47.2425099 L38.6543075,47.2425099 L38.6543075,63.7549488 L36.2201969,63.7549488 C35.3262438,63.7549488 34.6304542,64.0044527 34.084396,64.6029752 C33.4385286,65.2516068 33.0908289,65.9997978 33.0908289,66.7479175 L33.0908289,73.6825811 Z M74.5188746,70.4898437 L36.2699595,70.4898437 L36.2699595,66.8980141 L74.5188746,66.8980141 L74.5188746,70.4898437 Z M69.1045065,63.6551229 L62.0508105,63.6551229 L62.0508105,47.242457 L69.1045065,47.242457 L69.1045065,63.6551229 Z M58.9213538,63.6551229 L52.0166795,63.6551229 L52.0166795,47.242457 L58.9213538,47.242457 L58.9213538,63.6551229 L58.9213538,63.6551229 Z M48.8375489,63.6551229 L41.7838529,63.6551229 L41.7838529,47.242457 L48.8375489,47.242457 L48.8375489,63.6551229 Z M74.5189634,44.0996061 L36.2700482,44.0996061 L36.2700482,42.553213 L55.4441797,34.9205751 L74.5189634,42.5034156 L74.5189634,44.0996061 Z" id="Shape" fill="#FFFFFF" fill-rule="nonzero"></path>
            </g>
        </g>
    </g>
</svg>