<svg width="56" height="56" viewBox="0 0 56 56" fill="none" xmlns="http://www.w3.org/2000/svg">
<path d="M0.5 16C0.5 7.43959 7.43959 0.5 16 0.5H40C48.5604 0.5 55.5 7.43959 55.5 16V40C55.5 48.5604 48.5604 55.5 40 55.5H16C7.43959 55.5 0.5 48.5604 0.5 40V16Z" stroke="black"/>
<path d="M37 21.25H19C18.5858 21.25 18.25 21.5858 18.25 22V34C18.25 34.4142 18.5858 34.75 19 34.75H37C37.4142 34.75 37.75 34.4142 37.75 34V22C37.75 21.5858 37.4142 21.25 37 21.25Z" stroke="#262626" stroke-linecap="round" stroke-linejoin="round"/>
<path d="M31.75 31.75H34.75" stroke="#262626" stroke-linecap="round" stroke-linejoin="round"/>
<path d="M27.25 31.75H28.75" stroke="#262626" stroke-linecap="round" stroke-linejoin="round"/>
<path d="M18.25 25H37.75" stroke="#262626" stroke-linecap="round" stroke-linejoin="round"/>
</svg>
