<svg width="56" height="57" viewBox="0 0 56 57" fill="none" xmlns="http://www.w3.org/2000/svg">
<path d="M0.5 16.5C0.5 7.93959 7.43959 1 16 1H40C48.5604 1 55.5 7.93959 55.5 16.5V40.5C55.5 49.0604 48.5604 56 40 56H16C7.43959 56 0.5 49.0604 0.5 40.5V16.5Z" stroke="black"/>
<path d="M28 19.125C26.1458 19.125 24.3332 19.6748 22.7915 20.705C21.2498 21.7351 20.0482 23.1993 19.3386 24.9123C18.6291 26.6254 18.4434 28.5104 18.8051 30.329C19.1669 32.1475 20.0598 33.818 21.3709 35.1291C22.682 36.4402 24.3525 37.3331 26.171 37.6949C27.9896 38.0566 29.8746 37.8709 31.5877 37.1614C33.3007 36.4518 34.7649 35.2502 35.795 33.7085C36.8252 32.1668 37.375 30.3542 37.375 28.5C37.3723 26.0144 36.3837 23.6315 34.6261 21.8739C32.8686 20.1163 30.4856 19.1277 28 19.125ZM28 37.125C26.2941 37.125 24.6266 36.6192 23.2082 35.6714C21.7898 34.7237 20.6843 33.3767 20.0315 31.8006C19.3787 30.2246 19.2079 28.4904 19.5407 26.8173C19.8735 25.1443 20.695 23.6074 21.9012 22.4012C23.1074 21.195 24.6443 20.3735 26.3174 20.0407C27.9904 19.7079 29.7246 19.8787 31.3006 20.5315C32.8767 21.1843 34.2237 22.2898 35.1714 23.7082C36.1192 25.1266 36.625 26.7941 36.625 28.5C36.6225 30.7867 35.713 32.9791 34.0961 34.5961C32.4791 36.213 30.2867 37.1225 28 37.125ZM31.2653 27.4847C31.3357 27.5551 31.3752 27.6505 31.3752 27.75C31.3752 27.8495 31.3357 27.9449 31.2653 28.0153C31.195 28.0857 31.0995 28.1252 31 28.1252C30.9005 28.1252 30.8051 28.0857 30.7347 28.0153L28.375 25.6556V32.25C28.375 32.3495 28.3355 32.4448 28.2652 32.5152C28.1948 32.5855 28.0995 32.625 28 32.625C27.9005 32.625 27.8052 32.5855 27.7348 32.5152C27.6645 32.4448 27.625 32.3495 27.625 32.25V25.6556L25.2653 28.0153C25.195 28.0857 25.0995 28.1252 25 28.1252C24.9005 28.1252 24.8051 28.0857 24.7347 28.0153C24.6643 27.9449 24.6248 27.8495 24.6248 27.75C24.6248 27.6505 24.6643 27.5551 24.7347 27.4847L27.7347 24.4847C27.7695 24.4498 27.8109 24.4222 27.8564 24.4033C27.9019 24.3844 27.9507 24.3747 28 24.3747C28.0493 24.3747 28.0981 24.3844 28.1436 24.4033C28.1891 24.4222 28.2305 24.4498 28.2653 24.4847L31.2653 27.4847Z" fill="#262626"/>
</svg>
