<svg width="21" height="21" viewBox="0 0 21 21" fill="none" xmlns="http://www.w3.org/2000/svg">
<path fill-rule="evenodd" clip-rule="evenodd" d="M0.5 6.13208C0.5 3.08723 2.97719 0.610046 6.02203 0.610046H14.978C18.0229 0.610046 20.5 3.08723 20.5 6.13208V15.0881C20.5 18.1329 18.0229 20.61 14.978 20.61H6.02203C2.97719 20.61 0.5 18.1329 0.5 15.0881V6.13208ZM6.52914 10.61C6.52914 12.7996 8.31048 14.5809 10.5 14.5809C12.6895 14.5809 14.4709 12.7996 14.4709 10.61C14.4709 8.42052 12.6895 6.63919 10.5 6.63919C8.31048 6.63919 6.52914 8.42052 6.52914 10.61ZM5.24211 10.61C5.24211 7.71078 7.60074 5.35216 10.5 5.35216C13.3993 5.35216 15.7579 7.71078 15.7579 10.61C15.7579 13.5093 13.3993 15.8679 10.5 15.8679C7.60074 15.8679 5.24211 13.5093 5.24211 10.61ZM16.9048 2.73098C17.667 2.73098 18.2848 3.34885 18.2848 4.11104C18.2848 4.87325 17.667 5.49112 16.9048 5.49112C16.1426 5.49112 15.5247 4.87325 15.5247 4.11104C15.5247 3.34885 16.1426 2.73098 16.9048 2.73098Z" fill="white"/>
</svg>
