<svg width="25" height="25" viewBox="0 0 25 25" fill="none" xmlns="http://www.w3.org/2000/svg">
<path fill-rule="evenodd" clip-rule="evenodd" d="M2.5 8.13208C2.5 5.08723 4.97719 2.61005 8.02203 2.61005H16.978C20.0229 2.61005 22.5 5.08723 22.5 8.13208V17.0881C22.5 20.1329 20.0229 22.61 16.978 22.61H8.02203C4.97719 22.61 2.5 20.1329 2.5 17.0881V8.13208ZM8.52914 12.61C8.52914 14.7996 10.3105 16.5809 12.5 16.5809C14.6895 16.5809 16.4709 14.7996 16.4709 12.61C16.4709 10.4205 14.6895 8.63919 12.5 8.63919C10.3105 8.63919 8.52914 10.4205 8.52914 12.61ZM7.24211 12.61C7.24211 9.71078 9.60074 7.35216 12.5 7.35216C15.3993 7.35216 17.7579 9.71078 17.7579 12.61C17.7579 15.5093 15.3993 17.8679 12.5 17.8679C9.60074 17.8679 7.24211 15.5093 7.24211 12.61ZM18.9048 4.73098C19.667 4.73098 20.2848 5.34885 20.2848 6.11104C20.2848 6.87325 19.667 7.49112 18.9048 7.49112C18.1426 7.49112 17.5247 6.87325 17.5247 6.11104C17.5247 5.34885 18.1426 4.73098 18.9048 4.73098Z" fill="white"/>
</svg>
