<svg width="25" height="25" viewBox="0 0 25 25" fill="none" xmlns="http://www.w3.org/2000/svg">
<path d="M18.3182 4.61005H6.68182C6.10316 4.61005 5.54821 4.83992 5.13904 5.24909C4.72987 5.65826 4.5 6.21321 4.5 6.79186V18.4282C4.5 19.0069 4.72987 19.5618 5.13904 19.971C5.54821 20.3802 6.10316 20.61 6.68182 20.61H18.3182C18.8968 20.61 19.4518 20.3802 19.861 19.971C20.2701 19.5618 20.5 19.0069 20.5 18.4282V6.79186C20.5 6.21321 20.2701 5.65826 19.861 5.24909C19.4518 4.83992 18.8968 4.61005 18.3182 4.61005ZM9.95455 17.2719C9.95467 17.3162 9.94603 17.3602 9.92913 17.4012C9.91224 17.4422 9.88741 17.4795 9.85608 17.5109C9.82475 17.5424 9.78753 17.5673 9.74655 17.5843C9.70557 17.6013 9.66164 17.61 9.61727 17.61H8.18C8.13556 17.6102 8.09153 17.6015 8.05044 17.5845C8.00936 17.5676 7.97203 17.5427 7.9406 17.5113C7.90917 17.4798 7.88427 17.4425 7.86732 17.4014C7.85036 17.3603 7.8417 17.3163 7.84182 17.2719V11.2464C7.84182 11.1567 7.87745 11.0707 7.94087 11.0073C8.00429 10.9439 8.09031 10.9082 8.18 10.9082H9.61727C9.70681 10.9085 9.79259 10.9442 9.85582 11.0076C9.91904 11.071 9.95455 11.1569 9.95455 11.2464V17.2719ZM8.89818 10.3373C8.62848 10.3373 8.36484 10.2573 8.14059 10.1075C7.91634 9.95767 7.74156 9.7447 7.63835 9.49552C7.53514 9.24635 7.50813 8.97217 7.56075 8.70765C7.61336 8.44313 7.74324 8.20015 7.93395 8.00945C8.12465 7.81874 8.36763 7.68886 8.63215 7.63625C8.89667 7.58363 9.17085 7.61064 9.42002 7.71385C9.66919 7.81706 9.88217 7.99184 10.032 8.21609C10.1818 8.44034 10.2618 8.70398 10.2618 8.97368C10.2618 9.33534 10.1182 9.68219 9.86242 9.93792C9.60669 10.1937 9.25984 10.3373 8.89818 10.3373ZM17.4673 17.2955C17.4674 17.3364 17.4594 17.3768 17.4439 17.4146C17.4283 17.4524 17.4054 17.4867 17.3765 17.5156C17.3476 17.5445 17.3133 17.5674 17.2755 17.583C17.2377 17.5986 17.1972 17.6065 17.1564 17.6064H15.6109C15.57 17.6065 15.5296 17.5986 15.4918 17.583C15.454 17.5674 15.4197 17.5445 15.3908 17.5156C15.3619 17.4867 15.339 17.4524 15.3234 17.4146C15.3078 17.3768 15.2999 17.3364 15.3 17.2955V14.4728C15.3 14.051 15.4236 12.6255 14.1973 12.6255C13.2473 12.6255 13.0536 13.601 13.0155 14.0391V17.2991C13.0155 17.3808 12.9833 17.4592 12.926 17.5174C12.8687 17.5756 12.7908 17.6089 12.7091 17.61H11.2164C11.1756 17.61 11.1352 17.602 11.0975 17.5864C11.0599 17.5707 11.0256 17.5478 10.9968 17.5189C10.968 17.49 10.9452 17.4558 10.9297 17.418C10.9142 17.3803 10.9062 17.3399 10.9064 17.2991V11.22C10.9062 11.1793 10.9142 11.1389 10.9297 11.1011C10.9452 11.0634 10.968 11.0291 10.9968 11.0003C11.0256 10.9714 11.0599 10.9485 11.0975 10.9328C11.1352 10.9172 11.1756 10.9091 11.2164 10.9091H12.7091C12.7915 10.9091 12.8706 10.9419 12.9289 11.0002C12.9872 11.0585 13.02 11.1376 13.02 11.22V11.7455C13.3727 11.2155 13.8955 10.8082 15.0109 10.8082C17.4818 10.8082 17.4655 13.1155 17.4655 14.3828L17.4673 17.2955Z" fill="white"/>
</svg>
