<svg width="17" height="17" viewBox="0 0 17 17" fill="none" xmlns="http://www.w3.org/2000/svg">
<path d="M14.3182 0.610046H2.68182C2.10316 0.610046 1.54821 0.839916 1.13904 1.24909C0.729869 1.65826 0.5 2.21321 0.5 2.79186L0.5 14.4282C0.5 15.0069 0.729869 15.5618 1.13904 15.971C1.54821 16.3802 2.10316 16.61 2.68182 16.61H14.3182C14.8968 16.61 15.4518 16.3802 15.861 15.971C16.2701 15.5618 16.5 15.0069 16.5 14.4282V2.79186C16.5 2.21321 16.2701 1.65826 15.861 1.24909C15.4518 0.839916 14.8968 0.610046 14.3182 0.610046ZM5.95455 13.2719C5.95467 13.3162 5.94603 13.3602 5.92913 13.4012C5.91224 13.4422 5.88741 13.4795 5.85608 13.5109C5.82475 13.5424 5.78753 13.5673 5.74655 13.5843C5.70557 13.6013 5.66164 13.61 5.61727 13.61H4.18C4.13556 13.6102 4.09153 13.6015 4.05044 13.5845C4.00936 13.5676 3.97203 13.5427 3.9406 13.5113C3.90917 13.4798 3.88427 13.4425 3.86732 13.4014C3.85036 13.3603 3.8417 13.3163 3.84182 13.2719V7.24641C3.84182 7.15672 3.87745 7.0707 3.94087 7.00728C4.00429 6.94386 4.09031 6.90823 4.18 6.90823H5.61727C5.70681 6.90847 5.79259 6.94421 5.85582 7.0076C5.91904 7.071 5.95455 7.15688 5.95455 7.24641V13.2719ZM4.89818 6.33732C4.62848 6.33732 4.36484 6.25734 4.14059 6.10751C3.91634 5.95767 3.74156 5.7447 3.63835 5.49552C3.53514 5.24635 3.50813 4.97217 3.56075 4.70765C3.61336 4.44313 3.74324 4.20015 3.93395 4.00945C4.12465 3.81874 4.36763 3.68886 4.63215 3.63625C4.89667 3.58363 5.17085 3.61064 5.42002 3.71385C5.66919 3.81706 5.88217 3.99184 6.032 4.21609C6.18184 4.44034 6.26182 4.70398 6.26182 4.97368C6.26182 5.33534 6.11815 5.68219 5.86242 5.93792C5.60669 6.19365 5.25984 6.33732 4.89818 6.33732ZM13.4673 13.2955C13.4674 13.3364 13.4594 13.3768 13.4439 13.4146C13.4283 13.4524 13.4054 13.4867 13.3765 13.5156C13.3476 13.5445 13.3133 13.5674 13.2755 13.583C13.2377 13.5986 13.1972 13.6065 13.1564 13.6064H11.6109C11.57 13.6065 11.5296 13.5986 11.4918 13.583C11.454 13.5674 11.4197 13.5445 11.3908 13.5156C11.3619 13.4867 11.339 13.4524 11.3234 13.4146C11.3078 13.3768 11.2999 13.3364 11.3 13.2955V10.4728C11.3 10.051 11.4236 8.6255 10.1973 8.6255C9.24727 8.6255 9.05364 9.60096 9.01545 10.0391V13.2991C9.01546 13.3808 8.98333 13.4592 8.926 13.5174C8.86868 13.5756 8.79076 13.6089 8.70909 13.61H7.21636C7.17558 13.61 7.13519 13.602 7.09752 13.5864C7.05985 13.5707 7.02564 13.5478 6.99684 13.5189C6.96804 13.49 6.94522 13.4558 6.9297 13.418C6.91417 13.3803 6.90624 13.3399 6.90636 13.2991V7.22005C6.90624 7.17926 6.91417 7.13885 6.9297 7.10114C6.94522 7.06342 6.96804 7.02914 6.99684 7.00026C7.02564 6.97137 7.05985 6.94846 7.09752 6.93282C7.13519 6.91719 7.17558 6.90914 7.21636 6.90914H8.70909C8.79155 6.90914 8.87063 6.94189 8.92894 7.0002C8.98724 7.05851 9.02 7.13759 9.02 7.22005V7.7455C9.37273 7.2155 9.89546 6.80823 11.0109 6.80823C13.4818 6.80823 13.4655 9.1155 13.4655 10.3828L13.4673 13.2955Z" fill="white"/>
</svg>
