<svg width="96" height="57" viewBox="0 0 96 57" fill="none" xmlns="http://www.w3.org/2000/svg">
<g clip-path="url(#clip0_34874_7635)">
<path d="M50.6136 47.8683V53.5266H49.8787V49.3077L48.0227 53.5266H47.5068L45.6421 49.2989V53.5266H44.9072V47.8683H45.6969L47.7633 52.5456L49.8297 47.8683H50.6136Z" fill="white"/>
<path d="M55.9393 49.0448V53.5236H55.2044V52.8608C55.0632 53.0885 54.8701 53.2695 54.6194 53.3951C54.3686 53.5206 54.0948 53.5878 53.7922 53.5878C53.4493 53.5878 53.138 53.5148 52.8642 53.3717C52.5904 53.2287 52.3743 53.0097 52.2158 52.7206C52.0573 52.4316 51.9766 52.0812 51.9766 51.6666V49.0418H52.7028V51.5674C52.7028 52.0082 52.8123 52.3469 53.0343 52.5863C53.2562 52.8228 53.5559 52.9425 53.9392 52.9425C54.3225 52.9425 54.6424 52.8199 54.8672 52.5747C55.092 52.3294 55.2073 51.9732 55.2073 51.5031V49.0418H55.9422L55.9393 49.0448Z" fill="white"/>
<path d="M58.2401 49.658V52.2974C58.2401 52.5164 58.2862 52.6682 58.3785 52.7587C58.4707 52.8492 58.6292 52.893 58.854 52.893H59.3958V53.5237H58.7329C58.3237 53.5237 58.0182 53.4273 57.8136 53.2375C57.609 53.0478 57.5081 52.7324 57.5081 52.2974V49.658H56.9346V49.0449H57.5081V47.9179H58.243V49.0449H59.3958V49.658H58.243H58.2401Z" fill="white"/>
<path d="M64.3641 49.0448V53.5236H63.6292V52.8608C63.488 53.0885 63.2949 53.2695 63.0442 53.3951C62.7934 53.5206 62.5197 53.5878 62.217 53.5878C61.8741 53.5878 61.5628 53.5148 61.289 53.3717C61.0152 53.2287 60.7991 53.0097 60.6406 52.7206C60.4821 52.4316 60.4014 52.0812 60.4014 51.6666V49.0418H61.1276V51.5674C61.1276 52.0082 61.2372 52.3469 61.4591 52.5863C61.681 52.8228 61.9807 52.9425 62.364 52.9425C62.7473 52.9425 63.0672 52.8199 63.292 52.5747C63.5168 52.3294 63.6321 51.9732 63.6321 51.5031V49.0418H64.367L64.3641 49.0448Z" fill="white"/>
<path d="M65.7709 50.0638C65.9524 49.7163 66.206 49.4506 66.526 49.2579C66.8459 49.0681 67.2032 48.9718 67.5952 48.9718C67.9871 48.9718 68.3186 49.0565 68.6039 49.2258C68.8892 49.3951 69.1025 49.6083 69.2408 49.8623V49.0448H69.9844V53.5236H69.2408V52.6886C69.0967 52.9513 68.8777 53.1674 68.5924 53.3396C68.307 53.5119 67.9698 53.5966 67.5865 53.5966C67.2032 53.5966 66.8401 53.4973 66.5202 53.3017C66.2032 53.1061 65.9524 52.8316 65.7709 52.4754C65.5893 52.1192 65.4971 51.7192 65.4971 51.2667C65.4971 50.8141 65.5893 50.4083 65.7709 50.0608V50.0638ZM69.0391 50.3937C68.9036 50.1426 68.722 49.9499 68.4944 49.8185C68.2667 49.6842 68.0131 49.617 67.7393 49.617C67.4655 49.617 67.2148 49.6813 66.99 49.8127C66.7652 49.944 66.5836 50.1338 66.4481 50.3849C66.3127 50.636 66.2464 50.9309 66.2464 51.2667C66.2464 51.6024 66.3127 51.909 66.4481 52.163C66.5836 52.417 66.7623 52.6097 66.99 52.744C67.2148 52.8783 67.4655 52.9455 67.7393 52.9455C68.0131 52.9455 68.2638 52.8783 68.4944 52.744C68.7249 52.6097 68.9036 52.417 69.0391 52.163C69.1745 51.909 69.2408 51.6141 69.2408 51.2754C69.2408 50.9367 69.1745 50.6419 69.0391 50.3937Z" fill="white"/>
<path d="M72.1187 47.4771V53.5266H71.3838V47.4771H72.1187Z" fill="white"/>
<path d="M79.0285 47.8273V48.4317H76.5845V50.3529H78.5702V50.9572H76.5845V53.5236H75.8496V47.8244H79.0285V47.8273Z" fill="white"/>
<path d="M83.9989 49.0449V53.5237H83.264V52.861C83.1228 53.0887 82.9297 53.2697 82.6789 53.3953C82.4282 53.5208 82.1544 53.588 81.8518 53.588C81.5088 53.588 81.1976 53.515 80.9238 53.3719C80.65 53.2288 80.4339 53.0099 80.2753 52.7208C80.1168 52.4318 80.0361 52.0814 80.0361 51.6668V49.042H80.7624V51.5675C80.7624 52.0084 80.8719 52.3471 81.0938 52.5865C81.3158 52.8259 81.6155 52.9427 81.9988 52.9427C82.3821 52.9427 82.702 52.8201 82.9268 52.5748C83.1516 52.3296 83.2669 51.9734 83.2669 51.5033V49.042H84.0018L83.9989 49.0449Z" fill="white"/>
<path d="M88.8636 49.4595C89.1979 49.7894 89.3651 50.2653 89.3651 50.8872V53.5266H88.6388V50.9923C88.6388 50.5456 88.5293 50.204 88.3074 49.9675C88.0855 49.731 87.7857 49.6113 87.4024 49.6113C87.0191 49.6113 86.7078 49.734 86.4773 49.9792C86.2496 50.2245 86.1343 50.5807 86.1343 51.0507V53.5266H85.3994V49.0478H86.1343V49.6843C86.2784 49.4566 86.4773 49.2785 86.728 49.1529C86.9788 49.0274 87.2525 48.9661 87.5552 48.9661C88.0941 48.9661 88.5293 49.1296 88.8636 49.4595Z" fill="white"/>
<path d="M90.7289 50.0639C90.9104 49.7165 91.1641 49.4508 91.484 49.2581C91.8039 49.0683 92.1641 48.9719 92.5618 48.9719C92.9048 48.9719 93.2276 49.0537 93.5216 49.2143C93.8184 49.3748 94.0432 49.5851 94.1988 49.8478V47.4771H94.9424V53.5267H94.1988V52.6858C94.0547 52.9515 93.8386 53.1734 93.5532 53.3427C93.2679 53.515 92.9336 53.5996 92.5532 53.5996C92.1728 53.5996 91.8039 53.5004 91.484 53.3048C91.1641 53.1091 90.9133 52.8347 90.7289 52.4785C90.5444 52.1223 90.4551 51.7223 90.4551 51.2697C90.4551 50.8172 90.5473 50.4113 90.7289 50.0639ZM93.9971 50.3938C93.8616 50.1427 93.6801 49.95 93.4524 49.8186C93.2247 49.6843 92.9711 49.6172 92.6973 49.6172C92.4235 49.6172 92.1728 49.6814 91.948 49.8128C91.7232 49.9442 91.5416 50.134 91.4061 50.3851C91.2707 50.6362 91.2044 50.931 91.2044 51.2668C91.2044 51.6026 91.2707 51.9091 91.4061 52.1632C91.5416 52.4172 91.7203 52.6099 91.948 52.7442C92.1757 52.8785 92.4235 52.9456 92.6973 52.9456C92.9711 52.9456 93.2247 52.8785 93.4524 52.7442C93.6801 52.6099 93.8616 52.4172 93.9971 52.1632C94.1325 51.9091 94.1988 51.6143 94.1988 51.2756C94.1988 50.9369 94.1325 50.642 93.9971 50.3938Z" fill="white"/>
<path d="M96.0002 43.5414H37.207V42.9925H96.0002V43.5414Z" fill="white"/>
<path d="M18.4074 38.0728V38.0348H17.6005V37.9968H17.0615V37.9589H16.6782V37.9209H16.4102V37.883H16.1018V37.845H15.8338V37.8071H15.6032V37.7691H15.4101V37.7312H15.1796V37.6932H14.9865V37.6552H14.7963V37.6173H14.6406V37.5793H14.4879V37.5414H14.3352V37.5034H14.1421V37.4655H13.9893V37.4275H13.874V37.3896H13.7184V37.3516H13.6031V37.3136H13.4504V37.2757H13.3351V37.2377H13.1823V37.1998H13.0671V37.1618H12.9893V37.1239H12.874V37.0859H12.7587V37.0479H12.6434V37.01H12.5281V36.972H12.4128V36.9341H12.2976V36.8961H12.1823V36.8582H12.1045V36.8202H11.9892V36.7823H11.9143V36.7443H11.799V36.7063H11.7212V36.6684H11.6059V36.6304H11.5281V36.5925H11.4128V36.5545H11.3379V36.5166H11.26V36.4786H11.1822V36.4407H11.1073V36.4027H10.992V36.3647H10.9142V36.3268H10.8364V36.2888H10.7615V36.2509H10.6836V36.2129H10.6058V36.175H10.5309V36.137H10.4531V36.099H10.3753V36.0611H10.3003V36.0231H10.2225V35.9852H10.1447V35.9472H10.0698V35.9093H9.99195V35.8713H9.91414V35.8334H9.83921V35.7954H9.76139V35.7574H9.72393V35.7195H9.64611V35.6815H9.5683V35.6436H9.49336V35.6056H9.45302V35.5677H9.37808V35.5297H9.30027V35.4918H9.22246V35.4538H9.18499V35.4158H9.10717V35.3779H9.03224V35.3399H8.99189V35.302H8.91696V35.264H8.87661V35.2261H8.80168V35.1881H8.72387V35.1502H8.6864V35.1122H8.60859V35.0742H8.57112V35.0363H8.4933V34.9983H8.45584V34.9604H8.37802V34.9224H8.34056V34.8845H8.26274V34.8465H8.22528V34.8085H8.14746V34.7706H8.11V34.7326H8.03218V34.6947H7.99472V34.6567H7.95437V34.6188H7.87944V34.5808H7.83909V34.5429H7.76415V34.5049H7.72381V34.4669H7.68634V34.429H7.60853V34.391H7.57106V34.3531H7.53359V34.3151H7.45578V34.2772H7.41831V34.2392H7.37796V34.2013H7.30303V34.1633H7.26268V34.1253H7.22522V34.0874H7.18775V34.0494H7.10994V34.0115H7.07247V33.9735H7.03212V33.9356H6.99466V33.8976H6.91684V33.8596H6.87938V33.8217H6.84191V33.7837H6.80156V33.7458H6.76409V33.7078H6.68628V33.6699H6.64881V33.6319H6.61135V33.594H6.571V33.556H6.53353V33.518H6.49607V33.4801H6.41825V33.4421H6.38079V33.4042H6.34044V33.3662H6.30297V33.3283H6.26551V33.2903H6.22516V33.2523H6.18769V33.2144H6.10988V33.1764H6.07241V33.1385H6.03494V33.1005H5.9946V33.0626H5.95713V33.0246H5.91966V32.9867H5.87931V32.9487H5.84185V32.9107H5.80438V32.8728H5.76403V32.8348H5.72657V32.7969H5.6891V32.7589H5.64875V32.721H5.61129V32.683H5.57382V32.6451H5.53347V32.6071H5.49601V32.5691H5.45854V32.5312H5.41819V32.4932H5.38073V32.4553H5.34326V32.4173H5.30291V32.3794H5.26545V32.3414H5.22798V32.3035H5.18763V32.2655H5.15017V32.2275H5.1127V32.1896H5.07235V32.1516H5.03488V32.1137H4.99742V32.0757H4.95707V32.0378H4.9196V31.9589H4.88214V31.921H4.84179V31.883H4.80432V31.8451H4.76686V31.8071H4.72651V31.7691H4.68904V31.7312H4.65158V31.6524H4.61123V31.6144H4.57376V31.5765H4.53629V31.5385H4.49595V31.5005H4.45848V31.4626H4.42101V31.3837H4.38067V31.3458H4.3432V31.3078H4.30573V31.2699H4.26539V31.2319H4.22792V31.1531H4.19045V31.1151H4.1501V31.0772H4.11264V31.0392H4.07517V30.9604H4.03482V30.9224H3.99736V30.8845H3.95989V30.8465H3.91954V30.7677H3.88208V30.7297H3.84461V30.6918H3.80426V30.613H3.7668V30.575H3.72933V30.537H3.68898V30.4582H3.65152V30.4203H3.61405V30.3823H3.5737V30.3035H3.53624V30.2655H3.49877V30.1867H3.45842V30.1487H3.42095V30.0699H3.38349V30.0319H3.34314V29.994H3.30567V29.9151H3.26821V29.8772H3.22786V29.7984H3.19039V29.7604H3.15293V29.6816H3.11258V29.6436H3.07511V29.5648H3.03765V29.5268H2.9973V29.448H2.95983V29.3692H2.92237V29.3312H2.88202V29.2524H2.84455V29.2144H2.80708V29.1356H2.76674V29.0976H2.72927V29.0188H2.6918V28.94H2.65146V28.902H2.61399V28.8232H2.57652V28.7443H2.53618V28.6655H2.49871V28.6276H2.46124V28.5487H2.42089V28.4699H2.38343V28.3911H2.34596V28.3531H2.30561V28.2743H2.26815V28.1954H2.23068V28.1166H2.19033V28.0378H2.15287V27.959H2.1154V27.8801H2.07505V27.8013H2.03759V27.7225H2.00012V27.6436H1.95977V27.5648H1.92231V27.486H1.88484V27.4071H1.84449V27.3283H1.80702V27.2495H1.76956V27.1706H1.72921V27.0918H1.69174V26.975H1.65428V26.8962H1.61393V26.8174H1.57646V26.7385H1.539V26.6597H1.49865V26.5429H1.46118V26.4641H1.42372V26.3473H1.38337V26.2685H1.3459V26.1517H1.30844V26.0728H1.26809V25.956H1.23062V25.8393H1.19316V25.7604H1.15281V25.6436H1.11534V25.5269H1.07787V25.4101H1.03753V25.2933H1.00006V25.1765H0.962594V25.0597H0.922246V24.9429H0.884779V24.8641H0.847313V24.7093H0.806965V24.5926H0.769499V24.4378H0.732032V24.2831H0.691684V24.1663H0.654218V24.0115H0.616752V23.8947H0.576403V23.6991H0.538937V23.5444H0.501471V23.3896H0.461123V23.194H0.423657V23.0393H0.38619V22.8437H0.345842V22.6101H0.308376V22.3765H0.27091V22.1809H0.230561V21.9094H0.193095V21.5969H0.155629V21.2845H0.115281V20.8962H0.0778145V20.3911H0.0403482V19.4948H0V18.832H0.0403482V17.9765H0.0778145V17.4714H0.115281V17.0422H0.155629V16.7298H0.193095V16.4583H0.230561V16.1868H0.27091V15.9532H0.308376V15.7196H0.345842V15.524H0.38619V15.2904H0.423657V15.1357H0.461123V14.9809H0.501471V14.7853H0.538937V14.6306H0.576403V14.4758H0.616752V14.3211H0.654218V14.2043H0.691684V14.0495H0.732032V13.9328H0.769499V13.778H0.806965V13.6233H0.847313V13.5065H0.884779V13.3897H0.922246V13.2729H0.962594V13.1561H1.00006V13.0393H1.03753V12.9225H1.07787V12.8058H1.11534V12.689H1.15281V12.6101H1.19316V12.4934H1.23062V12.4145H1.26809V12.2977H1.30844V12.1809H1.3459V12.1021H1.38337V11.9853H1.42372V11.9065H1.46118V11.7897H1.49865V11.7109H1.539V11.632H1.57646V11.5532H1.61393V11.4364H1.65428V11.3576H1.69174V11.2788H1.72921V11.1999H1.76956V11.1211H1.80702V11.0043H1.84449V10.9255H1.88484V10.8466H1.92231V10.7678H1.95977V10.689H2.00012V10.6102H2.03759V10.5313H2.07505V10.4525H2.1154V10.3737H2.15287V10.2948H2.19033V10.2569H2.23068V10.178H2.26815V10.0992H2.30561V10.0204H2.34596V9.94154H2.38343V9.86271H2.42089V9.82476H2.46124V9.74592H2.49871V9.66709H2.53618V9.58826H2.57652V9.5503H2.61399V9.47147H2.65146V9.39264H2.6918V9.35468H2.72927V9.27585H2.76674V9.19702H2.80708V9.15907H2.84455V9.08023H2.88202V9.04228H2.92237V8.96345H2.95983V8.88461H2.9973V8.84666H3.03765V8.76783H3.07511V8.72987H3.11258V8.65104H3.15293V8.61308H3.19039V8.53425H3.22786V8.4963H3.26821V8.41746H3.30567V8.37951H3.34314V8.30068H3.38349V8.26272H3.42095V8.22476H3.45842V8.14593H3.49877V8.10798H3.53624V8.02915H3.5737V7.99119H3.61405V7.95323H3.65152V7.8744H3.68898V7.83645H3.72933V7.75761H3.7668V7.71966H3.80426V7.6817H3.84461V7.64375H3.88208V7.56491H3.91954V7.52696H3.95989V7.489H3.99736V7.41017H4.03482V7.37222H4.07517V7.33426H4.11264V7.2963H4.1501V7.21747H4.19045V7.17952H4.22792V7.14156H4.26539V7.1036H4.30573V7.02477H4.3432V6.98682H4.38067V6.94886H4.42101V6.9109H4.45848V6.87295H4.49595V6.83499H4.53629V6.75616H4.57376V6.7182H4.61123V6.68025H4.65158V6.64229H4.68904V6.60434H4.72651V6.56638H4.76686V6.48755H4.80432V6.44959H4.84179V6.41164H4.88214V6.37368H4.9196V6.33573H4.95707V6.29777H4.99742V6.25981H5.03488V6.22186H5.07235V6.1839H5.1127V6.14595H5.15017V6.10799H5.18763V6.07003H5.22798V6.03208H5.26545V5.99412H5.30291V5.91529H5.34326V5.87733H5.38073V5.83938H5.41819V5.80142H5.45854V5.76347H5.49601V5.72551H5.53347V5.68755H5.57382V5.6496H5.61129V5.61164H5.64875V5.57369H5.6891V5.53573H5.76403V5.49777H5.80438V5.45982H5.84185V5.42186H5.87931V5.38391H5.91966V5.34595H5.95713V5.30799H5.9946V5.27004H6.03494V5.23208H6.07241V5.19413H6.10988V5.15617H6.15022V5.11821H6.18769V5.08026H6.22516V5.0423H6.26551V5.00435H6.34044V4.96639H6.38079V4.92843H6.41825V4.89048H6.45572V4.85252H6.49607V4.81457H6.53353V4.77661H6.571V4.73865H6.64881V4.7007H6.68628V4.66274H6.72663V4.62479H6.76409V4.58683H6.80156V4.54887H6.84191V4.51092H6.91684V4.47296H6.95719V4.43501H6.99466V4.39705H7.07247V4.3591H7.10994V4.32114H7.1474V4.28318H7.18775V4.24523H7.26268V4.20727H7.30303V4.16932H7.3405V4.13136H7.37796V4.0934H7.45578V4.05545H7.49324V4.01749H7.53359V3.97954H7.60853V3.94158H7.64887V3.90362H7.68634V3.86567H7.76415V3.82771H7.80162V3.78976H7.87944V3.7518H7.9169V3.71384H7.95437V3.67589H8.03218V3.63793H8.06965V3.59998H8.14746V3.56202H8.18493V3.52406H8.22528V3.48611H8.30021V3.44815H8.34056V3.4102H8.41549V3.37224H8.45584V3.33428H8.53077V3.29633H8.60859V3.25837H8.64605V3.22042H8.72387V3.18246H8.76133V3.1445H8.83915V3.10655H8.87661V3.06859H8.95443V3.03064H9.03224V2.99268H9.06971V2.95472H9.14752V2.91677H9.22246V2.87881H9.2628V2.84086H9.33774V2.8029H9.41555V2.76494H9.49336V2.72699H9.53083V2.68903H9.60865V2.65108H9.68358V2.61312H9.72393V2.57516H9.79886V2.53721H9.87667V2.49925H9.95449V2.4613H10.0294V2.42334H10.1072V2.38538H10.185V2.34743H10.26V2.30947H10.3378V2.27152H10.4156V2.23356H10.4905V2.1956H10.5684V2.15765H10.6462V2.11969H10.7211V2.08174H10.7989V2.04378H10.8767V2.00582H10.9517V1.96787H11.0669V1.92991H11.1448V1.89196H11.2226V1.854H11.2975V1.81604H11.3753V1.77809H11.4906V1.74013H11.5684V1.70218H11.6837V1.66422H11.7586V1.62626H11.8739V1.58831H11.9517V1.55035H12.067V1.5124H12.1448V1.47444H12.2601V1.43649H12.335V1.39853H12.4503V1.36057H12.5656V1.32262H12.6809V1.28466H12.7962V1.24671H12.9114V1.20875H13.0267V1.17079H13.142V1.13284H13.2573V1.09488H13.4129V1.05693H13.5282V1.01897H13.6809V0.981013H13.7962V0.943057H13.949V0.905101H14.0642V0.867145H14.2199V0.829189H14.4101V0.791233H14.5657V0.753277H14.7185V0.715322H14.9116V0.677366H15.0643V0.63941H15.2949V0.601454H15.5254V0.563498H15.7185V0.525542H15.9491V0.487586H16.2546V0.44963H16.563V0.411674H16.831V0.373718H17.3325V0.335762H17.8685V0.297806H19.6381V0.335762H20.2519V0.373718H20.6352V0.411674H21.0214V0.44963H21.3673V0.487586H21.5978V0.525542H21.8284V0.563498H22.059V0.601454H22.2895V0.63941H22.4797V0.677366H22.6728V0.715322H22.8256V0.753277H22.9812V0.791233H23.134V0.829189H23.327V0.867145H23.4798V0.905101H23.6325V0.943057H23.7882V0.981013H23.9035V1.01897H24.0187V1.05693H24.1715V1.09488H24.2868V1.13284H24.402V1.17079H24.5173V1.20875H24.6701V1.24671H24.7853V1.28466H24.9006V1.32262H24.9784V1.36057H25.0937V1.39853H25.209V1.43649H25.2868V1.47444H25.4021V1.5124H25.5174V1.55035H25.5923V1.58831H25.7076V1.62626H25.8229V1.66422H25.9007V1.70218H26.016V1.74013H26.0938V1.77809H26.1687V1.81604H26.2465V1.854H26.3618V1.89196H26.4396V1.92991H26.5146V1.96787H26.5924V2.00582H26.7077V2.04378H26.7855V2.08174H26.8604V2.11969H26.9382V2.15765H27.016V2.1956H27.091V2.23356H27.1688V2.27152H27.2466V2.30947H27.3215V2.34743H27.3993V2.38538H27.4771V2.42334H27.5521V2.4613H27.6299V2.49925H27.6674V2.53721H27.7452V2.57516H27.823V2.61312H27.8979V2.65108H27.9757V2.68903H28.0536V2.72699H28.1285V2.76494H28.1688V2.8029H28.2438V2.84086H28.3216V2.87881H28.359V2.91677H28.4369V2.95472H28.5147V2.99268H28.5521V3.03064H28.63V3.06859H28.6674V3.10655H28.7452V3.1445H28.8202V3.18246H28.8605V3.22042H28.9355V3.25837H29.0133V3.29633H29.0507V3.33428H29.1285V3.37224H29.166V3.4102H29.2438V3.44815H29.2813V3.48611H29.3591V3.52406H29.3966V3.56202H29.4369V3.59998H29.5119V3.63793H29.5522V3.67589H29.6271V3.71384H29.6675V3.7518H29.7424V3.78976H29.7828V3.82771H29.8202V3.86567H29.898V3.90362H29.9355V3.94158H30.0133V3.97954H30.0508V4.01749H30.0883V4.05545H30.1661V4.0934H30.2035V4.13136H30.2439V4.16932H30.3188V4.20727H30.3592V4.24523H30.3966V4.28318H30.4341V4.32114H30.4744V4.3591H30.5494V4.39705H30.5897V4.43501H30.6272V4.47296H30.6647V4.51092H30.7425V4.54887H30.7799V4.58683H30.8203V4.62479H30.8578V4.66274H30.9356V4.7007H30.973V4.73865H31.0105V4.77661H31.0509V4.81457H31.1258V4.85252H31.1661V4.89048H31.2036V4.92843H31.2411V4.96639H31.2814V5.00435H31.3189V5.0423H31.3563V5.08026H31.3967V5.11821H31.4342V5.15617H31.4716V5.19413H31.512V5.23208H31.5869V5.27004H31.6273V5.30799H31.6647V5.34595H31.7022V5.38391H31.7425V5.42186H31.78V5.45982H31.8175V5.49777H31.8578V5.53573H31.8953V5.57369H31.9328V5.61164H31.9731V5.6496H32.0106V5.68755H32.048V5.72551H32.0884V5.76347H32.1258V5.80142H32.1633V5.83938H32.2037V5.87733H32.2411V5.91529H32.2786V5.95325H32.3189V5.9912H32.3564V6.02916H32.3939V6.06711H32.4342V6.10507H32.4717V6.14303H32.5092V6.18098H32.5495V6.21894H32.587V6.25689H32.6244V6.29485H32.6648V6.33281H32.7022V6.37076H32.7397V6.44959H32.7801V6.48755H32.8175V6.52551H32.855V6.56346H32.8953V6.60142H32.9328V6.63937H32.9703V6.67733H33.0106V6.75616H33.0481V6.79412H33.0856V6.83207H33.1259V6.87003H33.1634V6.90798H33.2008V6.98682H33.2412V7.02477H33.2787V7.06273H33.3161V7.10068H33.3565V7.13864H33.3939V7.21747H33.4314V7.25543H33.4717V7.29338H33.5092V7.33134H33.5467V7.3693H33.587V7.44813H33.6245V7.48608H33.662V7.52404H33.7023V7.60287H33.7398V7.64083H33.7772V7.67878H33.8176V7.75761H33.8551V7.79557H33.8925V7.83353H33.9329V7.91236H33.9703V7.95031H34.0078V8.02915H34.0481V8.0671H34.0856V8.10506H34.1231V8.18389H34.1634V8.22185H34.2009V8.2598H34.2384V8.33863H34.2787V8.37659H34.3162V8.41455H34.3536V8.49338H34.394V8.57221H34.4315V8.61016H34.4689V8.689H34.5093V8.72695H34.5467V8.80578H34.5842V8.84374H34.6246V8.92257H34.662V8.96053H34.6995V9.03936H34.7398V9.07731H34.7773V9.15615H34.8148V9.1941H34.8551V9.27293H34.8926V9.35176H34.93V9.38972H34.9704V9.46855H35.0079V9.54739H35.0453V9.70213H35.0857V10.0525H35.0453V10.1693H35.0079V10.2481H34.9704V10.3269H34.93V10.3649H34.8926V10.4029H34.8551V10.4408H34.8148V10.5196H34.7398V10.5576H34.6995V10.5956H34.5842V10.6335H34.4315V10.6715H34.3162V10.6335H34.0481V10.5956H33.9703V10.5576H33.8925V10.5196H33.8176V10.4817H33.7772V10.4437H33.7398V10.4058H33.7023V10.3678H33.662V10.3299H33.6245V10.251H33.587V10.1722H33.5467V10.1342H33.5092V10.0554H33.4717V9.97658H33.4314V9.93862H33.3939V9.85979H33.3565V9.82184H33.3161V9.743H33.2787V9.70505H33.2412V9.62622H33.2008V9.58826H33.1634V9.50943H33.1259V9.47147H33.0856V9.39264H33.0481V9.35468H33.0106V9.27585H32.9703V9.2379H32.9328V9.15907H32.8953V9.12111H32.855V9.08315H32.8175V9.00432H32.7801V8.96637H32.7397V8.92841H32.7022V8.84958H32.6648V8.81162H32.6244V8.77367H32.587V8.69484H32.5495V8.65688H32.5092V8.57805H32.4717V8.54009H32.4342V8.50214H32.3939V8.4233H32.3564V8.38535H32.3189V8.34739H32.2786V8.30944H32.2411V8.27148H32.2037V8.19265H32.1633V8.15469H32.1258V8.11674H32.0884V8.07878H32.048V8.04082H32.0106V7.96199H31.9731V7.92404H31.9328V7.88608H31.8953V7.84812H31.8578V7.81017H31.8175V7.73134H31.78V7.69338H31.7425V7.65543H31.7022V7.61747H31.6647V7.57951H31.6273V7.54156H31.5869V7.5036H31.5494V7.46565H31.512V7.38681H31.4716V7.34886H31.4342V7.3109H31.3967V7.27295H31.3563V7.23499H31.3189V7.19703H31.2814V7.15908H31.2411V7.12112H31.2036V7.08317H31.1661V7.04521H31.1258V7.00725H31.0883V6.9693H31.0509V6.93134H31.0105V6.89339H30.973V6.85543H30.9356V6.81747H30.8952V6.77952H30.8578V6.74156H30.8203V6.70361H30.7799V6.66565H30.7425V6.62769H30.705V6.58974H30.6647V6.55178H30.6272V6.51383H30.5897V6.47587H30.5494V6.43791H30.4744V6.39996H30.4341V6.362H30.3966V6.32405H30.3592V6.28609H30.3188V6.24813H30.2814V6.21018H30.2439V6.17222H30.2035V6.13427H30.1661V6.09631H30.1286V6.05835H30.0883V6.0204H30.0133V5.98244H29.973V5.94449H29.9355V5.90653H29.898V5.86858H29.8202V5.83062H29.7828V5.79266H29.7424V5.75471H29.705V5.71675H29.6271V5.6788H29.5897V5.64084H29.5522V5.60288H29.5119V5.56493H29.4369V5.52697H29.3966V5.48901H29.3591V5.45106H29.3216V5.4131H29.2813V5.37515H29.2064V5.33719H29.166V5.29923H29.1285V5.26128H29.0507V5.22332H29.0133V5.18537H28.9355V5.14741H28.898V5.10946H28.8605V5.0715H28.7827V5.03354H28.7452V4.99559H28.6674V4.95763H28.63V4.91968H28.5521V4.88172H28.5147V4.84376H28.4743V4.80581H28.3994V4.76785H28.359V4.7299H28.2841V4.69194H28.2438V4.65398H28.1688V4.61603H28.1285V4.57807H28.0536V4.54012H27.9757V4.50216H27.9383V4.4642H27.8605V4.42625H27.7826V4.38829H27.7452V4.35034H27.6674V4.31238H27.6299V4.27442H27.5521V4.23647H27.4771V4.19851H27.4368V4.16056H27.3619V4.1226H27.2841V4.08464H27.2062V4.04669H27.1313V4.00873H27.091V3.97078H27.016V3.93282H26.9382V3.89486H26.8604V3.85691H26.7855V3.81895H26.7077V3.781H26.6298V3.74304H26.5549V3.70508H26.4771V3.66713H26.4396V3.62917H26.3618V3.59122H26.284V3.55326H26.1687V3.5153H26.0938V3.47735H26.016V3.43939H25.9382V3.40144H25.8229V3.36348H25.7479V3.32552H25.6701V3.28757H25.5923V3.24961H25.5174V3.21166H25.4021V3.1737H25.3243V3.13574H25.209V3.09779H25.1312V3.05983H25.0159V3.02188H24.9006V2.98392H24.8257V2.94596H24.7104V2.90801H24.5951V2.87005H24.5173V2.8321H24.402V2.79414H24.2868V2.75619H24.1715V2.71823H24.0562V2.68027H23.9409V2.64232H23.7882V2.60436H23.6729V2.56641H23.5576V2.52845H23.4423V2.49049H23.2867V2.45254H23.134V2.41458H22.9812V2.37663H22.8256V2.33867H22.6728V2.30071H22.4797V2.26276H22.327V2.2248H22.1742V2.18685H21.9437V2.14889H21.7131V2.11093H21.4826V2.07298H21.252V2.03502H21.0214V1.99707H20.6352V1.95911H20.2519V1.92115H19.8283V1.8832H17.7936V1.92115H17.2921V1.95911H16.9088V1.99707H16.6004V2.03502H16.2949V2.07298H16.0644V2.11093H15.8338V2.14889H15.6407V2.18685H15.4101V2.2248H15.2171V2.26276H15.0643V2.30071H14.9116V2.33867H14.7185V2.37663H14.5657V2.41458H14.4101V2.45254H14.2948V2.49049H14.1421V2.52845H14.0268V2.56641H13.874V2.60436H13.7588V2.64232H13.6435V2.68027H13.5282V2.71823H13.4129V2.75619H13.2976V2.79414H13.1823V2.8321H13.0671V2.87005H12.9518V2.90801H12.8365V2.94596H12.7587V2.98392H12.6434V3.02188H12.5656V3.05983H12.4503V3.09779H12.335V3.13574H12.2601V3.1737H12.1448V3.21166H12.067V3.24961H11.9892V3.28757H11.9143V3.32552H11.799V3.36348H11.7212V3.40144H11.6433V3.43939H11.5684V3.47735H11.4906V3.5153H11.3753V3.55326H11.2975V3.59122H11.2226V3.62917H11.1448V3.66713H11.0669V3.70508H11.0295V3.74304H10.9517V3.781H10.8767V3.81895H10.7989V3.85691H10.7211V3.89486H10.6462V3.93282H10.5684V3.97078H10.4905V4.00873H10.4531V4.04669H10.3753V4.08464H10.3003V4.1226H10.2225V4.16056H10.185V4.19851H10.1072V4.23647H10.0294V4.27442H9.95449V4.31238H9.91414V4.35034H9.83921V4.38829H9.76139V4.42625H9.72393V4.4642H9.64611V4.50216H9.60865V4.54012H9.53083V4.57807H9.49336V4.61603H9.41555V4.65398H9.37808V4.69194H9.30027V4.7299H9.22246V4.76785H9.18499V4.80581H9.14752V4.84376H9.06971V4.88172H9.03224V4.91968H8.95443V4.95763H8.91696V4.99559H8.83915V5.03354H8.80168V5.0715H8.76133V5.10946H8.6864V5.14741H8.64605V5.18537H8.57112V5.22332H8.53077V5.26128H8.4933V5.29923H8.41549V5.33719H8.37802V5.37515H8.34056V5.4131H8.30021V5.45106H8.22528V5.48901H8.18493V5.52697H8.14746V5.56493H8.11V5.60288H8.03218V5.64084H7.99472V5.6788H7.95437V5.71675H7.87944V5.75471H7.83909V5.79266H7.80162V5.83062H7.76415V5.86858H7.72381V5.90653H7.68634V5.94449H7.60853V5.98244H7.57106V6.0204H7.53359V6.05835H7.49324V6.09631H7.45578V6.13427H7.41831V6.17222H7.37796V6.21018H7.30303V6.24813H7.26268V6.28609H7.22522V6.32405H7.18775V6.362H7.1474V6.39996H7.10994V6.43791H7.07247V6.47587H7.03212V6.51383H6.99466V6.55178H6.95719V6.58974H6.91684V6.62769H6.87938V6.66565H6.84191V6.70361H6.80156V6.74156H6.76409V6.77952H6.68628V6.81747H6.64881V6.85543H6.61135V6.89339H6.571V6.93134H6.53353V7.01017H6.49607V7.04813H6.45572V7.08609H6.41825V7.12404H6.38079V7.162H6.34044V7.19995H6.30297V7.23791H6.26551V7.27587H6.22516V7.31382H6.18769V7.35178H6.15022V7.38973H6.10988V7.42769H6.07241V7.46565H6.03494V7.5036H5.9946V7.54156H5.95713V7.62039H5.91966V7.65834H5.87931V7.6963H5.84185V7.73426H5.80438V7.77221H5.76403V7.81017H5.72657V7.889H5.6891V7.92696H5.64875V7.96491H5.61129V8.00287H5.57382V8.04082H5.53347V8.07878H5.49601V8.15761H5.45854V8.19557H5.41819V8.23352H5.38073V8.27148H5.34326V8.35031H5.30291V8.38827H5.26545V8.42622H5.22798V8.50505H5.18763V8.54301H5.15017V8.58097H5.1127V8.61892H5.07235V8.69775H5.03488V8.73571H4.99742V8.77367H4.95707V8.8525H4.9196V8.89045H4.88214V8.92841H4.84179V9.00724H4.80432V9.0452H4.76686V9.12403H4.72651V9.16199H4.68904V9.19994H4.65158V9.27877H4.61123V9.31673H4.57376V9.39556H4.53629V9.43352H4.49595V9.51235H4.45848V9.5503H4.42101V9.62914H4.38067V9.66709H4.3432V9.74592H4.30573V9.82476H4.26539V9.86271H4.22792V9.94154H4.19045V9.9795H4.1501V10.0583H4.11264V10.0963H4.07517V10.1751H4.03482V10.2539H3.99736V10.2919H3.95989V10.3707H3.91954V10.4496H3.88208V10.5284H3.84461V10.5664H3.80426V10.6452H3.7668V10.724H3.72933V10.8029H3.68898V10.8408H3.65152V10.9196H3.61405V10.9985H3.5737V11.0773H3.53624V11.1561H3.49877V11.235H3.45842V11.3138H3.42095V11.3926H3.38349V11.4715H3.34314V11.5503H3.30567V11.6291H3.26821V11.708H3.22786V11.7868H3.19039V11.8656H3.15293V11.9824H3.11258V12.0612H3.07511V12.1401H3.03765V12.2189H2.9973V12.2977H2.95983V12.4145H2.92237V12.4934H2.88202V12.6101H2.84455V12.689H2.80708V12.8058H2.76674V12.8846H2.72927V13.0014H2.6918V13.0802H2.65146V13.197H2.61399V13.3138H2.57652V13.4306H2.53618V13.5474H2.49871V13.6641H2.46124V13.7809H2.42089V13.8977H2.38343V14.0145H2.34596V14.1313H2.30561V14.2481H2.26815V14.4028H2.23068V14.5576H2.19033V14.6744H2.15287V14.8291H2.1154V14.9838H2.07505V15.1386H2.03759V15.2933H2.00012V15.489H1.95977V15.6437H1.92231V15.8393H1.88484V16.0729H1.84449V16.2685H1.80702V16.5021H1.76956V16.7736H1.72921V17.086H1.69174V17.3984H1.65428V17.9035H1.61393V18.5663H1.57646V19.813H1.61393V20.4349H1.65428V20.94H1.69174V21.2524H1.72921V21.5648H1.76956V21.8364H1.80702V22.0699H1.84449V22.3035H1.88484V22.4991H1.92231V22.7327H1.95977V22.8875H2.00012V23.0422H2.03759V23.1969H2.07505V23.3926H2.1154V23.5473H2.15287V23.6641H2.19033V23.8188H2.23068V23.9736H2.26815V24.0904H2.30561V24.2451H2.34596V24.3619H2.38343V24.4787H2.42089V24.5955H2.46124V24.7123H2.49871V24.829H2.53618V24.9458H2.57652V25.0626H2.61399V25.1794H2.65146V25.2582H2.6918V25.375H2.72927V25.4539H2.76674V25.5706H2.80708V25.6495H2.84455V25.7663H2.88202V25.8451H2.92237V25.9619H2.95983V26.0407H2.9973V26.1195H3.03765V26.1984H3.07511V26.3152H3.11258V26.394H3.15293V26.4728H3.19039V26.5517H3.22786V26.6305H3.26821V26.7473H3.30567V26.8261H3.34314V26.9049H3.38349V26.9838H3.42095V27.0217H3.45842V27.1006H3.49877V27.1794H3.53624V27.2582H3.5737V27.3371H3.61405V27.4159H3.65152V27.4947H3.68898V27.5736H3.72933V27.6524H3.7668V27.6903H3.80426V27.7692H3.84461V27.848H3.88208V27.9268H3.91954V27.9648H3.95989V28.0436H3.99736V28.1225H4.03482V28.2013H4.07517V28.2392H4.11264V28.3181H4.1501V28.356H4.19045V28.4349H4.22792V28.4728H4.26539V28.5517H4.30573V28.6305H4.3432V28.6684H4.38067V28.7473H4.42101V28.7852H4.45848V28.8641H4.49595V28.902H4.53629V28.9808H4.57376V29.0188H4.61123V29.0976H4.65158V29.1356H4.68904V29.1735H4.72651V29.2524H4.76686V29.2903H4.80432V29.3692H4.84179V29.4071H4.88214V29.4451H4.9196V29.5239H4.95707V29.5619H4.99742V29.6407H5.03488V29.6786H5.07235V29.7166H5.1127V29.7546H5.15017V29.8334H5.18763V29.8713H5.22798V29.9093H5.26545V29.9881H5.30291V30.0261H5.34326V30.0641H5.38073V30.102H5.41819V30.1808H5.45854V30.2188H5.49601V30.2567H5.53347V30.2947H5.57382V30.3735H5.61129V30.4115H5.64875V30.4494H5.6891V30.4874H5.72657V30.5254H5.76403V30.5633H5.80438V30.6013H5.84185V30.6801H5.87931V30.7181H5.91966V30.756H5.95713V30.794H5.9946V30.8319H6.03494V30.8699H6.07241V30.9078H6.10988V30.9458H6.15022V31.0246H6.18769V31.0626H6.22516V31.1005H6.26551V31.1385H6.30297V31.1765H6.34044V31.2144H6.38079V31.2524H6.41825V31.2903H6.45572V31.3283H6.49607V31.3662H6.53353V31.4042H6.571V31.4421H6.61135V31.4801H6.64881V31.5181H6.68628V31.556H6.72663V31.594H6.76409V31.6319H6.80156V31.6699H6.84191V31.7078H6.87938V31.7458H6.91684V31.7837H6.95719V31.8217H6.99466V31.8597H7.03212V31.8976H7.07247V31.9356H7.10994V31.9735H7.18775V32.0115H7.22522V32.0494H7.26268V32.0874H7.30303V32.1254H7.3405V32.1633H7.37796V32.2013H7.41831V32.2392H7.45578V32.2772H7.53359V32.3151H7.57106V32.3531H7.60853V32.391H7.64887V32.429H7.68634V32.467H7.72381V32.5049H7.76415V32.5429H7.83909V32.5808H7.87944V32.6188H7.9169V32.6567H7.95437V32.6947H8.03218V32.7326H8.06965V32.7706H8.11V32.8086H8.14746V32.8465H8.22528V32.8845H8.26274V32.9224H8.30021V32.9604H8.37802V32.9983H8.41549V33.0363H8.45584V33.0742H8.4933V33.1122H8.57112V33.1502H8.60859V33.1881H8.6864V33.2261H8.72387V33.264H8.76133V33.302H8.83915V33.3399H8.87661V33.3779H8.95443V33.4159H8.99189V33.4538H9.03224V33.4918H9.10717V33.5297H9.14752V33.5677H9.22246V33.6056H9.2628V33.6436H9.33774V33.6815H9.37808V33.7195H9.45302V33.7575H9.49336V33.7954H9.5683V33.8334H9.64611V33.8713H9.68358V33.9093H9.76139V33.9472H9.79886V33.9852H9.87667V34.0231H9.91414V34.0611H9.99195V34.0991H10.0698V34.137H10.1447V34.175H10.185V34.2129H10.26V34.2509H10.3378V34.2888H10.4156V34.3268H10.4531V34.3648H10.5309V34.4027H10.6058V34.4407H10.6836V34.4786H10.7615V34.5166H10.8364V34.5545H10.9142V34.5925H10.992V34.6304H11.0669V34.6684H11.1073V34.7064H11.1822V34.7443H11.26V34.7823H11.3379V34.8202H11.4128V34.8582H11.5281V34.8961H11.6059V34.9341H11.6837V34.972H11.7586V35.01H11.8739V35.048H11.9517V35.0859H12.0295V35.1239H12.1045V35.1618H12.2198V35.1998H12.2976V35.2377H12.4128V35.2757H12.4907V35.3137H12.6059V35.3516H12.6809V35.3896H12.7962V35.4275H12.874V35.4655H12.9893V35.5034H13.1045V35.5414H13.2198V35.5793H13.3351V35.6173H13.4504V35.6553H13.5657V35.6932H13.6809V35.7312H13.7962V35.7691H13.949V35.8071H14.0642V35.845H14.2199V35.883H14.3352V35.9209H14.4879V35.9589H14.6406V35.9969H14.7963V36.0348H14.9865V36.0728H15.1421V36.1107H15.2949V36.1487H15.5254V36.1866H15.7185V36.2246H15.9491V36.2626H16.1393V36.3005H16.4477V36.3385H16.756V36.3764H17.0615V36.4144H17.5227V36.4523H18.1769V36.4903H19.4075V36.4523H20.0588V36.4144H20.445V36.3764H20.8283V36.3385H21.1367V36.3005H21.3673V36.2626H21.5978V36.2246H21.8284V36.1866H22.059V36.1487H22.2492V36.1107H22.4048V36.0728H22.595V36.0348H22.7506V35.9969H22.9034V35.9589H23.0561V35.9209H23.2492V35.883H23.3645V35.845H23.4798V35.8071H23.5951V35.7691H23.7478V35.7312H23.8631V35.6932H23.9784V35.6553H24.134V35.6173H24.2493V35.5793H24.3646V35.5414H24.4395V35.5034H24.5548V35.4655H24.6701V35.4275H24.7479V35.3896H24.8632V35.3516H24.9784V35.3137H25.0563V35.2757H25.1715V35.2377H25.2868V35.1998H25.3618V35.1618H25.4396V35.1239H25.5548V35.0859H25.6327V35.048H25.7076V35.01H25.7854V34.972H25.9007V34.9341H25.9785V34.8961H26.0534V34.8582H26.1312V34.8202H26.2091V34.7823H26.3243V34.7443H26.3993V34.7064H26.4771V34.6684H26.5146V34.6304H26.5924V34.5925H26.6702V34.5545H26.7451V34.5166H26.8229V34.4786H26.9007V34.4407H26.9757V34.4027H27.0535V34.3648H27.1313V34.3268H27.1688V34.2888H27.2466V34.2509H27.3215V34.2129H27.3993V34.175H27.4368V34.137H27.5146V34.0991H27.5924V34.0611H27.6299V34.0231H27.7077V33.9852H27.7826V33.9472H27.823V33.9093H27.8979V33.8713H27.9383V33.8334H28.0132V33.7954H28.091V33.7575H28.1285V33.7195H28.2063V33.6815H28.2841V33.6436H28.3216V33.6056H28.359V33.5677H28.4369V33.5297H28.4743V33.4918H28.5521V33.4538H28.5896V33.4159H28.6674V33.3779H28.7049V33.3399H28.7452V33.302H28.8202V33.264H28.8605V33.2261H28.9355V33.1881H28.9758V33.1502H29.0507V33.1122H29.0911V33.0742H29.1285V33.0363H29.2064V32.9983H29.2438V32.9604H29.2813V32.9224H29.3216V32.8845H29.3966V32.8465H29.4369V32.8086H29.4744V32.7706H29.5119V32.7326H29.5897V32.6947H29.6271V32.6567H29.6675V32.6188H29.705V32.5808H29.7828V32.5429H29.8202V32.5049H29.8577V32.467H29.898V32.429H29.973V32.391H30.0133V32.3531H30.0508V32.3151H30.0883V32.2772H30.1286V32.2392H30.1661V32.2013H30.2035V32.1633H30.2439V32.1254H30.3188V32.0874H30.3592V32.0494H30.3966V32.0115H30.4341V31.9735H30.4744V31.9356H30.5119V31.8976H30.5494V31.8597H30.5897V31.8217H30.6272V31.7837H30.6647V31.7458H30.705V31.7078H30.7799V31.6699H30.8203V31.6319H30.8578V31.594H30.8952V31.556H30.9356V31.5181H30.973V31.4801H31.0105V31.4421H31.0509V31.4042H31.0883V31.3254H31.1258V31.2874H31.1661V31.2494H31.2036V31.2115H31.2411V31.1735H31.2814V31.1356H31.3189V31.0976H31.3563V31.0597H31.3967V31.0217H31.4342V30.9838H31.4716V30.9458H31.512V30.9078H31.5494V30.8699H31.5869V30.8319H31.6273V30.794H31.6647V30.756H31.7022V30.6772H31.7425V30.6392H31.78V30.6013H31.8175V30.5633H31.8578V30.5254H31.8953V30.4465H31.9328V30.4086H31.9731V30.3706H32.0106V30.3327H32.048V30.2947H32.0884V30.2567H32.1258V30.1779H32.1633V30.14H32.2037V30.102H32.2411V30.0641H32.2786V30.0261H32.3189V29.9473H32.3564V29.9093H32.3939V29.8713H32.4342V29.7925H32.4717V29.7546H32.5092V29.7166H32.5495V29.6378H32.587V29.5998H32.6244V29.5619H32.6648V29.483H32.7022V29.4451H32.7397V29.4071H32.7801V29.3283H32.8175V29.2903H32.855V29.2115H32.8953V29.1735H32.9328V29.1356H32.9703V29.0568H33.0106V29.0188H33.0481V28.94H33.0856V28.902H33.1259V28.8232H33.1634V28.7852H33.2008V28.7064H33.2412V28.6684H33.2787V28.5896H33.3161V28.5517H33.3565V28.4728H33.3939V28.4349H33.4314V28.356H33.4717V28.3181H33.5092V28.2392H33.5467V28.1604H33.587V28.1225H33.6245V28.0436H33.662V27.9648H33.7023V27.9268H33.7398V27.8889H33.7772V27.8509H33.8551V27.813H33.9329V27.775H34.0078V27.7371H34.0856V27.6991H34.5093V27.7371H34.662V27.775H34.6995V27.813H34.7773V27.8509H34.8148V27.8889H34.8551V27.9268H34.8926V27.9648H34.93V28.0027H34.9704V28.1195H35.0079V28.1984H35.0453V28.3152H35.0857V28.6655H35.0453V28.7823H35.0079V28.8611H34.9704V28.94H34.93V29.0188H34.8926V29.0568H34.8551V29.1356H34.8148V29.2144H34.7773V29.2524H34.7398V29.3312H34.6995V29.3692H34.662V29.448H34.6246V29.486H34.5842V29.5648H34.5467V29.6027H34.5093V29.6816H34.4689V29.7195H34.4315V29.7984H34.394V29.8772H34.3536V29.9151H34.3162V29.9531H34.2787V30.0319H34.2384V30.0699H34.2009V30.1487H34.1634V30.1867H34.1231V30.2246H34.0856V30.3035H34.0481V30.3414H34.0078V30.3794H33.9703V30.4582H33.9329V30.4962H33.8925V30.5341H33.8551V30.613H33.8176V30.6509H33.7772V30.7297H33.7398V30.7677H33.7023V30.8057H33.662V30.8845H33.6245V30.9224H33.587V30.9604H33.5467V30.9984H33.5092V31.0772H33.4717V31.1151H33.4314V31.1531H33.3939V31.191H33.3565V31.229H33.3161V31.3078H33.2787V31.3458H33.2412V31.3837H33.2008V31.4217H33.1634V31.4597H33.1259V31.4976H33.0856V31.5765H33.0481V31.6144H33.0106V31.6524H32.9703V31.6903H32.9328V31.7283H32.8953V31.8071H32.855V31.8451H32.8175V31.883H32.7801V31.921H32.7397V31.9589H32.7022V31.9969H32.6648V32.0348H32.6244V32.0728H32.587V32.1108H32.5495V32.1487H32.5092V32.1867H32.4717V32.2246H32.4342V32.2626H32.3939V32.3005H32.3564V32.3385H32.3189V32.4173H32.2786V32.4553H32.2411V32.4932H32.2037V32.5312H32.1633V32.5691H32.1258V32.6071H32.0884V32.6451H32.048V32.683H32.0106V32.721H31.9731V32.7589H31.9328V32.7969H31.8953V32.8348H31.8578V32.8728H31.8175V32.9107H31.7425V32.9487H31.7022V32.9867H31.6647V33.0246H31.6273V33.0626H31.5869V33.1005H31.5494V33.1385H31.512V33.1764H31.4716V33.2144H31.4342V33.2523H31.3967V33.2903H31.3563V33.3283H31.2814V33.3662H31.2411V33.4042H31.2036V33.4421H31.1661V33.4801H31.1258V33.518H31.0883V33.556H31.0509V33.594H31.0105V33.6319H30.9356V33.6699H30.8952V33.7078H30.8578V33.7458H30.8203V33.7837H30.7425V33.8217H30.705V33.8596H30.6647V33.8976H30.6272V33.9356H30.5494V33.9735H30.5119V34.0115H30.4744V34.0494H30.4341V34.0874H30.3592V34.1253H30.3188V34.1633H30.2814V34.2013H30.2439V34.2392H30.1661V34.2772H30.1286V34.3151H30.0883V34.3531H30.0133V34.391H29.973V34.429H29.9355V34.4669H29.8577V34.5049H29.8202V34.5429H29.7424V34.5808H29.705V34.6188H29.6271V34.6567H29.5897V34.6947H29.5522V34.7326H29.4744V34.7706H29.4369V34.8085H29.3591V34.8465H29.3216V34.8845H29.2813V34.9224H29.2064V34.9604H29.166V34.9983H29.0911V35.0363H29.0133V35.0742H28.9758V35.1122H28.898V35.1502H28.8605V35.1881H28.7827V35.2261H28.7049V35.264H28.6674V35.302H28.5896V35.3399H28.5147V35.3779H28.4743V35.4158H28.3994V35.4538H28.359V35.4918H28.2841V35.5297H28.2063V35.5677H28.1688V35.6056H28.091V35.6436H28.0132V35.6815H27.9383V35.7195H27.8605V35.7574H27.7826V35.7954H27.7077V35.8334H27.6674V35.8713H27.5924V35.9093H27.5146V35.9472H27.4368V35.9852H27.3619V36.0231H27.2841V36.0611H27.2062V36.099H27.1313V36.137H27.0535V36.175H26.9757V36.2129H26.9007V36.2509H26.8229V36.2888H26.7451V36.3268H26.6298V36.3647H26.5549V36.4027H26.4771V36.4407H26.3993V36.4786H26.3243V36.5166H26.2091V36.5545H26.1312V36.5925H26.0534V36.6304H25.9785V36.6684H25.8632V36.7063H25.7479V36.7443H25.6701V36.7823H25.5548V36.8202H25.4396V36.8582H25.3618V36.8961H25.2465V36.9341H25.1312V36.972H25.0563V37.01H24.941V37.0479H24.8257V37.0859H24.7104V37.1239H24.5951V37.1618H24.4799V37.1998H24.3242V37.2377H24.2089V37.2757H24.0937V37.3136H23.9784V37.3516H23.8256V37.3896H23.7104V37.4275H23.5576V37.4655H23.402V37.5034H23.2492V37.5414H23.0561V37.5793H22.9034V37.6173H22.7506V37.6552H22.595V37.6932H22.4048V37.7312H22.1742V37.7691H21.9437V37.8071H21.7131V37.845H21.4826V37.883H21.2116V37.9209H20.8283V37.9589H20.445V37.9968H20.0588V38.0348H19.2144V38.0728" fill="url(#paint0_linear_34874_7635)"/>
<path d="M49.0236 33.3779C49.0236 37.1063 46.3231 39.6085 42.7264 39.5647C39.2074 39.5209 36.6338 37.0071 36.6338 33.3779C36.6338 29.7487 39.1613 27.2115 42.7782 27.1911C46.4355 27.1677 49.0236 29.7312 49.0236 33.3779ZM41.1413 36.9837C41.2335 37.7691 41.4035 38.3209 41.6543 38.6421C42.1615 39.2932 43.493 39.2932 44.0031 38.6421C44.251 38.3209 44.4239 37.7691 44.5132 36.9837C44.6054 36.1983 44.6516 34.9983 44.6516 33.3779C44.6516 31.7575 44.6054 30.5575 44.5132 29.7721C44.4239 28.9867 44.251 28.4349 44.0031 28.1137C43.493 27.4626 42.1615 27.4626 41.6543 28.1137C41.4035 28.4349 41.2335 28.9867 41.1413 29.7721C41.049 30.5575 41.0058 31.7575 41.0058 33.3779C41.0058 34.9983 41.049 36.1983 41.1413 36.9837Z" fill="white"/>
<path d="M58.2948 34.061C58.6954 34.7208 58.8942 35.3953 58.8942 36.0843C58.8942 36.8113 58.6694 37.477 58.2198 38.0843C56.6751 40.0872 51.9169 39.6142 50.0753 38.4376V35.1734H50.4009C50.5508 35.7807 50.8131 36.3879 51.1877 36.9952C51.5624 37.6025 52.0379 38.1106 52.6114 38.5135C55.3061 40.4142 57.6463 37.6347 54.773 35.6551L52.2483 34.1106C51.499 33.6201 50.9226 33.0683 50.5133 32.4522C50.1041 31.8362 49.9023 31.2084 49.9023 30.5661C49.9023 29.842 50.1588 29.1646 50.6747 28.5427C51.9889 27.0654 55.0237 27.1676 56.7587 27.5179C57.4676 27.661 58.0123 27.8333 58.3957 28.0376V30.7471H58.07C57.8538 29.8858 57.4071 29.153 56.7327 28.5457C54.2138 26.2771 50.6747 28.642 54.0986 30.823L56.6203 32.4172C57.338 32.8551 57.8942 33.404 58.2948 34.061Z" fill="white"/>
<path d="M78.1831 28.1281C77.8661 28.3238 77.5289 28.715 77.1715 29.3048C76.8141 29.8946 76.4251 30.7559 76.01 31.8858L73.2606 39.4536H72.4363L68.9664 31.7865L66.2919 39.4536H65.4186L60.7469 29.1792C60.4789 28.6391 60.2051 28.2858 59.9226 28.1165C59.6402 27.9471 59.3405 27.8537 59.0234 27.8362V27.5325H65.3437V27.8362C64.8941 27.8362 64.6693 28.0639 64.6693 28.5194C64.6693 28.8581 64.7846 29.261 65.018 29.734L67.4908 34.9982L68.7906 31.404L67.7646 29.1763C67.4995 28.6187 67.2631 28.2625 67.0527 28.1019C66.8452 27.9413 66.6089 27.8537 66.3409 27.8362V27.5325H72.4363V27.8362C71.9378 27.8362 71.687 28.0727 71.687 28.5457C71.687 28.8843 71.8052 29.2785 72.0386 29.734L74.4855 35.0245L75.6613 31.8099C75.8256 31.2522 75.9092 30.68 75.9092 30.0902C75.9092 29.4478 75.7708 28.9135 75.497 28.4843C75.2233 28.0552 74.7535 27.8391 74.0849 27.8391V27.5354H79.2062V27.8391C78.8402 27.8391 78.5001 27.9354 78.1831 28.1311V28.1281Z" fill="white"/>
<path d="M95.1069 38.099C95.2423 38.5282 95.5161 38.7939 95.9311 38.8961V39.226H90.2363V38.8961C90.6686 38.7793 90.9452 38.5078 91.0605 38.0874C91.1787 37.6669 91.2363 37.0596 91.2363 36.2655V23.2816C91.2363 22.8437 91.1499 22.5108 90.9741 22.2831C90.7982 22.0553 90.4524 21.848 89.9365 21.6641V21.3342L94.908 20.3473V36.2655C94.908 37.0596 94.9743 37.6698 95.1069 38.099Z" fill="white"/>
<path d="M81.2338 36.2683C81.2338 38.1574 83.2656 38.6245 83.9861 36.7997V33.1559C82.4183 33.5209 81.2338 34.5311 81.2338 36.2683ZM80.3807 28.7122C81.1358 28.8435 81.7122 29.5122 81.7122 30.3151C81.7122 30.6392 81.6171 30.9428 81.4557 31.1968C81.3058 31.4421 81.1012 31.6377 80.8389 31.7866C80.6228 31.9063 80.3807 31.9647 80.1155 31.9647C79.8158 31.9647 79.542 31.8888 79.2913 31.737C79.0406 31.5851 78.8417 31.3749 78.6918 31.1034C78.6313 30.9924 78.5881 30.8756 78.5593 30.7472C78.5218 30.61 78.5016 30.464 78.5016 30.3121C78.5016 29.7924 78.7408 29.3311 79.1155 29.0333C80.911 27.0217 84.6403 26.4728 86.4963 28.683C87.2543 29.5851 87.6347 30.8231 87.6347 32.391V36.1603C87.6347 36.6158 87.7356 37.0245 87.9345 37.3866C88.1333 37.7486 88.4331 37.9296 88.8337 37.9296C88.9835 37.9296 89.1305 37.8917 89.2717 37.8158C89.4129 37.7398 89.508 37.6347 89.557 37.5004L89.8337 37.6523C89.6838 38.1574 89.3236 38.5895 88.7587 38.9428C87.1275 39.9646 84.2685 39.5384 84.012 37.299C83.8276 37.9238 83.4183 38.4435 82.7756 38.8552C81.7122 39.5384 80.3663 39.6464 79.1904 39.223C77.4554 38.5953 76.9367 36.3296 78.1183 35.0099C79.1558 33.8479 81.8275 33.3311 83.2886 32.972L83.9861 32.7939V31.1997C83.9861 30.172 83.7872 29.3516 83.3866 28.7443C82.2626 27.0333 80.0925 28.2158 80.3807 28.7063V28.7122Z" fill="white"/>
<path d="M49.1524 22.9807C49.4089 22.8114 49.6136 22.6187 49.7634 22.3997L50.0372 22.5778C49.8211 23.2377 49.3715 23.8129 48.6884 24.3121C46.1724 26.1457 42.6938 24.8931 42.6938 21.1881V13.5064H41.2961L41.2471 13.1414H42.6938V9.75163L46.3655 9.22025V13.1414H49.4637L49.4147 13.5064H46.3655V21.1121C46.3655 21.8362 46.5154 22.3734 46.8151 22.718C47.1149 23.0625 47.599 23.2377 48.2648 23.2377C48.5991 23.2377 48.8931 23.153 49.1524 22.9837V22.9807Z" fill="white"/>
<path d="M55.6235 23.6904C55.756 24.1137 56.0298 24.3824 56.4477 24.4991V24.8261H50.7529V24.4991C51.1852 24.3824 51.4618 24.1079 51.5771 23.6758C51.6924 23.2466 51.7529 22.6335 51.7529 21.8422V15.9474C51.7529 15.5269 51.6636 15.197 51.4907 14.9605C51.3148 14.724 50.969 14.4875 50.4531 14.251V13.9474L55.4246 12.9109V21.8422C55.4246 22.651 55.4909 23.267 55.6235 23.6904ZM53.3265 7.46859C54.439 7.46859 55.3381 8.37953 55.3381 9.50653C55.3381 10.6335 54.439 11.5474 53.3265 11.5474C52.214 11.5474 51.312 10.6335 51.312 9.50653C51.312 8.37953 52.214 7.46859 53.3265 7.46859Z" fill="white"/>
<path d="M62.6352 23.702C62.7707 24.1312 63.0445 24.3969 63.4595 24.499V24.826H57.7646V24.499C58.1998 24.3823 58.4736 24.1107 58.5918 23.6903C58.707 23.2699 58.7647 22.6626 58.7647 21.8684V8.88746C58.7647 8.44951 58.6782 8.11666 58.5024 7.88893C58.3295 7.66119 57.9837 7.45389 57.4678 7.26995V6.94003L62.4364 5.95317V21.8684C62.4364 22.6626 62.5027 23.2728 62.6352 23.702Z" fill="white"/>
<path d="M67.759 21.842C67.759 23.7311 69.7908 24.1982 70.5142 22.3734V18.7296C68.9435 19.0946 67.759 20.1048 67.759 21.842ZM66.9059 14.2888C67.661 14.4202 68.2374 15.0859 68.2374 15.8917C68.2374 16.2158 68.1423 16.5194 67.9809 16.7735C67.831 17.0187 67.6264 17.2172 67.367 17.3632C67.1509 17.4829 66.9088 17.5413 66.6407 17.5413C66.341 17.5413 66.0672 17.4654 65.8165 17.3136C65.5686 17.1618 65.3669 16.9516 65.217 16.68C65.1594 16.5691 65.1161 16.4523 65.0873 16.3238C65.0499 16.1866 65.0297 16.0406 65.0297 15.8888C65.0297 15.3691 65.2689 14.9078 65.6407 14.61C67.4362 12.5983 71.1655 12.0494 73.0215 14.2625C73.7795 15.1647 74.1599 16.3997 74.1599 17.9705V21.7398C74.1599 22.1953 74.2579 22.6041 74.4596 22.9661C74.6585 23.3282 74.9582 23.5092 75.3588 23.5092C75.5087 23.5092 75.6528 23.4712 75.794 23.3953C75.9352 23.3194 76.0332 23.2143 76.0822 23.08L76.356 23.2318C76.2062 23.7369 75.8488 24.169 75.2839 24.5223C73.6527 25.5413 70.7966 25.1179 70.5372 22.8785C70.3528 23.5033 69.9435 24.0201 69.3008 24.4347C68.2403 25.1179 66.8944 25.226 65.7185 24.8026C63.9835 24.1749 63.4648 21.9092 64.6435 20.5895C65.6839 19.4275 68.3555 18.9107 69.8138 18.5515L70.5142 18.3734V16.7793C70.5142 15.7516 70.3124 14.9311 69.9118 14.3238C68.7907 12.6129 66.6206 13.7954 66.9059 14.2859V14.2888Z" fill="white"/>
<path d="M81.934 23.702C82.0666 24.1312 82.3404 24.3969 82.7583 24.499V24.826H77.0634V24.499C77.4957 24.3823 77.7695 24.1107 77.8877 23.6903C78.0029 23.2699 78.0606 22.6626 78.0606 21.8684V8.88746C78.0606 8.44951 77.9741 8.11666 77.7983 7.88893C77.6254 7.66119 77.2796 7.45389 76.7637 7.26995V6.94003L81.7323 5.95317V21.8684C81.7323 22.6626 81.7986 23.2728 81.934 23.702Z" fill="white"/>
<path d="M41.3166 18.981C41.3166 22.7065 38.6161 25.2087 35.0223 25.1678C31.5033 25.124 28.9297 22.6102 28.9297 18.981C28.9297 15.3518 31.4572 12.8176 35.0742 12.7942C38.7285 12.7738 41.3166 15.3343 41.3166 18.981ZM33.4372 22.5868C33.5294 23.3693 33.6994 23.9241 33.9502 24.2423C34.4574 24.8934 35.7889 24.8934 36.2961 24.2423C36.5469 23.9211 36.7169 23.3693 36.8091 22.5868C36.9014 21.8014 36.9475 20.6014 36.9475 18.981C36.9475 17.3606 36.9014 16.1606 36.8091 15.3752C36.7169 14.5898 36.5469 14.038 36.2961 13.7168C35.7889 13.0657 34.4574 13.0657 33.9502 13.7168C33.6994 14.038 33.5294 14.5898 33.4372 15.3752C33.3449 16.1606 33.2988 17.3606 33.2988 18.981C33.2988 20.6014 33.3449 21.8014 33.4372 22.5868Z" fill="white"/>
<path d="M27.7747 23.6903C27.913 24.1283 28.1868 24.3998 28.5845 24.4991V24.8261H22.8896V24.4991C23.3248 24.3823 23.5986 24.1079 23.7139 23.6757C23.8321 23.2465 23.8897 22.6334 23.8897 21.8422V16.832C23.8897 15.4335 23.3969 14.7327 22.417 14.7327C22.051 14.7327 21.6907 14.8991 21.342 15.2262C20.9933 15.5561 20.7771 15.9298 20.6935 16.3532L20.7166 16.8086V21.8451C20.7166 22.6392 20.7886 23.2524 20.9299 23.6933C21.0711 24.1312 21.342 24.4027 21.7426 24.502V24.829H16.0477V24.502C16.48 24.3852 16.7538 24.1108 16.872 23.6787C16.9873 23.2495 17.0478 22.6363 17.0478 21.8451V16.8349C17.0478 16.1254 16.9296 15.5999 16.6962 15.2524C16.4627 14.9079 16.0967 14.7327 15.5981 14.7327C15.2321 14.7327 14.8805 14.8933 14.5491 15.2145C14.2148 15.5356 14.0073 15.8802 13.9237 16.251V21.8685C13.9237 22.6626 13.99 23.2699 14.1254 23.6903C14.258 24.1137 14.5318 24.3823 14.9497 24.4991V24.8261H9.25481V24.4991C9.68711 24.3823 9.95802 24.1137 10.0647 23.702C10.1742 23.2874 10.2289 22.6772 10.2289 21.8685V16.0232C10.2289 15.5678 10.1396 15.2174 9.96667 14.9721C9.79086 14.7269 9.45367 14.4875 8.95508 14.251V13.9473L13.9237 12.9108V15.4159C15.4454 12.1021 20.12 11.9269 20.6676 15.5415C20.95 14.7824 21.4169 14.1546 22.0654 13.6554C24.6707 11.6612 27.5614 13.2641 27.5614 16.7561V21.8422C27.5614 22.6363 27.6306 23.2495 27.7747 23.6903Z" fill="white"/>
</g>
<defs>
<linearGradient id="paint0_linear_34874_7635" x1="8.36073" y1="2.82626" x2="29.1153" y2="34.188" gradientUnits="userSpaceOnUse">
<stop stop-color="#FFCF00"/>
<stop offset="1" stop-color="#FAAD19"/>
</linearGradient>
<clipPath id="clip0_34874_7635">
<rect width="96" height="56.4706" fill="white"/>
</clipPath>
</defs>
</svg>
