<?xml version="1.0" encoding="UTF-8"?>
<svg width="24px" height="24px" viewBox="0 0 24 24" version="1.1" xmlns="http://www.w3.org/2000/svg" xmlns:xlink="http://www.w3.org/1999/xlink">
    <title>NetBanking</title>
    <g id="NetBanking" stroke="none" stroke-width="1" fill="none" fill-rule="evenodd">
        <g id="online-banking" transform="translate(4.000000, 0.000000)" fill="#787878" fill-rule="nonzero">
            <path d="M13.8823529,0 L2.11764706,0 C0.949976471,0 0,0.949976471 0,2.11764706 L0,21.8823529 C0,23.0500235 0.949976471,24 2.11764706,24 L13.8823529,24 C15.0500235,24 16,23.0500235 16,21.8823529 L16,2.11764706 C16,0.949976471 15.0500235,0 13.8823529,0 Z M14.5882353,21.8823529 C14.5882353,22.2715765 14.2715765,22.5882353 13.8823529,22.5882353 L2.11764706,22.5882353 C1.72842353,22.5882353 1.41176471,22.2715765 1.41176471,21.8823529 L1.41176471,2.11764706 C1.41176471,1.72842353 1.72842353,1.41176471 2.11764706,1.41176471 L13.8823529,1.41176471 C14.2715765,1.41176471 14.5882353,1.72842353 14.5882353,2.11764706 L14.5882353,21.8823529 Z" id="Shape"></path>
            <path d="M6.50978824,4.87844706 L9.33331765,4.87844706 C9.72315294,4.87844706 10.0392,4.5624 10.0392,4.17256471 C10.0392,3.78272941 9.72315294,3.46668235 9.33331765,3.46668235 L6.50978824,3.46668235 C6.11995294,3.46668235 5.80390588,3.78272941 5.80390588,4.17256471 C5.80390588,4.5624 6.11995294,4.87844706 6.50978824,4.87844706 L6.50978824,4.87844706 Z" id="Path"></path>
            <path d="M12.6117647,17.8641882 L3.38823529,17.8641882 C2.9984,17.8641882 2.68235294,18.1802353 2.68235294,18.5700706 C2.68235294,18.9599059 2.9984,19.2759529 3.38823529,19.2759529 L12.6117647,19.2759529 C13.0016,19.2759529 13.3176471,18.9599059 13.3176471,18.5700706 C13.3176471,18.1802353 13.0016,17.8641882 12.6117647,17.8641882 Z" id="Path"></path>
            <path d="M3.88047059,12.4524235 L4.33755294,12.4524235 L4.33755294,14.9667765 L3.92155294,14.9667765 C3.53171765,14.9667765 3.21567059,15.2828235 3.21567059,15.6726588 C3.21567059,16.0624941 3.53171765,16.3785412 3.92155294,16.3785412 L12.0784471,16.3785412 C12.4682824,16.3785412 12.7843294,16.0624941 12.7843294,15.6726588 C12.7843294,15.2828235 12.4682824,14.9667765 12.0784471,14.9667765 L11.6624471,14.9667765 L11.6624471,12.4524235 L12.1195294,12.4524235 C12.7858824,12.4524235 13.0816941,11.6075294 12.5574118,11.1928471 L8.43788235,7.93501176 C8.18127059,7.73204706 7.81877647,7.73204706 7.56216471,7.93501176 L3.44268235,11.1928471 C2.91910588,11.6069176 3.21327059,12.4524235 3.88047059,12.4524235 Z M5.74931765,12.4524235 L7.29411765,12.4524235 L7.29411765,14.9667765 L5.74931765,14.9667765 L5.74931765,12.4524235 Z M10.2506824,14.9667765 L8.70588235,14.9667765 L8.70588235,12.4524235 L10.2506824,12.4524235 L10.2506824,14.9667765 Z M7.99995294,9.38865882 L10.0889412,11.0406588 L5.91105882,11.0406588 L7.99995294,9.38865882 Z" id="Shape"></path>
        </g>
    </g>
</svg>