<?xml version="1.0" encoding="UTF-8"?>
<svg width="24px" height="26px" viewBox="0 0 24 26" version="1.1" xmlns="http://www.w3.org/2000/svg" xmlns:xlink="http://www.w3.org/1999/xlink">
    <title>Group 5</title>
    <g id="Icons" stroke="none" stroke-width="1" fill="none" fill-rule="evenodd">
        <g id="Grey" transform="translate(-908.000000, -1308.000000)" fill="#787878">
            <g id="Group-5" transform="translate(908.000000, 1308.000000)">
                <path d="M11.8342205,4.4137931 C14.8121342,4.4137931 17.1044211,6.92755262 17.2006172,9.78370914 L17.2037618,9.97044335 L17.2037618,13.1394606 L15.3975172,15.0317241 L15.3975172,16.0554483 L21.6373123,18.8567998 L22.6104113,24.973422 L20.9757956,25.2334745 L20.1428966,20.0005517 L13.7429467,17.1267366 L13.7429467,14.3679286 L15.5481379,12.4761379 L15.5485893,9.97044335 C15.5485893,7.96800746 14.0049258,6.17145745 12.0065941,6.0731942 L11.8342205,6.06896552 C9.79767372,6.06896552 8.26525478,7.69685577 8.17935047,9.66010269 L8.17554859,9.83416778 L8.17517241,12.4761379 L9.98119122,14.3679286 L9.98119122,17.1267366 L3.58041379,20.0005517 L2.74834232,25.2334745 L1.11372664,24.973422 L2.08682563,18.8567998 L8.3257931,16.0554483 L8.3257931,15.0317241 L6.52037618,13.1394606 L6.52037618,9.83416778 C6.52037618,6.91448929 8.78502888,4.4137931 11.8342205,4.4137931 Z" id="Shape" fill-rule="nonzero"></path>
                <path d="M21.7931034,9.93103448 C20.7475345,9.93103448 19.862069,10.8165 19.862069,11.862069 C19.862069,12.907638 20.7475345,13.7931034 21.7931034,13.7931034 C22.8386724,13.7931034 23.7241379,12.907638 23.7241379,11.862069 C23.7241379,10.8165 22.8386724,9.93103448 21.7931034,9.93103448 Z M21.7931034,11.5862069 C21.924546,11.5862069 22.0689655,11.7306265 22.0689655,11.862069 C22.0689655,11.9935115 21.924546,12.137931 21.7931034,12.137931 C21.6616609,12.137931 21.5172414,11.9935115 21.5172414,11.862069 C21.5172414,11.7306265 21.6616609,11.5862069 21.7931034,11.5862069 Z" id="Path"></path>
                <path d="M17.3793103,1.17607074e-14 C16.3337414,1.17607074e-14 15.4482759,0.885465494 15.4482759,1.93103448 C15.4482759,2.97660347 16.3337414,3.86206897 17.3793103,3.86206897 C18.4248793,3.86206897 19.3103448,2.97660347 19.3103448,1.93103448 C19.3103448,0.885465494 18.4248793,1.17607074e-14 17.3793103,1.17607074e-14 Z M17.3793103,1.65517241 C17.5107529,1.65517241 17.6551724,1.79959198 17.6551724,1.93103448 C17.6551724,2.06247699 17.5107529,2.20689655 17.3793103,2.20689655 C17.2478678,2.20689655 17.1034483,2.06247699 17.1034483,1.93103448 C17.1034483,1.79959198 17.2478678,1.65517241 17.3793103,1.65517241 Z" id="Path-Copy"></path>
                <path d="M6.34482759,1.17607074e-14 C5.2992586,1.17607074e-14 4.4137931,0.885465494 4.4137931,1.93103448 C4.4137931,2.97660347 5.2992586,3.86206897 6.34482759,3.86206897 C7.39039657,3.86206897 8.27586207,2.97660347 8.27586207,1.93103448 C8.27586207,0.885465494 7.39039657,1.17607074e-14 6.34482759,1.17607074e-14 Z M6.34482759,1.65517241 C6.47627009,1.65517241 6.62068966,1.79959198 6.62068966,1.93103448 C6.62068966,2.06247699 6.47627009,2.20689655 6.34482759,2.20689655 C6.21338508,2.20689655 6.06896552,2.06247699 6.06896552,1.93103448 C6.06896552,1.79959198 6.21338508,1.65517241 6.34482759,1.65517241 Z" id="Path-Copy-2"></path>
                <path d="M1.93103448,9.93103448 C0.885465494,9.93103448 1.24957516e-13,10.8165 1.24957516e-13,11.862069 C1.24957516e-13,12.907638 0.885465494,13.7931034 1.93103448,13.7931034 C2.97660347,13.7931034 3.86206897,12.907638 3.86206897,11.862069 C3.86206897,10.8165 2.97660347,9.93103448 1.93103448,9.93103448 Z M1.93103448,11.5862069 C2.06247699,11.5862069 2.20689655,11.7306265 2.20689655,11.862069 C2.20689655,11.9935115 2.06247699,12.137931 1.93103448,12.137931 C1.79959198,12.137931 1.65517241,11.9935115 1.65517241,11.862069 C1.65517241,11.7306265 1.79959198,11.5862069 1.93103448,11.5862069 Z" id="Path-Copy-3"></path>
            </g>
        </g>
    </g>
</svg>