<svg width="80" height="80" viewBox="0 0 80 80" fill="none" xmlns="http://www.w3.org/2000/svg">
<path d="M62.5881 21.3766L51.07 15.4549C49.9167 14.8731 48.5099 15.3198 47.9035 16.4604C47.3445 17.5747 47.7005 18.9309 48.7347 19.627L49.7559 20.3474C54.3473 23.5141 57.9413 27.4724 52.2733 29.7841L25.073 38.5241C25.073 38.5241 0.532597 46.4408 13.2619 63.0024C13.8108 63.7137 14.6593 64.1292 15.5577 64.1266H56.6272C57.3398 64.1262 57.9172 63.5481 57.9168 62.8354C57.9166 62.4664 57.7584 62.1151 57.4822 61.8704C52.6691 57.5716 44.8953 47.9212 60.3399 39.9808C80.8905 29.4279 62.5881 21.3766 62.5881 21.3766Z" fill="#2E2A94"/>
<path d="M33.9996 64C28.4996 60.1667 21.5996 50.6 37.9996 43C58.4996 33.5 72.5 29 49.5 17" stroke="#EBCB76" stroke-dasharray="2 2"/>
</svg>
