<svg width="92" height="94" viewBox="0 0 92 94" fill="none" xmlns="http://www.w3.org/2000/svg">
<mask id="mask0_246_3484" style="mask-type:alpha" maskUnits="userSpaceOnUse" x="0" y="0" width="92" height="94">
<g style="mix-blend-mode:overlay">
<path d="M91.2475 77.8592L87.0939 87.8618C86.071 90.2922 84.1267 92.2182 81.6868 93.2181C79.2469 94.2179 76.5101 94.2102 74.0759 93.1964L58.7299 86.722C58.1046 86.4525 57.5775 85.9968 57.2205 85.417C56.8635 84.8372 56.6938 84.1615 56.7346 83.4818L55.6801 83.0336C54.3864 82.484 52.9671 82.2987 51.5757 82.4978C43.4749 83.7111 29.5751 80.9068 22.4121 76.6135C15.4254 72.4571 8.75857 67.7851 2.46709 62.6366C-3.77952 57.4923 3.03295 48.3252 9.63084 52.5376C11.6018 53.7965 16.1655 57.0786 18.7479 58.9033C19.5527 56.7883 21.7992 55.0554 24.0642 55.6191C24.7792 55.7829 25.4605 56.0034 26.1219 56.2158C28.8079 57.0786 31.5836 57.9715 37.6987 55.6345C49.2593 51.2104 60.7545 56.7192 61.6151 57.1462L66.5514 59.2325C67.0055 58.7161 67.6101 58.355 68.2801 58.1998C68.9501 58.0447 69.6519 58.1033 70.2868 58.3676C72.7921 59.4074 79.9566 62.4095 85.9224 64.9081C88.3396 65.9271 90.2559 67.8604 91.2534 70.2865C92.2509 72.7126 92.2488 75.4346 91.2475 77.8592ZM60.7266 59.1635C60.4863 59.062 49.4283 53.5511 38.4879 57.6937C31.649 60.3069 28.3545 59.2494 25.4487 58.3146C24.802 58.1067 24.1935 57.9016 23.5703 57.7679C21.8352 57.3953 20.5124 59.5052 20.5124 61.1021C20.5124 62.9974 23.7313 65.2447 25.3737 65.9745C27.5365 66.935 32.0003 66.9298 34.3358 66.6234C34.6257 66.5853 34.9189 66.6639 35.1508 66.8419C35.2657 66.9301 35.3621 67.04 35.4344 67.1655C35.5068 67.2909 35.5537 67.4293 35.5726 67.5728C35.5915 67.7164 35.5819 67.8623 35.5444 68.0021C35.5069 68.142 35.4422 68.2731 35.354 68.3879C35.176 68.6199 34.9131 68.7716 34.6231 68.8097C31.9893 69.147 27.0684 69.1529 24.4816 67.9895C24.4213 67.9623 18.5289 65.23 18.329 61.302C16.0714 59.7058 10.5994 55.7646 8.40209 54.3639C4.1713 51.6661 -0.224838 57.6062 3.85162 60.9162C10.0828 65.9763 16.6643 70.589 23.5468 74.7197C30.2343 78.7271 43.6939 81.4477 51.2523 80.3145C53.0444 80.055 54.8733 80.2922 56.5399 81.0001L57.3894 81.3609L65.5468 61.1925C65.5468 61.1925 61.9303 59.6735 60.7266 59.1635ZM69.4439 60.4018C69.3096 60.3455 69.1656 60.3164 69.02 60.3162C68.8744 60.3159 68.7303 60.3445 68.5958 60.4002C68.4613 60.456 68.3393 60.5378 68.2366 60.641C68.1339 60.7442 68.0527 60.8667 67.9976 61.0014L58.9952 83.2687C58.888 83.5358 58.8894 83.8342 58.9993 84.1002C59.1092 84.3661 59.3187 84.5786 59.5831 84.6922L62.7475 86.0275L72.8149 61.8047C71.3774 61.2072 70.1972 60.7148 69.4439 60.4018ZM74.8483 62.6579L64.7803 86.8837L74.9314 91.1652C76.8247 91.9536 78.9533 91.9596 80.8511 91.1819C82.7488 90.4042 84.2611 88.9063 85.0567 87.016L89.2111 77.017C89.9908 75.1311 89.993 73.0133 89.2172 71.1257C88.4414 69.2382 86.9506 67.7341 85.07 66.9416C81.6917 65.5225 77.9305 63.9476 74.8483 62.6579ZM13.3105 19.8422V16.1677C13.3114 15.2909 13.6602 14.4503 14.2801 13.8304C14.9001 13.2104 15.7407 12.8617 16.6175 12.8607H24.1002L27.8812 5.42429C28.707 3.78888 29.9714 2.41542 31.5331 1.45749C33.0948 0.499559 34.8921 -0.00506734 36.7242 3.83627e-05H55.3023C57.1344 -0.00506734 58.9318 0.499559 60.4934 1.45749C62.0551 2.41542 63.3195 3.78888 64.1453 5.42429L67.9263 12.8607H75.409C76.2858 12.8617 77.1264 13.2104 77.7464 13.8304C78.3664 14.4503 78.7151 15.2909 78.7161 16.1677V19.8422C78.7151 20.719 78.3664 21.5596 77.7464 22.1795C77.1264 22.7995 76.2858 23.1482 75.409 23.1492H74.8571C75.2193 23.8934 75.408 24.71 75.409 25.5376V38.3983C75.4083 39.4007 75.1342 40.384 74.6163 41.2423C74.0983 42.1006 73.3561 42.8013 72.4695 43.2692V47.217C72.4685 48.0938 72.1198 48.9344 71.4998 49.5544C70.8798 50.1743 70.0392 50.5231 69.1624 50.524H64.0182C63.1414 50.5231 62.3008 50.1743 61.6808 49.5544C61.0609 48.9344 60.7121 48.0938 60.7111 47.217V43.91H31.3154V47.217C31.3144 48.0938 30.9657 48.9344 30.3457 49.5544C29.7257 50.1743 28.8851 50.5231 28.0083 50.524H22.8641C21.9873 50.5231 21.1467 50.1743 20.5267 49.5544C19.9068 48.9344 19.558 48.0938 19.5571 47.217V43.2692C18.6704 42.8013 17.9282 42.1006 17.4102 41.2423C16.8923 40.384 16.6182 39.4007 16.6175 38.3983V25.5376C16.6185 24.71 16.8072 23.8934 17.1694 23.1492H16.6175C15.7407 23.1482 14.9001 22.7995 14.2801 22.1795C13.6602 21.5596 13.3114 20.719 13.3105 19.8422ZM62.1809 6.42375C61.5386 5.15169 60.555 4.08339 59.3402 3.3383C58.1255 2.59322 56.7274 2.20073 55.3023 2.20472H36.7242C35.2991 2.20073 33.9011 2.59322 32.6863 3.3383C31.4715 4.08339 30.488 5.15169 29.8456 6.42375L22.9295 20.0259H69.097L62.1809 6.42375ZM75.409 20.9445C75.7014 20.9445 75.9818 20.8284 76.1885 20.6217C76.3952 20.4149 76.5114 20.1345 76.5114 19.8422V16.1677C76.5114 15.8754 76.3952 15.595 76.1885 15.3882C75.9818 15.1815 75.7014 15.0654 75.409 15.0654H69.0471L71.7346 20.3471C72.1591 20.496 72.5636 20.6967 72.9391 20.9445H75.409ZM62.9158 47.217C62.9158 47.5094 63.032 47.7898 63.2387 47.9965C63.4454 48.2032 63.7258 48.3194 64.0182 48.3194H69.1624C69.4548 48.3194 69.7352 48.2032 69.9419 47.9965C70.1486 47.7898 70.2648 47.5094 70.2648 47.217V43.8916C70.1428 43.8997 70.0215 43.91 69.8973 43.91H62.9158V47.217ZM21.7617 47.217C21.7617 47.5094 21.8779 47.7898 22.0846 47.9965C22.2913 48.2032 22.5717 48.3194 22.8641 48.3194H28.0083C28.3007 48.3194 28.5811 48.2032 28.7878 47.9965C28.9945 47.7898 29.1107 47.5094 29.1107 47.217V43.91H22.1292C22.005 43.91 21.8837 43.8997 21.7617 43.8916V47.217ZM18.8222 38.3983C18.8231 39.2751 19.1719 40.1156 19.7918 40.7356C20.4118 41.3556 21.2524 41.7043 22.1292 41.7053H69.8973C70.7741 41.7043 71.6147 41.3556 72.2347 40.7356C72.8547 40.1156 73.2034 39.2751 73.2044 38.3983V25.5376C73.2034 24.6608 72.8547 23.8203 72.2347 23.2003C71.6147 22.5803 70.7741 22.2316 69.8973 22.2306H22.1292C21.2524 22.2316 20.4118 22.5803 19.7918 23.2003C19.1719 23.8203 18.8231 24.6608 18.8222 25.5376V38.3983ZM19.0889 20.9445C19.4639 20.6968 19.868 20.4961 20.292 20.3471L22.9795 15.0654H16.6175C16.3251 15.0654 16.0447 15.1815 15.838 15.3882C15.6313 15.595 15.5151 15.8754 15.5151 16.1677V19.8422C15.5151 20.1345 15.6313 20.4149 15.838 20.6217C16.0447 20.8284 16.3251 20.9445 16.6175 20.9445H19.0889Z" fill="white"/>
<path d="M63.6513 27.9263H67.3258C68.2026 27.9272 69.0432 28.276 69.6631 28.8959C70.2831 29.5159 70.6318 30.3565 70.6328 31.2333V32.7031C70.6318 33.5799 70.2831 34.4205 69.6631 35.0404C69.0432 35.6604 68.2026 36.0091 67.3258 36.0101H63.6513C62.7745 36.0091 61.9339 35.6604 61.314 35.0404C60.694 34.4205 60.3453 33.5799 60.3443 32.7031V31.2333C60.3453 30.3565 60.694 29.5159 61.314 28.8959C61.9339 28.276 62.7745 27.9272 63.6513 27.9263ZM62.549 32.7031C62.549 32.9954 62.6651 33.2758 62.8718 33.4826C63.0786 33.6893 63.359 33.8054 63.6513 33.8054H67.3258C67.6181 33.8054 67.8985 33.6893 68.1053 33.4826C68.312 33.2758 68.4281 32.9954 68.4281 32.7031V31.2333C68.4281 30.9409 68.312 30.6605 68.1053 30.4538C67.8985 30.2471 67.6181 30.131 67.3258 30.131H63.6513C63.359 30.131 63.0786 30.2471 62.8718 30.4538C62.6651 30.6605 62.549 30.9409 62.549 31.2333V32.7031ZM24.7019 27.9263H28.3764C29.2532 27.9272 30.0938 28.276 30.7137 28.8959C31.3337 29.5159 31.6824 30.3565 31.6834 31.2333V32.7031C31.6824 33.5799 31.3337 34.4205 30.7137 35.0404C30.0938 35.6604 29.2532 36.0091 28.3764 36.0101H24.7019C23.8251 36.0091 22.9845 35.6604 22.3646 35.0404C21.7446 34.4205 21.3959 33.5799 21.3949 32.7031V31.2333C21.3959 30.3565 21.7446 29.5159 22.3646 28.8959C22.9845 28.276 23.8251 27.9272 24.7019 27.9263ZM23.5996 32.7031C23.5996 32.9954 23.7157 33.2758 23.9224 33.4826C24.1292 33.6893 24.4095 33.8054 24.7019 33.8054H28.3764C28.6687 33.8054 28.9491 33.6893 29.1559 33.4826C29.3626 33.2758 29.4787 32.9954 29.4787 32.7031V31.2333C29.4787 30.9409 29.3626 30.6605 29.1559 30.4538C28.9491 30.2471 28.6687 30.131 28.3764 30.131H24.7019C24.4095 30.131 24.1292 30.2471 23.9224 30.4538C23.7157 30.6605 23.5996 30.9409 23.5996 31.2333V32.7031ZM41.237 30.8658H50.7907C51.083 30.8658 51.3634 30.982 51.5701 31.1887C51.7769 31.3954 51.893 31.6758 51.893 31.9682C51.893 32.2605 51.7769 32.5409 51.5701 32.7477C51.3634 32.9544 51.083 33.0705 50.7907 33.0705H41.237C40.9447 33.0705 40.6643 32.9544 40.4576 32.7477C40.2508 32.5409 40.1347 32.2605 40.1347 31.9682C40.1347 31.6758 40.2508 31.3954 40.4576 31.1887C40.6643 30.982 40.9447 30.8658 41.237 30.8658Z" fill="white"/>
</g>
</mask>
<g mask="url(#mask0_246_3484)">
<g style="mix-blend-mode:overlay">
<rect x="-6" y="-13" width="90" height="119" fill="white"/>
</g>
</g>
</svg>
