<svg width="93" height="93" viewBox="0 0 93 93" fill="none" xmlns="http://www.w3.org/2000/svg">
<g style="mix-blend-mode:overlay">
<path d="M82.1548 46.5303V88.3888C82.1548 89.8645 80.9587 91.0606 79.483 91.0606H13.5781C12.1025 91.0606 10.9062 89.8645 10.9062 88.3888V46.5303" stroke="white" stroke-width="3" stroke-linecap="round" stroke-linejoin="round"/>
<path d="M88.3889 24.2651H4.67182C3.19622 24.2651 2 25.4614 2 26.937V43.8585C2 45.3342 3.19622 46.5303 4.67182 46.5303H88.3889C89.8646 46.5303 91.0607 45.3342 91.0607 43.8585V26.937C91.0607 25.4614 89.8646 24.2651 88.3889 24.2651Z" stroke="white" stroke-width="3" stroke-linecap="round" stroke-linejoin="round"/>
<path d="M46.5312 91.0607V24.2651" stroke="white" stroke-width="3" stroke-linecap="round" stroke-linejoin="round"/>
<path d="M46.5306 24.2652H26.492C23.5394 24.2652 20.7078 23.0923 18.62 21.0045C16.5323 18.9168 15.3594 16.0851 15.3594 13.1326C15.3594 10.18 16.5323 7.34841 18.62 5.26065C20.7078 3.17288 23.5394 2 26.492 2C42.0776 2 46.5306 24.2652 46.5306 24.2652Z" stroke="white" stroke-width="3" stroke-linecap="round" stroke-linejoin="round"/>
<path d="M46.5312 24.2652H66.5699C69.5223 24.2652 72.354 23.0923 74.442 21.0045C76.5296 18.9168 77.7025 16.0851 77.7025 13.1326C77.7025 10.18 76.5296 7.34841 74.442 5.26065C72.354 3.17288 69.5223 2 66.5699 2C50.9843 2 46.5312 24.2652 46.5312 24.2652Z" stroke="white" stroke-width="3" stroke-linecap="round" stroke-linejoin="round"/>
</g>
</svg>
