<svg width="120" height="95" viewBox="0 0 120 95" fill="none" xmlns="http://www.w3.org/2000/svg">
<mask id="mask0_246_3491" style="mask-type:alpha" maskUnits="userSpaceOnUse" x="0" y="0" width="120" height="95">
<g style="mix-blend-mode:overlay">
<g style="mix-blend-mode:overlay">
<path d="M17.624 57.8519C13.0329 57.8519 8.59182 59.5414 5.11774 62.6082C4.71343 62.9656 4.21327 63.1412 3.7131 63.1412C3.11916 63.1412 2.52937 62.892 2.10631 62.4063C1.33105 61.5116 1.42067 60.1512 2.30846 59.368C6.01934 56.091 10.6356 54.1004 15.49 53.6467V52.2778C15.49 47.9936 18.9099 44.5074 23.1154 44.5074C23.9782 44.5074 24.7743 43.9986 25.1453 43.2101L34.5734 23.2158C34.8715 22.585 35.0278 21.8806 35.0257 21.1826L35.007 17.3568H30.0844C28.6652 17.3568 27.5107 16.1887 27.5107 14.7526V2.60238C27.5107 1.85068 27.8316 1.13577 28.3922 0.641646C28.9486 0.149623 29.6926 -0.0753621 30.422 0.0224116L42.97 1.69613C46.2128 2.12823 48.6594 4.96577 48.6594 8.29639V13.0424L53.0859 13.0253L56.9247 8.16918C57.752 7.12415 58.9858 6.5249 60.305 6.5249H70.4C71.5796 6.5249 72.5341 7.48897 72.5341 8.67802C72.5341 9.86708 71.5796 10.8311 70.4 10.8311L60.2591 10.8564L56.4224 15.7093C55.5951 16.7565 54.3634 17.3568 53.0421 17.3568H48.6594H48.6188L48.5323 22.1277C48.5219 22.6923 48.4573 23.2579 48.3426 23.8098L44.1621 43.8808C43.8349 45.4504 44.0058 47.0516 44.656 48.513L52.1293 65.2439L66.1382 65.0893L62.0502 54.189C59.8402 53.21 58.2897 50.9871 58.2897 48.4005V48.0178C58.2897 44.5305 61.1011 41.693 64.5585 41.693H109.34C112.798 41.693 115.609 44.5305 115.609 48.0178V48.4005C115.609 50.6791 114.398 52.6628 112.601 53.7763C115.414 56.5379 118.588 61.5015 119.912 70.3565C120.365 73.3612 119.039 76.4384 116.534 78.2005C115.237 79.1116 113.723 79.5966 112.152 79.627C111.112 88.1309 104.002 94.7368 95.3959 94.7368C86.8062 94.7368 79.7085 88.1358 78.6657 79.6363L39.3292 79.6334C37.9496 79.6334 36.8075 78.498 36.7825 77.1029C36.5887 66.4876 27.9941 57.8519 17.624 57.8519ZM44.3913 8.29639C44.3913 7.11785 43.541 6.11488 42.4115 5.96454L31.7787 4.54629V13.0505H34.9861H44.3913V8.29639ZM111.341 48.0178C111.341 46.9044 110.443 45.9992 109.34 45.9992H64.5585C63.456 45.9992 62.5578 46.9044 62.5578 48.0178V48.4005C62.5578 49.5138 63.456 50.419 64.5585 50.419H106.937H109.34C110.443 50.419 111.341 49.5138 111.341 48.4005V48.0178ZM95.3959 90.4306C101.644 90.4306 106.832 85.7533 107.839 79.6384L104.734 79.6381C103.765 83.9924 99.9558 87.2598 95.3959 87.2598C90.8482 87.2598 87.0462 83.9917 86.0801 79.6368L82.977 79.6366C83.9814 85.7522 89.1602 90.4306 95.3959 90.4306ZM100.284 79.6379L90.5283 79.6371C91.3406 81.5851 93.2156 82.9535 95.3959 82.9535C97.5852 82.9535 99.4678 81.5855 100.284 79.6379ZM40.9589 75.3272L80.639 75.3301C80.6441 75.3301 80.6484 75.3272 80.6535 75.3272C80.6585 75.3272 80.6628 75.3301 80.6679 75.3301L87.9451 75.3306C87.9511 75.3306 87.956 75.3272 87.9622 75.3272C87.9683 75.3272 87.9732 75.3306 87.9792 75.3306L102.83 75.3318C102.838 75.3316 102.845 75.3272 102.853 75.3272C102.861 75.3272 102.867 75.3316 102.875 75.3318L110.138 75.3323C110.147 75.3322 110.154 75.3272 110.163 75.3272C110.172 75.3272 110.18 75.3322 110.188 75.3323L111.999 75.3324C112.75 75.3324 113.475 75.1011 114.096 74.6659C115.275 73.8364 115.903 72.3982 115.692 71.0009C113.76 58.0801 107.777 55.1763 106.6 54.7253H91.157C87.8017 54.7253 85.2425 55.7125 83.5523 57.6606C80.1262 61.6073 80.9681 68.3558 80.9786 68.4231C81.1349 69.5995 80.32 70.6834 79.155 70.8453C79.055 70.859 78.9571 70.8653 78.8612 70.8653C77.8108 70.8653 76.896 70.0842 76.7501 69.0055C76.7001 68.6523 75.6226 60.2837 80.3221 54.8441C80.3586 54.8019 80.4005 54.7669 80.4375 54.7253H66.8134L70.1312 63.567C70.6376 64.9232 70.4542 66.4445 69.6373 67.6377C68.8224 68.8268 67.4824 69.5375 66.0527 69.5385L52.1335 69.5501C52.1314 69.5501 52.1314 69.5501 52.1293 69.5501C50.4183 69.5501 48.8616 68.5314 48.1634 66.9554L40.7609 50.2739C39.7398 47.9778 39.473 45.461 39.9857 42.9956L44.1662 22.9257C44.2267 22.6355 44.2579 22.3401 44.2642 22.0457L44.3496 17.3568H39.275L39.2938 21.1636C39.3 22.5062 38.9999 23.8561 38.4289 25.0672L29.0007 45.0593C27.9254 47.3397 25.6163 48.8136 23.1154 48.8136C21.2648 48.8136 19.7581 50.3675 19.7581 52.2778V53.6456C30.916 54.6958 39.9461 63.8908 40.9589 75.3272Z" fill="white"/>
</g>
<g style="mix-blend-mode:overlay">
<path d="M17.3688 60C26.9467 60 34.7383 67.7913 34.7383 77.3684C34.7383 86.9455 26.9467 94.7368 17.3688 94.7368C7.79304 94.7368 0.00143814 86.9455 0.00143814 77.3684C0.00143814 67.7913 7.79304 60 17.3688 60ZM17.3688 90.3253C24.514 90.3253 30.3253 84.5125 30.3253 77.3684C30.3253 70.2244 24.514 64.4116 17.3688 64.4116C10.2258 64.4116 4.41438 70.2244 4.41438 77.3684C4.41438 84.5125 10.2258 90.3253 17.3688 90.3253Z" fill="white"/>
</g>
<g style="mix-blend-mode:overlay">
<path d="M17.3701 67.895C22.5944 67.895 26.8438 72.1447 26.8438 77.3682C26.8438 82.5927 22.5944 86.8424 17.3701 86.8424C12.1458 86.8424 7.89638 82.5927 7.89638 77.3682C7.89638 72.1447 12.1458 67.895 17.3701 67.895ZM17.3701 82.8417C20.3866 82.8417 22.8425 80.3863 22.8425 77.3682C22.8425 74.3502 20.3866 71.8957 17.3701 71.8957C14.3535 71.8957 11.8976 74.3502 11.8976 77.3682C11.8976 80.3863 14.3535 82.8417 17.3701 82.8417Z" fill="white"/>
</g>
</g>
</mask>
<g mask="url(#mask0_246_3491)">
<g style="mix-blend-mode:overlay">
<rect x="-6" y="-5.73682" width="114" height="107" fill="white"/>
</g>
</g>
</svg>
