<svg width="103" height="98" viewBox="0 0 103 98" fill="none" xmlns="http://www.w3.org/2000/svg">
<g style="mix-blend-mode:overlay" clip-path="url(#clip0_246_3567)">
<path d="M96.9892 12.1502C96.8893 14.3007 95.9315 16.3068 94.2959 17.7992C92.7317 19.2261 90.7501 20 88.6829 20C88.5687 20 88.4546 19.9983 88.3404 19.9933C83.6263 19.7986 79.8094 16.0701 80.0074 11.8514C80.2143 7.41453 84.1775 3.82371 88.6579 4.0067C93.372 4.20143 97.189 7.9299 96.9928 12.1486L96.9892 12.1502Z" stroke="white" stroke-width="2" stroke-miterlimit="10"/>
<path d="M15.676 32.7338L15.9166 32.7337L18.1014 32.2691C18.1516 32.1819 18.0972 31.9513 18.0616 31.81L18.5474 31.6915C18.5473 31.6909 18.5471 31.6903 18.547 31.6897C18.4952 31.4773 18.4769 31.3633 18.4951 31.274L18.6171 30.6743H18.0051H18.0051H18.0051H18.005H18.005H18.005H18.0049H18.0049H18.0048H18.0048H18.0048H18.0047H18.0047H18.0047H18.0046H18.0046H18.0046H18.0045H18.0045H18.0044H18.0044H18.0044H18.0043H18.0043H18.0043H18.0042H18.0042H18.0042H18.0041H18.0041H18.0041H18.004H18.004H18.0039H18.0039H18.0039H18.0038H18.0038H18.0038H18.0037H18.0037H18.0037H18.0036H18.0036H18.0036H18.0035H18.0035H18.0035H18.0034H18.0034H18.0034H18.0033H18.0033H18.0033H18.0032H18.0032H18.0031H18.0031H18.0031H18.003H18.003H18.003H18.0029H18.0029H18.0029H18.0028H18.0028H18.0028H18.0027H18.0027H18.0027H18.0026H18.0026H18.0026H18.0025H18.0025H18.0025H18.0024H18.0024H18.0024H18.0023H18.0023H18.0023H18.0022H18.0022H18.0022H18.0021H18.0021H18.0021H18.002H18.002H18.002H18.0019H18.0019H18.0019H18.0018H18.0018H18.0018H18.0017H18.0017H18.0017H18.0016H18.0016H18.0016H18.0015H18.0015H18.0015H18.0014H18.0014H18.0014H18.0013H18.0013H18.0013H18.0012H18.0012H18.0012H18.0011H18.0011H18.0011H18.001H18.001H18.001H18.0009H18.0009H18.0009H18.0009H18.0008H18.0008H18.0008H18.0007H18.0007H18.0007H18.0006H18.0006H18.0006H18.0005H18.0005H18.0005H18.0004H18.0004H18.0004H18.0003H18.0003H18.0003H18.0002H18.0002H18.0002H18.0001H18.0001H18.0001H18.0001H18H18H18H17.9999H17.9999H17.9999H17.9998H17.9998H17.9998H17.9997H17.9997H17.9997H17.9996H17.9996H17.9996H17.9995H17.9995H17.9995H17.9995H17.9994H17.9994H17.9994H17.9993H17.9993H17.9993H17.9992H17.9992H17.9992H17.9991H17.9991H17.9991H17.999H17.999H17.999H17.999H17.9989H17.9989H17.9989H17.9988H17.9988H17.9988H17.9987H17.9987H17.9987H17.9986H17.9986H17.9986H17.9986H17.9985H17.9985H17.9985H17.9984H17.9984H17.9984H17.9983H17.9983H17.9983H17.9982H17.9982H17.9982H17.9981H17.9981H17.9981H17.9981H17.998H17.998H17.998H17.9979H17.9979H17.9979H17.9978H17.9978H17.9978H17.9977H17.9977H17.9977H17.9977H17.9976H17.9976H17.9976H17.9975H17.9975H17.9975H17.9974H17.9974H17.9974H17.9973H17.9973H17.9973H17.9973H17.9972H17.9972H17.9972H17.9971H17.9971H17.9971H17.997H17.997H17.997H17.997H17.9969H17.9969H17.9969H17.9968H17.9968H17.9968H17.9967H17.9967H17.9967H17.9966H17.9966H17.9966H17.9966H17.9965H17.9965H17.9965H17.9964H17.9964H17.9964H17.9963H17.9963H17.9963H17.9962H17.9962H17.9962H17.9962H17.9961H17.9961H17.9961H17.996H17.996H17.996H17.9959H17.9959H17.9959H17.9958H17.9958H17.9958H17.9958H17.9957H17.9957H17.9957H17.9956H17.9956H17.9956H17.9955H17.9955H17.9955H17.9954H17.9954H17.9954H17.9954H17.9953H17.9953H17.9953H17.9952H17.9952H17.9952H17.9951H17.9951H17.9951H17.995H17.995H17.995H17.995H17.9949H17.9949H17.9949H17.9948H17.9948H17.9948H17.9947H17.9947H17.9947H17.9946H17.9946H17.9946H17.9945H17.9945H17.9945H17.9945H17.9944H17.9944H17.9944H17.9943H17.9943H17.9943H17.9942H17.9942H17.9942H17.9941H17.9941H17.9941H17.994H17.994H17.994H17.994H17.9939H17.9939H17.9939H17.9938H17.9938H17.9938H17.9937H17.9937H17.9937H17.9936H17.9936H17.9936H17.9935H17.9935H17.9935H17.9934H17.9934H17.9934H17.9934H17.9933H17.9933H17.9933H17.9932H17.9932H17.9932H17.9931H17.9931H17.9931H17.993H17.993H17.993H17.9929H17.9929H17.9929H17.9928H17.9928H17.9928H17.9927H17.9927H17.9927H17.9926H17.9926H17.9926H17.9925H17.9925H17.9925H17.9925H17.9924H17.9924H17.9924H17.9923H17.9923H17.9923H17.9922H17.9922H17.9922H17.9921H17.9921H17.9921H17.992H17.992H17.992H17.9919H17.9919H17.9919H17.9918H17.9918H17.9918H17.9917H17.9917H17.9917H17.9916H17.9916H17.9916H17.9915H17.9915H17.9915H17.9914H17.9914H17.9914H17.9913H17.9913H17.9913H17.9912H17.9912H17.9912H17.9911H17.9911H17.9911H17.991H17.991H17.991H17.9909H17.9909H17.9909H17.9908H17.9908H17.9908H17.9907H17.9907H17.9907H17.9906H17.9906H17.9906H17.9905H17.9905H17.9905H17.9904H17.9904H17.9904H17.9903H17.9903H17.9902H17.9902H17.9902H17.9901H17.9901H17.9901H17.99H17.99H17.99H17.9899H17.9899H17.9899H17.9898H17.9898H17.9898H17.9897H17.9897H17.9897H17.9896H17.9896H17.9895H17.9895H17.9895H17.9894H17.9894H17.9894H17.9893H17.9893H17.9893H17.9892H17.9892H17.9892H17.9891H17.9891H17.989H17.989H17.989H17.9889H17.9889H17.9889H17.9888H17.9888H17.9888H17.9887H17.9887H17.9886H17.9886H17.9886H17.9885H17.9885H17.9885H17.9884L17.9884 30.6743L17.9869 30.6743C13.1701 30.6889 8.27371 30.6868 3.53952 30.6847H3.5393H3.53239H3.52547H3.51855H3.51164H3.50472H3.4978H3.49089H3.48397H3.47706H3.47014H3.46322H3.45631H3.44939H3.44247H3.43556H3.42864H3.42173H3.41481H3.40789H3.40098H3.39406H3.38714H3.38023H3.37331H3.3664H3.35948H3.35256H3.34565H3.33873H3.33181H3.3249H3.31798H3.31107H3.30415H3.29723H3.29032H3.2834H3.27648H3.26957H3.26265H3.25574H3.24882H3.2419H3.23499H3.22807H3.22115H3.21424H3.20732H3.2004H3.19349H3.18657H3.17966H3.17274H3.16582H3.15891H3.15199H3.14507H3.13816H3.13124H3.12432H3.11741H3.11049H3.10358H3.09666H3.08974H3.08283H3.07591H3.06899H3.06208H3.05516H3.04824H3.04133H3.03441H3.02749H3.02058H3.01366H3.00674H2.99983H2.99291H2.986H2.97908H2.97216H2.96525H2.95833H2.95141H2.9445H2.93758H2.93066H2.92375H2.91683H2.90991H2.903H2.89608H2.88916H2.88225H2.87533H2.86841H2.8615H2.85458H2.84766H2.84075H2.83383H2.82691H2.82H2.81308H2.80616H2.79925H2.79233H2.78541H2.7785H2.77158H2.76466H2.75774H2.75083H2.74391H2.73699H2.73008H2.72316H2.71624H2.70933H2.70241H2.69549H2.68858H2.68166H2.67474H2.66782H2.66091H2.65399H2.64707H2.64016H2.63324H2.62632H2.61941H2.61249H2.60557H2.59865H2.59174H2.58482H2.5779H2.57099H2.56407H2.55715H2.55023H2.54332H2.5364H2.52948H2.52257H2.51565H2.50873H2.50181H2.4949H2.48798H2.48106H2.47414H2.46723H2.46031H2.45339H2.44647H2.43956H2.43264H2.42572H2.4188H2.41189H2.40497H2.39805H2.39113H2.38422H2.3773H2.37038H2.36346H2.35655H2.34963H2.34271H2.33579H2.32888H2.32196H2.31504H2.30812H2.30121H2.29429H2.28737H2.28045H2.27353H2.26662H2.2597H2.25278H2.24586H2.23895H2.23203H2.22511H2.21819H2.21127H2.20436H2.19744H2.19052H2.1836H2.17668H2.16977H2.16285H2.15593H2.14901H2.14209H2.13517H2.12826H2.12134H2.11442H2.1075H2.10058H2.09367H2.08675H2.07983H2.07291H2.06599H2.05907H2.05216H2.04524H2.03832H2.0314H2.02448H2.01756H2.01064H2.00373H1.99681H1.98989H1.98297H1.97605H1.96913H1.96221H1.9553H1.94838H1.94146H1.93454H1.92762H1.9207H1.91378H1.90686H1.89995H1.89303H1.88611H1.87919H1.87227H1.86535H1.85843H1.85151H1.84459H1.83767H1.83076H1.82384H1.81692H1.81H1.80308H1.79616H1.78924H1.78232H1.7754H1.76848H1.76156H1.75464H1.74772H1.74081H1.73389H1.72697H1.72005H1.71313H1.70621H1.69929H1.69237H1.68545H1.67853H1.67161H1.66469H1.65777H1.65085H1.64393H1.63701H1.63009H1.62317H1.61625H1.60933H1.60241H1.59549H1.58857H1.58165H1.57473H1.56781H1.56089H1.55397H1.54705H1.54013H1.53321H1.52629H1.51937H1.51245H1.50553H1.49861H1.49169H1.48477H1.47785H1.47093H1.46401H1.45709H1.45017H1.44325H1.43633H1.42941H1.42249H1.41557H1.40864H1.40172H1.3948H1.38788H1.38096H1.37404H1.36712H1.3602H1.35328H1.34636H1.33944H1.33252H1.32559H1.31867H1.31175H1.30483H1.29791H1.29099H1.28407H1.27715H1.27022H1.2633H1.25638H1.24946H1.24254H1.23562H1.2287H1.22178H1.21485H1.20793H1.20101H1.19409H1.18717H1.18025H1.17332H1.1664H1.15948H1.15256H1.14564H1.13872H1.13179H1.12487H1.11795H1.11103H1.10411H1.09718H1.09026H1.08334H1.07642H1.06949H1.06257H1.05565H1.04873H1.04181H1.03488H1.02796H1.02104H1.01412H1.00719H1.00027H0.993348H0.986426H0.979503H0.97258H0.965658H0.958735H0.951812H0.944889H0.937967H0.931044H0.924121H0.917198H0.910275H0.903352H0.896429H0.889506H0.882583H0.875659H0.868736H0.861813H0.85489H0.847966H0.841043H0.83412H0.827196H0.820273H0.813349H0.806426H0.799502H0.792579H0.785655H0.778731H0.771808H0.764884H0.75796H0.751036H0.744112H0.737189H0.730265H0.723341H0.716417H0.709493H0.702569H0.695644H0.68872H0.681796H0.674872H0.667948H0.661023H0.654099H0.647174H0.64025H0.633326H0.626401H0.619476H0.612552H0.605627H0.598703H0.591778H0.584853H0.577928H0.571004H0.564079H0.557154H0.550229H0.543304H0.536379H0.529454H0.522529H0.515603H0.508678H0.501753H0.494828H0.487902H0.480977H0.474052H0.467126H0.460201H0.453275H0.44635H0.439424H0.432498H0.425573H0.418647H0.411721H0.404795H0.397869H0.390944H0.384018H0.377092H0.370166H0.36324H0.356313H0.349387H0.342461H0.335535H0.328609H0.321682H0.314756H0.307829H0.300903H0.293976H0.28705H0.280123H0.273197H0.26627H0.259343H0.252416H0.24549H0.238563H0.231636H0.224709H0.217782H0.210855H0.203928H0.197001H0.190073H0.183146H0.176219H0.169292H0.162364H0.155437H0.148509H0.141582H0.134654H0.127727H0.120799H0.113871H0.106944H0.100016H0.0930882H0.0861603H0.0792324H0.0723044H0.0653764H0.0584484H0.0515203H0.0445921H0.0376639H0.0307357H0.0238074H0.016879H0.00995066H0.00302223H-0.00390625H-0.503906V31.1847V32.2338V32.7338H-0.00390625H-0.0035016H-0.003097H-0.00269244H-0.00228794H-0.00188348H-0.00147906H-0.0010747H-0.000670377H-0.000266104H0.000138123H0.000542304H0.000946439H0.00135053H0.00175457H0.00215857H0.00256253H0.00296643H0.0033703H0.00377412H0.00417789H0.00458162H0.00498531H0.00538895H0.00579255H0.00619611H0.00659962H0.00700309H0.00740652H0.00780991H0.00821325H0.00861655H0.00901981H0.00942302H0.00982619H0.0102293H0.0106324H0.0110355H0.0114385H0.0118414H0.0122444H0.0126473H0.0130501H0.0134529H0.0138557H0.0142584H0.0146611H0.0150637H0.0154664H0.0158689H0.0162715H0.016674H0.0170764H0.0174788H0.0178812H0.0182835H0.0186858H0.0190881H0.0194903H0.0198925H0.0202947H0.0206968H0.0210989H0.0215009H0.0219029H0.0223049H0.0227068H0.0231088H0.0235106H0.0239125H0.0243142H0.024716H0.0251177H0.0255194H0.0259211H0.0263227H0.0267243H0.0271259H0.0275274H0.0279289H0.0283303H0.0287318H0.0291331H0.0295345H0.0299358H0.0303371H0.0307384H0.0311396H0.0315408H0.031942H0.0323431H0.0327442H0.0331453H0.0335463H0.0339474H0.0343483H0.0347493H0.0351502H0.0355511H0.035952H0.0363528H0.0367536H0.0371544H0.0375551H0.0379558H0.0383565H0.0387572H0.0391578H0.0395584H0.039959H0.0403596H0.0407601H0.0411606H0.041561H0.0419615H0.0423619H0.0427623H0.0431627H0.043563H0.0439633H0.0443636H0.0447639H0.0451641H0.0455643H0.0459645H0.0463646H0.0467648H0.0471649H0.047565H0.047965H0.0483651H0.0487651H0.0491651H0.0495651H0.049965H0.0503649H0.0507648H0.0511647H0.0515646H0.0519644H0.0523642H0.052764H0.0531638H0.0535635H0.0539632H0.0543629H0.0547626H0.0551623H0.0555619H0.0559616H0.0563612H0.0567607H0.0571603H0.0575599H0.0579594H0.0583589H0.0587584H0.0591578H0.0595573H0.0599567H0.0603561H0.0607555H0.0611549H0.0615543H0.0619536H0.0623529H0.0627522H0.0631515H0.0635508H0.0639501H0.0643493H0.0647485H0.0651478H0.065547H0.0659461H0.0663453H0.0667444H0.0671436H0.0675427H0.0679418H0.0683409H0.06874H0.069139H0.0695381H0.0699371H0.0703361H0.0707351H0.0711341H0.0715331H0.0719321H0.072331H0.07273H0.0731289H0.0735278H0.0739267H0.0743256H0.0747245H0.0751234H0.0755223H0.0759211H0.0763199H0.0767188H0.0771176H0.0775164H0.0779152H0.078314H0.0787128H0.0791115H0.0795103H0.0799091H0.0803078H0.0807065H0.0811053H0.081504H0.0819027H0.0823014H0.0827001H0.0830988H0.0834975H0.0838961H0.0842948H0.0846935H0.0850921H0.0854908H0.0858894H0.086288H0.0866867H0.0870853H0.0874839H0.0878825H0.0882811H0.0886797H0.0890783H0.0894769H0.0898755H0.0902741H0.0906727H0.0910713H0.0914698H0.0918684H0.092267H0.0926656H0.0930641H0.0934627H0.0938612H0.0942598H0.0946583H0.0950569H0.0954554H0.095854H0.0962525H0.0966511H0.0970496H0.0974482H0.0978467H0.0982452H0.0986438H0.0990423H0.0994409H0.0998394H0.100238H0.100637H0.101035H0.101434H0.101832H0.102231H0.102629H0.103028H0.103426H0.103825H0.104223H0.104622H0.105021H0.105419H0.105818H0.106216H0.106615H0.107013H0.107412H0.107811H0.108209H0.108608H0.109006H0.109405H0.109804H0.110202H0.110601H0.111H0.111398H0.111797H0.112195H0.112594H0.112993H0.113391H0.11379H0.114189H0.114587H0.114986H0.115385H0.115784H0.116182H0.116581H0.11698H0.117379H0.117777H0.118176H0.118575H0.118974H0.119372H0.119771H0.12017H0.120569H0.120968H0.121366H0.121765H0.122164H0.122563H0.122962H0.123361H0.12376H0.124159H0.124558H0.124957H0.125356H0.125754H0.126153H0.126552H0.126951H0.12735H0.12775H0.128149H0.128548H0.128947H0.129346H0.129745H0.130144H0.130543H0.130942H0.131341H0.131741H0.13214H0.132539H0.132938H0.133338H0.133737H0.134136H0.134535H0.134935H0.135334H0.135733H0.136133H0.136532H0.136931H0.137331H0.13773H0.13813H0.138529H0.138929H0.139328H0.139728H0.140127H0.140527H0.140926H0.141326H0.141726H0.142125H0.142525H0.142925H0.143324H0.143724H0.144124H0.144524H0.144923H0.145323H0.145723H0.146123H0.146523H0.146923H0.147323H0.147723H0.148123H0.148522H0.148923H0.149323H0.149723H0.150123H0.150523H0.150923H0.151323H0.151723H0.152123H0.152524H0.152924H0.153324H0.153725H0.154125H0.154525H0.154926H0.155326H0.155727H0.156127H0.156528H0.156928H0.157329H0.157729H0.15813H0.15853H0.158931H0.159332H0.159732H0.160133H0.160534H0.160935H0.161336H0.161736H0.162137H0.162538H0.162939H0.16334H0.163741H0.164142H0.164543H0.164944H0.165346H0.165747H0.166148H0.166549H0.16695H0.167352H0.167753H0.168154H0.168556H0.168957H0.169359H0.16976H0.170162H0.170563H0.170965H0.171366H0.171768H0.17217H0.172572H0.172973H0.173375H0.173777H0.174179H0.174581H0.174983H0.175385H0.175787H0.176189H0.176591H0.176993H0.177395H0.177797H0.178199H0.178602H0.179004H0.179406H0.179809H0.180211H0.180614H0.181016H0.181419H0.181821H0.182224H0.182626H0.183029H0.183432H0.183835H0.184237H0.18464H0.185043H0.185446H0.185849H0.186252H0.186655H0.187058H0.187461H0.187865H0.188268H0.188671H0.189074H0.189478H0.189881H0.190284H0.190688H0.191091H0.191495H0.191899H0.192302H0.192706H0.19311H0.193513H0.193917H0.194321H0.194725H0.195129H0.195533H0.195937H0.196341H0.196745H0.197149H0.197554H0.197958H0.198362H0.198767H0.199171H0.199576H0.19998H0.200385H0.200789H0.201194C1.96556 32.7338 3.71681 32.7341 5.45673 32.7343C8.90299 32.7347 12.3048 32.7352 15.676 32.7338Z" fill="white" stroke="white"/>
<path d="M100.152 54.9591C99.453 56.7311 97.9901 57.7532 96.14 57.7636C91.002 57.7927 85.029 57.8197 79.1753 57.7553C76.0988 57.7221 73.851 55.3288 73.8322 52.0652C73.8113 48.5896 73.8155 45.0579 73.8197 41.6425C73.8197 40.556 73.8217 39.4695 73.8217 38.3809C72.5828 39.6108 71.3438 40.8427 70.1048 42.0726C65.3624 46.7843 60.4588 51.6559 55.6076 56.4216C55.593 56.4361 55.5783 56.4507 55.5657 56.4631C55.5867 56.4839 55.6097 56.5088 55.6369 56.5338C57.3865 58.2456 59.1445 60.0031 60.8439 61.7025C62.2127 63.0715 63.6274 64.4863 65.0276 65.8657C66.3293 67.1496 66.9614 68.6329 66.9593 70.4008C66.9551 74.2316 66.9551 78.0604 66.9551 81.8912C66.9551 85.2256 66.9551 88.562 66.953 91.8963C66.9509 94.1503 65.9673 95.8933 64.1067 96.9362C63.2235 97.4306 62.3215 97.6779 61.4195 97.6779C60.4609 97.6779 59.5024 97.3974 58.5774 96.8386C56.7984 95.7624 55.8964 94.0423 55.8985 91.7259C55.9006 89.6339 55.8985 87.5399 55.8985 85.4479C55.8985 81.3781 55.8964 77.1692 55.9173 73.0309C55.9194 72.4658 55.796 72.1646 55.4088 71.7844C52.1146 68.556 48.7912 65.2487 45.5765 62.0515L43.1132 59.6022C39.3419 55.8544 39.3545 51.5437 43.1488 47.7752C50.1976 40.7742 57.2484 33.7731 64.3013 26.7742C62.2901 26.7721 60.281 26.7721 58.2697 26.77C54.5716 26.77 50.7501 26.7679 46.9892 26.7555C46.6376 26.7472 46.4409 26.8323 46.1856 27.092C43.8541 29.4458 41.441 31.8785 38.9903 34.2322C37.7576 35.4164 36.1001 35.8672 34.5576 35.4372C33.0738 35.0238 31.9458 33.8521 31.5397 32.3044C31.14 30.7837 31.5502 29.3128 32.695 28.164C35.489 25.3573 38.2662 22.6089 41.5771 19.3431C42.4373 18.4955 43.5381 18.0488 44.7666 18.0488C53.1004 18.0488 61.4362 18.0488 69.77 18.0488C71.3459 18.0488 72.7272 18.6264 73.8762 19.7669C74.7028 20.5875 75.5295 21.4081 76.3562 22.2308C77.8463 23.7099 79.3343 25.1911 80.8307 26.6661C82.0341 27.8544 82.618 29.3585 82.6159 31.2656C82.6118 33.4262 82.6118 35.5867 82.6138 37.7473C82.6138 41.4431 82.6159 45.2677 82.5929 49.0279C82.5929 49.0445 82.5929 49.0611 82.5929 49.0778C82.6013 49.0778 82.6097 49.0778 82.618 49.0778C86.5882 49.0341 90.8158 49.03 95.9223 49.0653C97.4794 49.0757 98.9026 49.807 99.7313 51.0202C100.527 52.1856 100.679 53.6212 100.152 54.957V54.9591Z" stroke="white" stroke-width="2" stroke-miterlimit="10"/>
<mask id="path-4-outside-1_246_3567" maskUnits="userSpaceOnUse" x="6.55078" y="53.2178" width="37" height="29" fill="black">
<rect fill="white" x="6.55078" y="53.2178" width="37" height="29"/>
<path d="M41.1935 70.2537C39.132 72.3249 37.035 74.4024 35.007 76.4113L33.0544 78.3454C29.8293 81.5426 26.1437 81.5551 22.9396 78.3765C18.846 74.3151 14.7523 70.2537 10.6629 66.1881C10.305 65.8328 9.93665 65.4651 9.58924 65.0226C8.30004 63.3773 7.91704 61.2147 8.56374 59.239C9.21252 57.2571 10.8094 55.7281 12.8353 55.1464C15.2295 54.4608 17.4186 55.0799 19.3399 56.9891C20.2293 57.8741 21.1209 58.757 22.0104 59.6399L22.0983 59.7272C24.0195 61.6343 26.0056 63.6037 27.9687 65.569C29.7497 63.7658 31.4638 62.0851 32.6253 60.9487C32.4579 60.7867 32.2926 60.6226 32.1293 60.4585C31.9912 60.5935 31.8531 60.7285 31.717 60.8594C31.1959 61.3642 30.7062 61.8358 30.273 62.3303C29.7811 62.8891 29.0842 63.531 28.0252 63.5497H27.9834C26.9369 63.5497 26.2337 62.9473 25.7377 62.4217C24.346 60.9467 22.858 59.4883 21.4202 58.0777C20.8697 57.5376 20.3403 57.0182 19.8149 56.4967C18.2683 54.9636 16.5836 54.2406 14.5158 54.2178C14.0282 54.2365 13.4171 54.2593 12.8646 54.4151C10.3301 55.1339 8.43398 56.9683 7.79147 59.3221C7.13432 61.7299 7.83752 64.2311 9.72109 66.1819C14.4279 71.0597 19.2394 75.7444 22.9061 79.2802C25.9638 82.2282 30.1202 82.1617 33.2469 79.112C35.1912 77.2173 37.1333 75.277 39.0127 73.401L40.4819 71.9343C40.7812 71.6352 41.1056 71.3693 41.4195 71.1096C41.5116 71.0348 41.6707 70.9039 41.8297 70.7647C41.7439 70.6941 41.6665 70.6318 41.6204 70.5944C41.4781 70.4801 41.3358 70.3659 41.1935 70.2475V70.2537Z"/>
</mask>
<path d="M41.1935 70.2537C39.132 72.3249 37.035 74.4024 35.007 76.4113L33.0544 78.3454C29.8293 81.5426 26.1437 81.5551 22.9396 78.3765C18.846 74.3151 14.7523 70.2537 10.6629 66.1881C10.305 65.8328 9.93665 65.4651 9.58924 65.0226C8.30004 63.3773 7.91704 61.2147 8.56374 59.239C9.21252 57.2571 10.8094 55.7281 12.8353 55.1464C15.2295 54.4608 17.4186 55.0799 19.3399 56.9891C20.2293 57.8741 21.1209 58.757 22.0104 59.6399L22.0983 59.7272C24.0195 61.6343 26.0056 63.6037 27.9687 65.569C29.7497 63.7658 31.4638 62.0851 32.6253 60.9487C32.4579 60.7867 32.2926 60.6226 32.1293 60.4585C31.9912 60.5935 31.8531 60.7285 31.717 60.8594C31.1959 61.3642 30.7062 61.8358 30.273 62.3303C29.7811 62.8891 29.0842 63.531 28.0252 63.5497H27.9834C26.9369 63.5497 26.2337 62.9473 25.7377 62.4217C24.346 60.9467 22.858 59.4883 21.4202 58.0777C20.8697 57.5376 20.3403 57.0182 19.8149 56.4967C18.2683 54.9636 16.5836 54.2406 14.5158 54.2178C14.0282 54.2365 13.4171 54.2593 12.8646 54.4151C10.3301 55.1339 8.43398 56.9683 7.79147 59.3221C7.13432 61.7299 7.83752 64.2311 9.72109 66.1819C14.4279 71.0597 19.2394 75.7444 22.9061 79.2802C25.9638 82.2282 30.1202 82.1617 33.2469 79.112C35.1912 77.2173 37.1333 75.277 39.0127 73.401L40.4819 71.9343C40.7812 71.6352 41.1056 71.3693 41.4195 71.1096C41.5116 71.0348 41.6707 70.9039 41.8297 70.7647C41.7439 70.6941 41.6665 70.6318 41.6204 70.5944C41.4781 70.4801 41.3358 70.3659 41.1935 70.2475V70.2537Z" fill="white"/>
<path d="M41.1935 70.2537L41.7251 70.7828L41.9435 70.5633V70.2537H41.1935ZM35.007 76.4113L35.5348 76.9441L35.5348 76.9441L35.007 76.4113ZM33.0544 78.3454L32.5266 77.8125L32.5263 77.8128L33.0544 78.3454ZM22.9396 78.3765L22.4113 78.909L22.4114 78.909L22.9396 78.3765ZM10.6629 66.1881L11.1917 65.6562L11.1912 65.6558L10.6629 66.1881ZM9.58924 65.0226L8.99888 65.4852L8.99933 65.4858L9.58924 65.0226ZM8.56374 59.239L7.85096 59.0057L7.85095 59.0057L8.56374 59.239ZM12.8353 55.1464L12.6288 54.4254L12.6283 54.4255L12.8353 55.1464ZM19.3399 56.9891L19.8689 56.4574L19.8685 56.4571L19.3399 56.9891ZM22.0104 59.6399L22.5387 59.1077L22.5387 59.1077L22.0104 59.6399ZM22.0983 59.7272L21.5699 60.2595L21.5699 60.2595L22.0983 59.7272ZM27.9687 65.569L27.4381 66.099L27.9717 66.6333L28.5023 66.096L27.9687 65.569ZM32.6253 60.9487L33.1498 61.4848L33.7008 60.9458L33.1469 60.4098L32.6253 60.9487ZM32.1293 60.4585L32.6611 59.9295L32.1367 59.4024L31.605 59.9222L32.1293 60.4585ZM31.717 60.8594L31.197 60.3189L31.1952 60.3207L31.717 60.8594ZM30.273 62.3303L30.836 62.8257L30.8371 62.8245L30.273 62.3303ZM28.0252 63.5497V64.2998L28.0385 64.2996L28.0252 63.5497ZM25.7377 62.4217L25.1922 62.9364L25.1923 62.9364L25.7377 62.4217ZM21.4202 58.0777L20.8949 58.613L20.8949 58.6131L21.4202 58.0777ZM19.8149 56.4967L20.3433 55.9645L20.343 55.9641L19.8149 56.4967ZM14.5158 54.2178L14.5241 53.4678L14.5056 53.4676L14.4871 53.4683L14.5158 54.2178ZM12.8646 54.4151L12.661 53.6933L12.6599 53.6936L12.8646 54.4151ZM7.79147 59.3221L7.06795 59.1246L7.06794 59.1246L7.79147 59.3221ZM9.72109 66.1819L10.2608 65.6611L10.2606 65.6609L9.72109 66.1819ZM22.9061 79.2802L22.3855 79.8201L22.3855 79.8202L22.9061 79.2802ZM33.2469 79.112L32.7235 78.5748L32.7232 78.5751L33.2469 79.112ZM39.0127 73.401L39.5426 73.9319L39.5426 73.9318L39.0127 73.401ZM40.4819 71.9343L41.0118 72.4651L41.0121 72.4648L40.4819 71.9343ZM41.4195 71.1096L40.9467 70.5274L40.9415 70.5317L41.4195 71.1096ZM41.8297 70.7647L42.3236 71.3291L42.9886 70.7473L42.3064 70.1857L41.8297 70.7647ZM41.6204 70.5944L42.0933 70.0122L42.09 70.0096L41.6204 70.5944ZM41.1935 70.2475L41.6732 69.6709L40.4435 68.6477V70.2475H41.1935ZM40.6619 69.7246C38.6026 71.7936 36.5075 73.8692 34.4792 75.8784L35.5348 76.9441C37.5625 74.9355 39.6614 72.8562 41.7251 70.7828L40.6619 69.7246ZM34.4792 75.8784L32.5266 77.8125L33.5822 78.8782L35.5348 76.9441L34.4792 75.8784ZM32.5263 77.8128C31.0137 79.3124 29.4649 79.9972 27.9868 80.0019C26.5096 80.0065 24.9681 79.3324 23.4678 77.8441L22.4114 78.909C24.1153 80.5992 26.0186 81.5081 27.9915 81.5019C29.9635 81.4956 31.87 80.5756 33.5824 78.878L32.5263 77.8128ZM23.4678 77.8441C19.3741 73.7826 15.2808 69.7215 11.1917 65.6562L10.1341 66.72C14.2239 70.7859 18.3178 74.8476 22.4113 78.909L23.4678 77.8441ZM11.1912 65.6558C10.8315 65.2987 10.4943 64.9609 10.1791 64.5595L8.99933 65.4858C9.37901 65.9694 9.77852 66.367 10.1345 66.7204L11.1912 65.6558ZM10.1796 64.5601C9.04386 63.1106 8.70814 61.2087 9.27652 59.4723L7.85095 59.0057C7.12595 61.2206 7.55621 63.644 8.99888 65.4852L10.1796 64.5601ZM9.27652 59.4723C9.84686 57.7301 11.252 56.3813 13.0422 55.8673L12.6283 54.4255C10.3668 55.0749 8.57819 56.7841 7.85096 59.0057L9.27652 59.4723ZM13.0417 55.8674C15.1483 55.2642 17.0623 55.7832 18.8112 57.5211L19.8685 56.4571C17.7749 54.3766 15.3107 53.6574 12.6288 54.4254L13.0417 55.8674ZM18.8109 57.5208C19.7007 58.4061 20.5934 59.2902 21.482 60.1722L22.5387 59.1077C21.6484 58.2239 20.758 57.3421 19.8689 56.4574L18.8109 57.5208ZM21.482 60.1722L21.5699 60.2595L22.6266 59.1949L22.5387 59.1077L21.482 60.1722ZM21.5699 60.2595C23.4916 62.1671 25.4764 64.1352 27.4381 66.099L28.4993 65.039C26.5348 63.0723 24.5474 61.1015 22.6266 59.1949L21.5699 60.2595ZM28.5023 66.096C30.2785 64.2977 31.9887 62.6208 33.1498 61.4848L32.1008 60.4126C30.9389 61.5494 29.2209 63.2339 27.4351 65.042L28.5023 66.096ZM33.1469 60.4098C32.9839 60.2521 32.8222 60.0915 32.6611 59.9295L31.5976 60.9874C31.763 61.1537 31.9319 61.3213 32.1037 61.4877L33.1469 60.4098ZM31.605 59.9222C31.4665 60.0576 31.3305 60.1905 31.197 60.3189L32.237 61.3999C32.3756 61.2666 32.5159 61.1294 32.6536 60.9948L31.605 59.9222ZM31.1952 60.3207C30.6803 60.8195 30.1664 61.3138 29.7089 61.836L30.8371 62.8245C31.246 62.3578 31.7115 61.909 32.2389 61.3981L31.1952 60.3207ZM29.7099 61.8348C29.2497 62.3577 28.7391 62.787 28.012 62.7998L28.0385 64.2996C29.4294 64.275 30.3125 63.4205 30.836 62.8257L29.7099 61.8348ZM28.0252 62.7997H27.9834V64.2997H28.0252V62.7997ZM27.9834 62.7997C27.2583 62.7997 26.7428 62.3939 26.2832 61.9069L25.1923 62.9364C25.7247 63.5006 26.6156 64.2997 27.9834 64.2997V62.7997ZM26.2832 61.9069C24.8798 60.4195 23.3811 58.9508 21.9454 57.5423L20.8949 58.6131C22.3348 60.0257 23.8122 61.4738 25.1922 62.9364L26.2832 61.9069ZM21.9455 57.5424C21.3947 57.0019 20.8668 56.4841 20.3433 55.9645L19.2866 57.029C19.8137 57.5523 20.3448 58.0732 20.8949 58.613L21.9455 57.5424ZM20.343 55.9641C18.6656 54.3014 16.7973 53.4929 14.5241 53.4678L14.5075 54.9677C16.3698 54.9883 17.871 55.6258 19.2869 57.0294L20.343 55.9641ZM14.4871 53.4683C14.0152 53.4864 13.3137 53.5092 12.661 53.6933L13.0681 55.137C13.5204 55.0094 14.0412 54.9865 14.5446 54.9672L14.4871 53.4683ZM12.6599 53.6936C9.89691 54.4772 7.78605 56.4939 7.06795 59.1246L8.515 59.5196C9.08191 57.4428 10.7633 55.7906 13.0692 55.1367L12.6599 53.6936ZM7.06794 59.1246C6.33418 61.813 7.13338 64.5816 9.18155 66.7028L10.2606 65.6609C8.54166 63.8806 7.93445 61.6467 8.51501 59.5196L7.06794 59.1246ZM9.18138 66.7026C13.8979 71.5905 18.7172 76.2827 22.3855 79.8201L23.4267 78.7404C19.7616 75.2061 14.958 70.529 10.2608 65.6611L9.18138 66.7026ZM22.3855 79.8202C24.0427 81.4179 26.0331 82.228 28.0627 82.1951C30.0903 82.1623 32.0883 81.2897 33.7706 79.6489L32.7232 78.5751C31.2788 79.9839 29.6352 80.6695 28.0385 80.6953C26.4438 80.7211 24.8271 80.0905 23.4266 78.7403L22.3855 79.8202ZM33.7703 79.6491C35.7184 77.7507 37.664 75.807 39.5426 73.9319L38.4829 72.8702C36.6027 74.7469 34.6639 76.6839 32.7235 78.5748L33.7703 79.6491ZM39.5426 73.9318L41.0118 72.4651L39.952 71.4036L38.4828 72.8703L39.5426 73.9318ZM41.0121 72.4648C41.2816 72.1954 41.5768 71.9528 41.8976 71.6875L40.9415 70.5317C40.6343 70.7857 40.2808 71.075 39.9517 71.4039L41.0121 72.4648ZM41.8923 71.6918C41.9878 71.6143 42.1548 71.4769 42.3236 71.3291L41.3358 70.2003C41.1866 70.3309 41.0354 70.4554 40.9467 70.5274L41.8923 71.6918ZM42.3064 70.1857C42.218 70.113 42.1361 70.047 42.0933 70.0122L41.1476 71.1766C41.1968 71.2165 41.2698 71.2752 41.3531 71.3438L42.3064 70.1857ZM42.09 70.0096C41.9469 69.8946 41.8096 69.7845 41.6732 69.6709L40.7138 70.824C40.862 70.9473 41.0094 71.0656 41.1509 71.1792L42.09 70.0096ZM40.4435 70.2475V70.2537H41.9435V70.2475H40.4435Z" fill="white" mask="url(#path-4-outside-1_246_3567)"/>
<path d="M6.22901 16.3645L6.18806 16.3648V16.7713C6.1877 16.7734 6.18733 16.7755 6.18697 16.7776L6.08603 17.3626H6.67969H6.6797H6.67971H6.67972H6.67974H6.67975H6.67976H6.67977H6.67979H6.6798H6.67981H6.67983H6.67984H6.67985H6.67986H6.67988H6.67989H6.6799H6.67992H6.67993H6.67994H6.67996H6.67997H6.67998H6.68H6.68001H6.68002H6.68004H6.68005H6.68006H6.68008H6.68009H6.6801H6.68012H6.68013H6.68014H6.68016H6.68017H6.68019H6.6802H6.68021H6.68023H6.68024H6.68026H6.68027H6.68028H6.6803H6.68031H6.68033H6.68034H6.68036H6.68037H6.68039H6.6804H6.68041H6.68043H6.68044H6.68046H6.68047H6.68049H6.6805H6.68052H6.68053H6.68055H6.68056H6.68058H6.68059H6.68061H6.68062H6.68064H6.68065H6.68067H6.68068H6.6807H6.68071H6.68073H6.68074H6.68076H6.68077H6.68079H6.68081H6.68082H6.68084H6.68085H6.68087H6.68088H6.6809H6.68092H6.68093H6.68095H6.68096H6.68098H6.68099H6.68101H6.68103H6.68104H6.68106H6.68107H6.68109H6.68111H6.68112H6.68114H6.68115H6.68117H6.68119H6.6812H6.68122H6.68124H6.68125H6.68127H6.68128H6.6813H6.68132H6.68133H6.68135H6.68137H6.68138H6.6814H6.68142H6.68143H6.68145H6.68147H6.68148H6.6815H6.68152H6.68153H6.68155H6.68157H6.68158H6.6816H6.68162H6.68163H6.68165H6.68167H6.68169H6.6817H6.68172H6.68174H6.68175H6.68177H6.68179H6.68181H6.68182H6.68184H6.68186H6.68187H6.68189H6.68191H6.68193H6.68194H6.68196H6.68198H6.682H6.68201H6.68203H6.68205H6.68206H6.68208H6.6821H6.68212H6.68213H6.68215H6.68217H6.68219H6.68221H6.68222H6.68224H6.68226H6.68228H6.68229H6.68231H6.68233H6.68235H6.68236H6.68238H6.6824H6.68242H6.68244H6.68245H6.68247H6.68249H6.68251H6.68252H6.68254H6.68256H6.68258H6.6826H6.68261H6.68263H6.68265H6.68267H6.68269H6.6827H6.68272H6.68274H6.68276H6.68278H6.68279H6.68281H6.68283H6.68285H6.68287H6.68288H6.6829H6.68292H6.68294H6.68296H6.68298H6.68299H6.68301H6.68303H6.68305H6.68307H6.68308H6.6831H6.68312H6.68314H6.68316H6.68318H6.68319H6.68321H6.68323H6.68325H6.68327H6.68329H6.6833H6.68332H6.68334H6.68336H6.68338H6.6834H6.68341H6.68343H6.68345H6.68347H6.68349H6.68351H6.68352H6.68354H6.68356H6.68358H6.6836H6.68362H6.68363H6.68365H6.68367H6.68369H6.68371H6.68373H6.68374H6.68376H6.68378H6.6838H6.68382H6.68384H6.68385H6.68387H6.68389H6.68391H6.68393H6.68395H6.68397H6.68398H6.684H6.68402H6.68404H6.68406H6.68408H6.68409H6.68411H6.68413H6.68415H6.68417H6.68419H6.6842H6.68422H6.68424H6.68426H6.68428H6.6843H6.68431H6.68433H6.68435H6.68437H6.68439H6.68441H6.68442H6.68444H6.68446H6.68448H6.6845H6.68452H6.68453H6.68455H6.68457H6.68459H6.68461H6.68463H6.68464H6.68466H6.68468H6.6847H6.68472H6.68473H6.68475H6.68477H6.68479H6.68481H6.68483H6.68484H6.68486H6.68488H6.6849H6.68492H6.68493H6.68495H6.68497H6.68499H6.68501H6.68502H6.68504H6.68506H6.68508H6.6851H6.68511H6.68513H6.68515H6.68517H6.68519H6.6852H6.68522H6.68524H6.68526H6.68528H6.68529H6.68531H6.68533H6.68535H6.68536H6.68538H6.6854H6.68542H6.68544H6.68545H6.68547H6.68549H6.68551H6.68552H6.68554H6.68556H6.68558H6.68559H6.68561H6.68563H6.68565H6.68566H6.68568H6.6857H6.68572H6.68573H6.68575H6.68577H6.68579H6.6858H6.68582H6.68584H6.68585H6.68587H6.68589H6.68591H6.68592H6.68594H6.68596H6.68598H6.68599H6.68601H6.68603H6.68604H6.68606H6.68608H6.68609H6.68611H6.68613H6.68615H6.68616H6.68618H6.6862H6.68621H6.68623H6.68625H6.68626H6.68628H6.6863H6.68631H6.68633H6.68635H6.68636H6.68638H6.6864H6.68641H6.68643H6.68645H6.68646H6.68648H6.68649H6.68651H6.68653H6.68654H6.68656H6.68658H6.68659H6.68661H6.68662H6.68664H6.68666H6.68667H6.68669H6.6867H6.68672H6.68674H6.68675H6.68677H6.68678H6.6868H6.68682H6.68683H6.68685H6.68686H6.68688H6.68689H6.68691H6.68692H6.68694H6.68696H6.68697H6.68699H6.687H6.68702H6.68703H6.68705H6.68706H6.68708H6.68709H6.68711H6.68712H6.68714H6.68715H6.68717H6.68718H6.6872H6.68721H6.68723H6.68724H6.68726H6.68727H6.68729H6.6873H6.68732H6.68733H6.68735H6.68736H6.68738H6.68739H6.6874H6.68742H6.68743H6.68745H6.68746H6.68748H6.68749H6.6875H6.68752H6.68753H6.68755H6.68756H6.68757H6.68759H6.6876H6.68762H6.68763H6.68764H6.68766H6.68767H6.68768H6.6877H6.68771H6.68772H6.68774H6.68775H6.68776H6.68778H6.68779H6.6878H6.68782H6.68783H6.68784H6.68786H6.68787H6.68788H6.6879H6.68791H6.68792H6.68793H6.68795H6.68796H6.68797H6.68798H6.688H6.68801H6.68802H6.68803H6.68805H6.68806H7.18806V17.3567C9.46431 17.3404 11.7651 17.3442 13.9975 17.3481L13.9978 17.3481C15.8294 17.3502 17.661 17.3502 19.4926 17.3481L6.22901 16.3645ZM6.22901 16.3645C6.2362 16.1602 6.22479 15.9448 6.19297 15.7193L6.11233 15.148L6.68932 15.1494C13.2768 15.166 20.0945 15.166 26.952 15.1494L27.5366 15.148L27.4473 15.7258C27.3946 16.0667 27.3941 16.4235 27.4478 16.7876L27.533 17.3649L26.9494 17.3606C24.6638 17.3434 22.3444 17.3455 20.0849 17.3476C19.887 17.3478 19.6896 17.3479 19.4927 17.3481L6.22901 16.3645Z" fill="white" stroke="white"/>
</g>
<defs>
<clipPath id="clip0_246_3567">
<rect width="103" height="98" fill="white"/>
</clipPath>
</defs>
</svg>
