<svg width="25" height="24" viewBox="0 0 25 24" fill="none" xmlns="http://www.w3.org/2000/svg">
<g id="Tick">
<ellipse id="Ellipse 20" cx="12.1495" cy="12" rx="12.1495" ry="12" fill="#9B1E26"/>
<path id="Vector" d="M11.0627 13.8279C11.1188 13.7351 11.153 13.6414 11.2175 13.578C12.9837 11.8384 14.7531 10.1029 16.5202 8.36474C16.7307 8.15757 16.9613 7.99863 17.2723 8.00001C17.6479 8.00185 17.9332 8.16676 18.1086 8.49106C18.2854 8.81675 18.2564 9.14105 18.0422 9.44331C17.9758 9.53656 17.8916 9.61878 17.8092 9.69963C15.8102 11.6643 13.8102 13.6285 11.8097 15.5927C11.2587 16.1338 10.7648 16.1357 10.2175 15.5987C9.28626 14.6846 8.35641 13.7686 7.42376 12.8563C7.16978 12.6078 7.03273 12.3198 7.10757 11.9666C7.2535 11.2766 8.07577 10.9913 8.62161 11.4516C8.93967 11.7203 9.22499 12.0267 9.52293 12.3184C10.0136 12.798 10.5024 13.2789 11.0627 13.8288V13.8279Z" fill="white"/>
</g>
</svg>
