<?xml version="1.0" encoding="utf-8"?>
<!-- Generator: Adobe Illustrator 24.2.3, SVG Export Plug-In . SVG Version: 6.00 Build 0)  -->
<svg version="1.1" id="Layer_1" xmlns="http://www.w3.org/2000/svg" xmlns:xlink="http://www.w3.org/1999/xlink" x="0px" y="0px"
	 viewBox="0 0 1600 81" style="enable-background:new 0 0 1600 81; fill: #010e31;" xml:space="preserve">
<style type="text/css">
	.st0{fill-rule:evenodd;clip-rule:evenodd;}
</style>
<path class="st0" d="M1600,41.1c0,0-89.4,23.6-158-12c-68.6-35.5-129.6-19.3-193,8c-44,19-78.2-4.8-115-16
	c-36.8-11.2-82.1-0.9-111,16c-48,28-112.7,11.2-174-22c-61.3-33.2-92.1-3-114,8c-31.1,15.6-75.3,12.3-110-3.1
	c-46.5-20.7-88.6,9.7-110,19.1c-21.4,9.4-79.3,28.1-184-17c-50.8-21.9-119.9-12.9-162,8c-42.1,20.9-87.1,3.4-115-7
	c-27.9-10.4-36.7-5.4-54,0V81h1600V41.1z"/>
</svg>
