<svg width="24" height="24" viewBox="0 0 24 24" fill="none" xmlns="http://www.w3.org/2000/svg">
<path d="M11.9967 21.9999C10.155 22.0065 8.34834 21.4967 6.78182 20.5283L4.57997 21.1077C4.3506 21.1681 4.10938 21.167 3.88058 21.1045C3.65178 21.042 3.44348 20.9203 3.27665 20.7518C3.10983 20.5832 2.99035 20.3736 2.93027 20.1442C2.87018 19.9148 2.8716 19.6736 2.93438 19.4449L3.51382 17.3012C2.98066 16.4501 2.58196 15.5219 2.33177 14.5492C2.05135 13.4802 1.94761 12.3725 2.02468 11.27C2.1612 9.40495 2.81799 7.61557 3.92047 6.10502C5.02296 4.59448 6.52695 3.4233 8.26167 2.72449C9.99638 2.02567 11.8923 1.82722 13.7342 2.15166C15.576 2.47611 17.29 3.31045 18.6814 4.55995C20.0729 5.80945 21.086 7.42403 21.6059 9.22035C22.1257 11.0167 22.1314 12.9228 21.6223 14.7221C21.1132 16.5215 20.1097 18.1421 18.7257 19.3999C17.3418 20.6577 15.6328 21.5023 13.7929 21.8377C13.2004 21.9463 12.5991 22.0006 11.9967 21.9999ZM6.78182 19.0741C7.03361 19.0742 7.28039 19.1444 7.49452 19.2769C8.27517 19.7632 9.13069 20.1175 10.0266 20.3256C11.1678 20.5884 12.3503 20.618 13.5032 20.4125C15.0335 20.139 16.46 19.453 17.6288 18.4282C18.7976 17.4035 19.6643 16.0791 20.1355 14.5979C20.6066 13.1167 20.6642 11.535 20.3021 10.0234C19.94 8.51186 19.1719 7.12789 18.0807 6.02087C16.931 4.8481 15.4673 4.03193 13.8652 3.6703C12.263 3.30866 10.5906 3.41692 9.04849 3.98208C7.50638 4.54723 6.1601 5.54529 5.17118 6.85649C4.18227 8.16769 3.59271 9.73635 3.47326 11.3743C3.33392 13.2067 3.78907 15.0352 4.77119 16.5886C4.87114 16.7484 4.93713 16.927 4.96504 17.1134C4.99296 17.2998 4.98219 17.49 4.93343 17.672L4.35399 19.694L6.4921 19.1205C6.59225 19.0928 6.69535 19.0773 6.7992 19.0741H6.78182Z" fill="#9C1D26" stroke="#9C1D26" stroke-width="0.25"/>
<path d="M9.29716 8.00176C9.45631 8.00292 9.61189 8.05207 9.74583 8.1435C9.87977 8.23492 9.98659 8.36487 10.0539 8.51826L10.5169 9.56328C10.5944 9.74044 10.6273 9.93596 10.6125 10.1307C10.5977 10.3255 10.5355 10.5128 10.4322 10.6744C10.3189 10.85 10.2554 11.0567 10.2494 11.2697C10.2434 11.4826 10.2951 11.6929 10.3984 11.8755C10.8623 12.71 11.5562 13.3725 12.3861 13.7734C12.5765 13.8564 12.7859 13.8767 12.9873 13.8318C13.1886 13.7868 13.3727 13.6786 13.5156 13.5211L13.5664 13.4671C13.721 13.3029 13.9195 13.1935 14.1348 13.1537C14.35 13.1139 14.5716 13.1458 14.7692 13.2449L15.396 13.5632C15.5242 13.6278 15.6389 13.7191 15.7331 13.8318C15.8274 13.9446 15.8993 14.0763 15.9446 14.2193C15.99 14.3622 16.0077 14.5134 15.9969 14.6638C15.9861 14.8142 15.9469 14.9607 15.8817 15.0947C15.5768 15.6953 14.8822 16.2358 13.3066 15.8934C10.4831 15.2929 8.57433 11.9416 8.32586 11.4852L8.27504 11.377C8.13951 11.0227 7.49009 9.14287 8.83975 8.12788C8.97549 8.03459 9.1359 7.99036 9.29716 8.00176Z" fill="#9C1D26" stroke="#9C1D26" stroke-width="0.25"/>
</svg>
