<svg width="25" height="25" viewBox="0 0 25 25" fill="none" xmlns="http://www.w3.org/2000/svg">
<path d="M12.4938 2.61005C15.1449 2.611 17.6331 3.64312 19.5039 5.51634C21.3752 7.38956 22.405 9.8796 22.404 12.5278C22.4022 17.9921 17.9557 22.438 12.4938 22.438H12.4896C10.8311 22.4375 9.20122 22.0218 7.75378 21.232L2.50003 22.61L3.90613 17.4741C3.0389 15.9716 2.58224 14.2666 2.58319 12.5198C2.58509 7.0555 7.03101 2.61005 12.4938 2.61005Z" fill="white"/>
<path d="M15.3152 13.7918C15.5424 13.8745 16.7598 14.4733 17.0074 14.5973L17.007 14.5982C17.2546 14.7222 17.4199 14.7845 17.4817 14.8876C17.5434 14.9907 17.5434 15.4868 17.3372 16.0652C17.131 16.6435 16.1416 17.1714 15.6659 17.2427C15.2392 17.3064 14.6994 17.333 14.1063 17.1443C13.7466 17.0303 13.2852 16.8777 12.6945 16.6226C10.2107 15.5496 8.5884 13.0486 8.46439 12.8833L8.46286 12.8812C8.33328 12.7085 7.45316 11.535 7.45316 10.3215C7.45316 9.10306 8.09279 8.50384 8.31991 8.25581C8.54704 8.00776 8.81508 7.94598 8.98045 7.94598C9.14582 7.94598 9.31069 7.9474 9.45516 7.95454C9.60676 7.96261 9.81106 7.89704 10.0121 8.37983C10.2188 8.87544 10.7139 10.0943 10.7757 10.2183C10.8375 10.3424 10.8789 10.4868 10.7961 10.6522C10.7135 10.8171 10.6726 10.9207 10.5486 11.0652C10.4245 11.2096 10.2881 11.3878 10.177 11.499C10.0534 11.6221 9.92418 11.7561 10.0686 12.0041C10.2131 12.2522 10.7102 13.0629 11.4462 13.7196C12.3923 14.5631 13.1902 14.8244 13.4377 14.9484C13.6853 15.0725 13.8298 15.052 13.9743 14.8867C14.1187 14.7218 14.5934 14.1639 14.7583 13.9159C14.9232 13.6678 15.0881 13.7091 15.3152 13.7918Z" fill="#00205B"/>
</svg>
