<svg width="25" height="25" viewBox="0 0 25 25" fill="none" xmlns="http://www.w3.org/2000/svg">
<path d="M22.0836 7.79552C21.9687 7.37102 21.7441 6.98423 21.4325 6.67399C21.1208 6.36375 20.7329 6.14098 20.3079 6.02805C18.7478 5.61005 12.4959 5.61005 12.4959 5.61005C12.4959 5.61005 6.24226 5.61005 4.68544 6.02805C4.26178 6.14194 3.8755 6.36517 3.56529 6.67537C3.25509 6.98558 3.03186 7.37186 2.91797 7.79552C2.49997 9.35398 2.49997 12.6075 2.49997 12.6075C2.49997 12.6075 2.49997 15.861 2.91797 17.4195C3.03186 17.8431 3.25509 18.2294 3.56529 18.5396C3.8755 18.8498 4.26178 19.0731 4.68544 19.1869C6.2439 19.5984 12.4959 19.5984 12.4959 19.5984C12.4959 19.5984 18.7495 19.5984 20.3079 19.1804C20.7322 19.068 21.1194 18.8462 21.4311 18.5372C21.7427 18.2282 21.9677 17.8428 22.0836 17.4195C22.5 15.861 22.5 12.6075 22.5 12.6075C22.5 12.6075 22.4917 9.35398 22.0836 7.79552ZM10.4963 15.6059V9.60906L15.6918 12.6075L10.4963 15.6059Z" fill="currentColor"/>
</svg>
