<svg width="21" height="15" viewBox="0 0 21 15" fill="none" xmlns="http://www.w3.org/2000/svg">
<path d="M20.0836 2.79552C19.9687 2.37102 19.7441 1.98423 19.4325 1.67399C19.1208 1.36375 18.7329 1.14098 18.3079 1.02805C16.7478 0.610046 10.4959 0.610046 10.4959 0.610046C10.4959 0.610046 4.24226 0.610046 2.68544 1.02805C2.26178 1.14194 1.8755 1.36517 1.56529 1.67537C1.25509 1.98558 1.03186 2.37186 0.917973 2.79552C0.499969 4.35398 0.499969 7.6075 0.499969 7.6075C0.499969 7.6075 0.499969 10.861 0.917973 12.4195C1.03186 12.8431 1.25509 13.2294 1.56529 13.5396C1.8755 13.8498 2.26178 14.0731 2.68544 14.1869C4.2439 14.5984 10.4959 14.5984 10.4959 14.5984C10.4959 14.5984 16.7495 14.5984 18.3079 14.1804C18.7322 14.068 19.1194 13.8462 19.4311 13.5372C19.7427 13.2282 19.9677 12.8428 20.0836 12.4195C20.5 10.861 20.5 7.6075 20.5 7.6075C20.5 7.6075 20.4917 4.35398 20.0836 2.79552ZM8.49635 10.6059V4.60906L13.6918 7.6075L8.49635 10.6059Z" fill="white"/>
</svg>
