<svg width="58" height="64" viewBox="0 0 58 64" fill="none" xmlns="http://www.w3.org/2000/svg">
<path d="M15.696 63.99C14.836 63.65 13.9044 63.4233 13.1278 62.9467C11.1645 61.7417 10.1145 59.9201 10.0712 57.6085C10.0212 54.8186 10.0545 52.027 10.0528 49.2354C10.0528 49.0104 10.0528 48.7854 10.0528 48.5237H3.638C3.77466 48.6904 3.87466 48.8321 3.99466 48.957C4.97297 49.9804 5.95794 50.9987 6.93292 52.0253C7.4379 52.557 7.47123 53.1519 7.04458 53.5686C6.60126 54.0003 6.03127 53.9569 5.50962 53.4169C3.87299 51.7253 2.24304 50.0287 0.61808 48.3254C0.0380948 47.7171 0.0397615 47.2488 0.61808 46.6421C2.24304 44.9405 3.87466 43.2422 5.50962 41.5506C6.02294 41.0189 6.60626 40.9739 7.04458 41.4006C7.4729 41.8172 7.43957 42.4139 6.93625 42.9439C5.84961 44.0888 4.75464 45.2238 3.59134 46.4388H10.0545C10.0545 46.1955 10.0545 45.9338 10.0545 45.6738C10.0545 32.7391 10.0545 19.8061 10.0545 6.87148C10.0545 3.70156 11.7361 1.27496 14.5761 0.321648C14.9444 0.198318 15.3227 0.0999874 15.696 -0.0100098C24.4458 -0.0100098 33.1972 -0.0100098 41.947 -0.0100098C42.3003 0.0916542 42.657 0.186652 43.0086 0.298316C45.6686 1.13496 47.5352 3.57656 47.5735 6.37149C47.6119 9.16142 47.5869 11.9513 47.5885 14.7413C47.5885 14.9663 47.5885 15.1913 47.5885 15.4513H53.9984C53.8884 15.3079 53.8067 15.1796 53.7034 15.0729C52.7117 14.0346 51.7134 13.0013 50.7218 11.9613C50.2135 11.428 50.1685 10.8414 50.5868 10.4197C51.0351 9.96973 51.6168 10.0231 52.1651 10.5914C53.785 12.2697 55.4017 13.9496 57.0116 15.6379C57.6149 16.2696 57.6083 16.7246 56.9949 17.3662C55.3983 19.0378 53.7967 20.7028 52.1917 22.3677C51.6301 22.9494 51.0734 23.0211 50.6134 22.5927C50.1518 22.1627 50.2118 21.5561 50.7801 20.9611C51.7151 19.9828 52.6551 19.0078 53.59 18.0295C53.7267 17.8862 53.8534 17.7329 54.0417 17.5229H47.5885C47.5885 17.7929 47.5885 18.0562 47.5885 18.3178C47.5885 31.2692 47.5902 44.2205 47.5869 57.1718C47.5869 60.2918 45.8086 62.8034 43.0086 63.6817C42.657 63.7917 42.302 63.8883 41.9487 63.99H15.696ZM12.0528 48.4854C12.0528 51.407 12.0494 54.2386 12.0528 57.0702C12.0561 60.1001 13.9394 61.9884 16.9577 61.99C24.8741 61.9917 32.7906 61.9917 40.707 61.99C43.687 61.99 45.5886 60.0918 45.5886 57.1102C45.5919 44.1322 45.5886 31.1558 45.5886 18.1779C45.5886 17.9595 45.5886 17.7412 45.5886 17.4929H44.8103C41.0404 17.4929 37.2688 17.4929 33.4989 17.4929C33.3122 17.4929 33.1189 17.5112 32.9372 17.4795C32.4006 17.3829 32.0756 17.0645 32.0706 16.5029C32.0656 15.9396 32.3889 15.6179 32.9239 15.5146C33.1256 15.4763 33.3389 15.4946 33.5472 15.4946C37.3171 15.4946 41.0887 15.4946 44.8586 15.4946C45.0819 15.4946 45.3053 15.4946 45.5886 15.4946V14.7596C45.5886 12.1563 45.5902 9.55141 45.5886 6.94814C45.5852 3.87322 43.717 1.99494 40.6554 1.99494C32.7606 1.99494 24.8641 1.99494 16.9693 1.99494C13.9444 1.99494 12.0545 3.87656 12.0545 6.90148C12.0528 19.8578 12.0545 32.8141 12.0545 45.7721C12.0545 45.9938 12.0545 46.2155 12.0545 46.4904C12.3561 46.4904 12.5811 46.4904 12.8044 46.4904C16.5743 46.4904 20.3459 46.4904 24.1158 46.4904C24.3241 46.4904 24.5375 46.4704 24.7391 46.5104C25.2474 46.6104 25.5541 46.9238 25.5724 47.4538C25.5908 47.9854 25.3008 48.3204 24.8041 48.4521C24.5891 48.5087 24.3491 48.4887 24.1208 48.4887C20.3509 48.4904 16.5793 48.4887 12.8094 48.4887H12.0528V48.4854Z" fill="white"/>
<path d="M28.8124 42.7489C22.8659 42.7455 18.0593 37.9323 18.061 31.9825C18.061 26.036 22.8759 21.2294 28.8274 21.2311C34.7739 21.2328 39.5821 26.0476 39.5804 31.9975C39.5804 37.939 34.7572 42.7522 28.8124 42.7489ZM28.8174 40.7506C33.6722 40.7506 37.5871 36.8307 37.5805 31.9775C37.5738 27.151 33.6722 23.2411 28.8524 23.2327C23.9858 23.2244 20.0659 27.121 20.0593 31.9742C20.0526 36.8324 23.9625 40.7523 28.8174 40.7523V40.7506Z" fill="white"/>
<path d="M29.3433 31.414C29.2822 31.414 29.225 31.414 29.1678 31.414C27.9064 31.414 26.645 31.416 25.384 31.4129C24.8615 31.4117 24.5635 31.0498 24.7007 30.597C24.7733 30.3573 24.9811 30.198 25.2555 30.1758C25.3303 30.1695 25.4056 30.1699 25.4808 30.1699C26.71 30.1699 27.9391 30.1699 29.1683 30.1699H29.3644C29.3364 30.1012 29.3231 30.0497 29.296 30.0048C28.8995 29.3466 28.3189 28.936 27.4665 28.9211C26.7745 28.909 26.0816 28.92 25.3892 28.9176C24.8632 28.9161 24.557 28.5452 24.7032 28.0897C24.7742 27.8687 24.9385 27.7325 25.1862 27.6884C25.28 27.6716 25.378 27.6677 25.4739 27.6677C27.9159 27.6665 30.3583 27.6669 32.8002 27.6669C32.854 27.6669 32.9078 27.6657 32.9611 27.67C33.3808 27.7024 33.6157 27.9487 33.5985 28.3364C33.5825 28.6861 33.3189 28.9161 32.9159 28.9176C32.0678 28.9208 31.2197 28.9188 30.3716 28.9188C30.314 28.9188 30.2568 28.9188 30.1764 28.9188C30.2529 29.0398 30.3295 29.139 30.3819 29.2479C30.5088 29.5102 30.6331 29.7745 30.7398 30.0438C30.7772 30.1375 30.812 30.1738 30.9251 30.1731C31.5853 30.168 32.2454 30.1672 32.9056 30.1719C33.4028 30.1754 33.6948 30.5209 33.5834 30.96C33.5124 31.2399 33.2712 31.4109 32.9215 31.4132C32.2773 31.4175 31.6335 31.4199 30.9892 31.4113C30.8318 31.4093 30.7729 31.4507 30.7346 31.5916C30.4206 32.7542 29.0827 33.9385 27.4114 33.9182C27.294 33.9167 27.1762 33.9182 27.017 33.9182C27.0794 33.9784 27.116 34.0154 27.1551 34.0506C28.0772 34.8891 29.0001 35.7268 29.9213 36.5665C30.2108 36.8304 30.246 37.1427 30.025 37.4085C29.7674 37.7181 29.3201 37.7559 29.013 37.4862C28.7236 37.2321 28.4427 36.9697 28.158 36.7109C27.0764 35.7276 25.9952 34.7439 24.9127 33.7617C24.7015 33.57 24.6052 33.3573 24.717 33.0875C24.8383 32.7955 25.0241 32.6687 25.3707 32.6675C26.0631 32.6648 26.7556 32.6737 27.448 32.6648C28.2999 32.6534 28.8844 32.249 29.287 31.5936C29.3102 31.5557 29.3252 31.5136 29.3416 31.4722C29.3463 31.4597 29.3424 31.4445 29.3424 31.4148L29.3433 31.414Z" fill="white" stroke="white" stroke-width="0.4"/>
<path d="M28.829 7.63146C26.2907 7.63146 23.7524 7.63146 21.2142 7.63146C21.0059 7.63146 20.7925 7.64813 20.5909 7.6098C20.1359 7.52313 19.8476 7.24314 19.7942 6.77315C19.7376 6.28483 19.9259 5.90318 20.4009 5.73485C20.6292 5.65318 20.8892 5.63652 21.1342 5.63485C26.2524 5.62985 31.3706 5.62985 36.4905 5.63318C36.6971 5.63318 36.9121 5.62985 37.1088 5.68485C37.6421 5.83151 37.9087 6.20317 37.8487 6.75482C37.7921 7.27981 37.4688 7.58313 36.9454 7.61813C36.4905 7.6498 36.0305 7.6298 35.5721 7.6298C33.3255 7.6298 31.0773 7.6298 28.8307 7.6298L28.829 7.63146Z" fill="white"/>
<path d="M28.8557 56.3535C29.3123 56.3535 29.7707 56.3369 30.2273 56.3585C30.794 56.3852 31.1773 56.7718 31.199 57.2968C31.2206 57.8185 30.8706 58.2935 30.314 58.3201C29.319 58.3668 28.319 58.3668 27.3241 58.3201C26.7657 58.2935 26.4224 57.8185 26.4474 57.2918C26.4724 56.7685 26.8541 56.3852 27.4241 56.3602C27.9007 56.3385 28.3807 56.3552 28.859 56.3552L28.8557 56.3535Z" fill="white"/>
</svg>
